<?xml version="1.0" encoding="UTF-8"?>
<!-- Generator: visioncortex VTracer 0.6.12 -->
<svg version="1.1" xmlns="http://www.w3.org/2000/svg" width="1024" height="1024">
<path d="M0 0 C337.92 0 675.84 0 1024 0 C1024 337.92 1024 675.84 1024 1024 C686.08 1024 348.16 1024 0 1024 C0 686.08 0 348.16 0 0 Z " fill="#FEFEFE" transform="translate(0,0)"/>
<path d="M0 0 C0.379 0.001 0.379 0.001 2.294 0.004 C91.004 0.284 177.942 31.105 246.379 87.699 C247.972 89.01 249.578 90.303 251.188 91.594 C261.569 99.923 271.134 109.055 280.562 118.438 C281.216 119.087 281.87 119.736 282.544 120.405 C286.96 124.836 291.112 129.443 295.188 134.188 C296.045 135.163 296.902 136.139 297.785 137.145 C310.22 151.55 321.137 167.044 331.188 183.188 C331.567 183.789 331.946 184.391 332.337 185.011 C339.673 196.677 345.931 208.918 352.188 221.188 C352.575 221.94 352.962 222.692 353.361 223.468 C355.214 227.106 356.854 230.694 358.188 234.562 C359.387 238.022 360.674 241.429 362.043 244.824 C383.096 297.21 389.324 350.224 389.362 406.233 C389.366 410.551 389.376 414.869 389.384 419.187 C389.404 429.569 389.414 439.95 389.423 450.332 C389.427 454.247 389.431 458.162 389.435 462.077 C389.453 479.353 389.469 496.629 389.477 513.905 C389.479 518.115 389.481 522.326 389.483 526.536 C389.483 527.583 389.484 528.629 389.484 529.707 C389.492 546.709 389.518 563.711 389.55 580.712 C389.583 598.194 389.601 615.676 389.605 633.158 C389.607 642.964 389.615 652.769 389.641 662.575 C389.663 670.91 389.671 679.246 389.661 687.581 C389.656 691.833 389.658 696.085 389.678 700.337 C389.695 704.228 389.694 708.119 389.679 712.01 C389.676 713.418 389.681 714.826 389.693 716.234 C389.786 728.059 389.786 728.059 387.407 731.94 C384.633 734.75 382.649 736.041 378.687 736.438 C378.212 736.438 378.212 736.438 375.81 736.439 C375.261 736.442 375.261 736.442 372.477 736.455 C371.267 736.451 370.056 736.447 368.809 736.442 C367.519 736.445 366.23 736.448 364.901 736.452 C361.302 736.46 357.704 736.456 354.106 736.451 C350.198 736.446 346.29 736.454 342.383 736.46 C335.528 736.469 328.673 736.47 321.818 736.466 C311.625 736.461 301.431 736.467 291.238 736.475 C271.976 736.491 252.714 736.492 233.452 736.49 C218.581 736.488 203.711 736.49 188.84 736.494 C186.706 736.495 184.572 736.495 182.437 736.496 C179.222 736.497 176.006 736.498 172.79 736.499 C142.88 736.507 112.971 736.511 83.061 736.507 C82.497 736.507 82.497 736.507 79.642 736.507 C73.923 736.506 68.204 736.505 62.485 736.504 C61.349 736.504 60.214 736.504 59.043 736.504 C56.746 736.503 54.449 736.503 52.153 736.503 C16.404 736.497 -19.345 736.505 -55.094 736.524 C-95.23 736.544 -135.366 736.555 -175.502 736.551 C-179.778 736.551 -184.055 736.55 -188.331 736.55 C-189.384 736.55 -190.437 736.55 -191.522 736.55 C-207.444 736.549 -223.365 736.555 -239.287 736.566 C-257.386 736.578 -275.485 736.579 -293.584 736.567 C-303.721 736.56 -313.858 736.562 -323.995 736.576 C-330.759 736.584 -337.522 736.581 -344.285 736.57 C-348.144 736.563 -352.002 736.562 -355.861 736.574 C-360.01 736.586 -364.159 736.575 -368.308 736.562 C-369.516 736.57 -370.724 736.577 -371.969 736.584 C-372.521 736.581 -372.521 736.581 -375.31 736.562 C-376.259 736.562 -377.209 736.562 -378.186 736.562 C-382.392 735.962 -385.021 734.207 -387.602 730.882 C-389.018 727.73 -389.187 725.523 -389.187 722.072 C-389.194 720.835 -389.202 719.599 -389.209 718.324 C-389.202 716.954 -389.194 715.585 -389.187 714.215 C-389.189 712.757 -389.194 711.3 -389.199 709.842 C-389.209 705.835 -389.201 701.828 -389.19 697.821 C-389.181 693.499 -389.19 689.177 -389.196 684.854 C-389.205 676.38 -389.199 667.906 -389.187 659.432 C-389.173 649.545 -389.175 639.658 -389.177 629.771 C-389.18 612.103 -389.168 594.435 -389.149 576.767 C-389.13 559.67 -389.123 542.573 -389.128 525.477 C-389.134 506.841 -389.134 488.205 -389.123 469.569 C-389.121 467.574 -389.12 465.579 -389.119 463.583 C-389.118 462.602 -389.118 461.62 -389.117 460.609 C-389.113 453.741 -389.114 446.873 -389.116 440.004 C-389.118 431.6 -389.112 423.196 -389.098 414.792 C-389.091 410.515 -389.087 406.238 -389.091 401.962 C-389.115 376.664 -388.583 351.485 -384.188 326.5 C-384.06 325.757 -383.933 325.014 -383.801 324.249 C-377.798 289.455 -367.563 256.313 -352.812 224.188 C-352.127 222.666 -351.442 221.143 -350.758 219.621 C-343.436 203.508 -334.599 188.596 -324.812 173.875 C-324.394 173.243 -323.975 172.612 -323.544 171.961 C-309.16 150.319 -292.448 130.782 -274.125 112.375 C-273.424 111.67 -272.723 110.964 -272.001 110.237 C-267.434 105.684 -262.702 101.392 -257.812 97.188 C-256.753 96.25 -255.694 95.311 -254.637 94.371 C-207.534 52.925 -149.489 24.927 -88.812 10.188 C-88.293 10.061 -88.293 10.061 -85.662 9.422 C-57.655 2.775 -28.753 -0.05 0 0 Z " fill="#25BEFB" transform="translate(511.8125,143.8125)"/>
<path d="M0 0 C0.379 0.001 0.379 0.001 2.294 0.004 C91.004 0.284 177.942 31.105 246.379 87.699 C247.972 89.01 249.578 90.303 251.188 91.594 C261.569 99.923 271.134 109.055 280.562 118.438 C281.216 119.087 281.87 119.736 282.544 120.405 C286.96 124.836 291.112 129.443 295.188 134.188 C296.045 135.163 296.902 136.139 297.785 137.145 C310.22 151.55 321.137 167.044 331.188 183.188 C331.567 183.789 331.946 184.391 332.337 185.011 C339.673 196.677 345.931 208.918 352.188 221.188 C352.575 221.94 352.962 222.692 353.361 223.468 C355.214 227.106 356.854 230.694 358.188 234.562 C359.387 238.022 360.674 241.429 362.043 244.824 C383.096 297.21 389.324 350.224 389.362 406.233 C389.366 410.551 389.376 414.869 389.384 419.187 C389.404 429.569 389.414 439.95 389.423 450.332 C389.427 454.247 389.431 458.162 389.435 462.077 C389.453 479.353 389.469 496.629 389.477 513.905 C389.479 518.115 389.481 522.326 389.483 526.536 C389.483 527.583 389.484 528.629 389.484 529.707 C389.492 546.709 389.518 563.711 389.55 580.712 C389.583 598.194 389.601 615.676 389.605 633.158 C389.607 642.964 389.615 652.769 389.641 662.575 C389.663 670.91 389.671 679.246 389.661 687.581 C389.656 691.833 389.658 696.085 389.678 700.337 C389.695 704.228 389.694 708.119 389.679 712.01 C389.676 713.418 389.681 714.826 389.693 716.234 C389.786 728.059 389.786 728.059 387.407 731.94 C384.633 734.75 382.649 736.041 378.687 736.438 C378.212 736.438 378.212 736.438 375.81 736.439 C375.261 736.442 375.261 736.442 372.477 736.455 C371.267 736.451 370.056 736.447 368.809 736.442 C367.519 736.445 366.23 736.448 364.901 736.452 C361.302 736.46 357.704 736.456 354.106 736.451 C350.198 736.446 346.29 736.454 342.383 736.46 C335.528 736.469 328.673 736.47 321.818 736.466 C311.625 736.461 301.431 736.467 291.238 736.475 C271.976 736.491 252.714 736.492 233.452 736.49 C218.581 736.488 203.711 736.49 188.84 736.494 C186.706 736.495 184.572 736.495 182.437 736.496 C179.222 736.497 176.006 736.498 172.79 736.499 C142.88 736.507 112.971 736.511 83.061 736.507 C82.497 736.507 82.497 736.507 79.642 736.507 C73.923 736.506 68.204 736.505 62.485 736.504 C61.349 736.504 60.214 736.504 59.043 736.504 C56.746 736.503 54.449 736.503 52.153 736.503 C16.404 736.497 -19.345 736.505 -55.094 736.524 C-95.23 736.544 -135.366 736.555 -175.502 736.551 C-179.778 736.551 -184.055 736.55 -188.331 736.55 C-189.384 736.55 -190.437 736.55 -191.522 736.55 C-207.444 736.549 -223.365 736.555 -239.287 736.566 C-257.386 736.578 -275.485 736.579 -293.584 736.567 C-303.721 736.56 -313.858 736.562 -323.995 736.576 C-330.759 736.584 -337.522 736.581 -344.285 736.57 C-348.144 736.563 -352.002 736.562 -355.861 736.574 C-360.01 736.586 -364.159 736.575 -368.308 736.562 C-369.516 736.57 -370.724 736.577 -371.969 736.584 C-372.521 736.581 -372.521 736.581 -375.31 736.562 C-376.259 736.562 -377.209 736.562 -378.186 736.562 C-382.392 735.962 -385.021 734.207 -387.602 730.882 C-389.018 727.73 -389.187 725.523 -389.187 722.072 C-389.194 720.835 -389.202 719.599 -389.209 718.324 C-389.202 716.954 -389.194 715.585 -389.187 714.215 C-389.189 712.757 -389.194 711.3 -389.199 709.842 C-389.209 705.835 -389.201 701.828 -389.19 697.821 C-389.181 693.499 -389.19 689.177 -389.196 684.854 C-389.205 676.38 -389.199 667.906 -389.187 659.432 C-389.173 649.545 -389.175 639.658 -389.177 629.771 C-389.18 612.103 -389.168 594.435 -389.149 576.767 C-389.13 559.67 -389.123 542.573 -389.128 525.477 C-389.134 506.841 -389.134 488.205 -389.123 469.569 C-389.121 467.574 -389.12 465.579 -389.119 463.583 C-389.118 462.602 -389.118 461.62 -389.117 460.609 C-389.113 453.741 -389.114 446.873 -389.116 440.004 C-389.118 431.6 -389.112 423.196 -389.098 414.792 C-389.091 410.515 -389.087 406.238 -389.091 401.962 C-389.115 376.664 -388.583 351.485 -384.188 326.5 C-384.06 325.757 -383.933 325.014 -383.801 324.249 C-377.798 289.455 -367.563 256.313 -352.812 224.188 C-352.127 222.666 -351.442 221.143 -350.758 219.621 C-343.436 203.508 -334.599 188.596 -324.812 173.875 C-324.394 173.243 -323.975 172.612 -323.544 171.961 C-309.16 150.319 -292.448 130.782 -274.125 112.375 C-273.424 111.67 -272.723 110.964 -272.001 110.237 C-267.434 105.684 -262.702 101.392 -257.812 97.188 C-256.753 96.25 -255.694 95.311 -254.637 94.371 C-207.534 52.925 -149.489 24.927 -88.812 10.188 C-88.293 10.061 -88.293 10.061 -85.662 9.422 C-57.655 2.775 -28.753 -0.05 0 0 Z M-245.406 115.992 C-247.44 117.848 -249.505 119.651 -251.59 121.449 C-255.858 125.175 -259.882 129.108 -263.875 133.125 C-264.543 133.79 -265.212 134.454 -265.9 135.139 C-279.293 148.557 -291.081 163.584 -301.812 179.188 C-302.21 179.757 -302.608 180.327 -303.017 180.914 C-310.154 191.161 -316.398 201.863 -322.465 212.772 C-323.618 214.839 -324.788 216.896 -325.965 218.949 C-345.201 253.449 -356.363 292.653 -362.562 331.438 C-362.662 332.058 -362.662 332.058 -363.166 335.199 C-366.484 357.095 -367.102 378.807 -367.045 400.908 C-367.036 405.126 -367.039 409.344 -367.04 413.562 C-367.041 420.843 -367.035 428.125 -367.024 435.406 C-367.008 445.934 -367.002 456.461 -367 466.988 C-366.996 484.075 -366.982 501.161 -366.963 518.247 C-366.945 534.83 -366.931 551.413 -366.922 567.996 C-366.922 569.031 -366.921 570.066 -366.921 571.133 C-366.917 579.23 -366.913 587.327 -366.909 595.425 C-366.89 635.012 -366.85 674.6 -366.812 714.188 C-260.222 714.188 -153.632 714.188 -43.812 714.188 C-43.483 678.217 -43.152 642.247 -42.812 605.188 C-39.812 598.188 -39.812 598.188 -37.058 596.274 C-33.475 595.075 -30.652 594.807 -26.877 594.799 C-26.211 594.794 -25.545 594.789 -24.859 594.783 C-22.675 594.77 -20.492 594.779 -18.309 594.789 C-16.782 594.787 -15.256 594.784 -13.729 594.78 C-10.538 594.776 -7.346 594.782 -4.155 594.796 C-0.07 594.813 4.014 594.804 8.098 594.786 C11.248 594.775 14.397 594.778 17.546 594.786 C19.052 594.788 20.558 594.786 22.064 594.779 C24.17 594.771 26.275 594.783 28.381 594.799 C28.979 594.801 28.979 594.801 32.007 594.807 C35.645 595.242 37.389 595.82 40.188 598.188 C55.428 633.749 43.833 675.499 44.188 714.188 C150.778 714.188 257.368 714.188 367.188 714.188 C367.268 629.371 367.268 629.371 367.285 593.838 C367.289 585.706 367.293 577.574 367.297 569.443 C367.298 568.424 367.298 567.405 367.299 566.355 C367.308 549.949 367.323 533.544 367.342 517.139 C367.361 500.276 367.372 483.412 367.376 466.549 C367.378 456.162 367.387 445.774 367.403 435.387 C367.414 428.243 367.417 421.099 367.415 413.955 C367.413 409.847 367.415 405.738 367.426 401.63 C367.487 377.253 366.657 353.187 362.438 329.125 C362.306 328.363 362.175 327.601 362.04 326.815 C352.838 273.491 332.767 222.283 301.188 178.188 C300.64 177.421 300.093 176.655 299.53 175.865 C291.888 165.204 283.964 154.939 275.188 145.188 C274.695 144.639 274.203 144.091 273.696 143.525 C264.089 132.862 254.17 122.448 243.188 113.188 C242.711 112.772 242.711 112.772 240.301 110.672 C234.566 105.698 228.712 100.954 222.562 96.5 C221.971 96.066 221.379 95.632 220.769 95.184 C216.552 92.188 216.552 92.188 213.188 92.188 C213.188 92.847 213.188 93.507 213.188 94.188 C212.197 94.188 211.207 94.188 210.188 94.188 C209.857 93.528 209.528 92.868 209.188 92.188 C207.538 92.517 205.888 92.847 204.188 93.188 C204.188 93.847 204.188 94.507 204.188 95.188 C203.528 95.517 202.867 95.847 202.188 96.188 C202.518 96.724 202.847 97.26 203.188 97.812 C204.414 100.727 204.33 103.056 204.188 106.188 C203.692 106.352 203.692 106.352 201.188 107.188 C200.528 106.197 199.867 105.207 199.188 104.188 C198.692 105.343 198.692 105.343 196.188 111.188 C195.857 110.528 195.528 109.868 195.188 109.188 C194.857 110.178 194.528 111.168 194.188 112.188 C195.178 112.188 196.168 112.188 197.188 112.188 C197.188 112.847 197.188 113.507 197.188 114.188 C196.528 114.188 195.867 114.188 195.188 114.188 C195.188 115.178 195.188 116.168 195.188 117.188 C194.197 117.188 193.207 117.188 192.188 117.188 C192.518 118.507 192.847 119.827 193.188 121.188 C192.424 121.476 191.661 121.765 190.875 122.062 C188.187 123.188 188.187 123.188 185.188 125.188 C186.188 128.188 186.188 128.188 187.188 130.188 C186.692 130.517 186.692 130.517 184.188 132.188 C184.188 133.178 184.188 134.168 184.188 135.188 C183.631 135.414 183.074 135.641 182.5 135.875 C180.188 137.188 180.188 137.188 177.75 139.625 C174.503 142.872 171.529 144.74 167.188 146.188 C166.528 147.178 165.867 148.168 165.188 149.188 C166.178 149.517 167.168 149.847 168.188 150.188 C167.188 152.188 167.188 152.188 164.812 153.125 C162.228 154.171 160.983 155.109 159.188 157.188 C159.518 155.868 159.847 154.548 160.188 153.188 C159.528 152.857 158.867 152.528 158.188 152.188 C156.479 153.822 155.253 155.057 154.188 157.188 C152.125 158.312 152.125 158.312 150.188 159.188 C150.188 159.847 150.188 160.507 150.188 161.188 C149.528 161.188 148.867 161.188 148.188 161.188 C147.857 162.507 147.528 163.827 147.188 165.188 C148.508 165.518 149.827 165.847 151.188 166.188 C150.713 166.249 150.713 166.249 148.312 166.562 C145.188 167.188 145.188 167.188 143.188 169.188 C143.517 169.518 143.848 169.847 144.188 170.188 C142.207 168.538 140.227 166.887 138.188 165.188 C138.188 165.847 138.188 166.507 138.188 167.188 C135.548 166.857 132.908 166.528 130.188 166.188 C129.527 167.178 128.868 168.168 128.188 169.188 C129.178 169.847 130.168 170.507 131.188 171.188 C129.538 171.518 127.888 171.847 126.188 172.188 C126.188 173.507 126.188 174.827 126.188 176.188 C126.848 176.518 127.507 176.847 128.188 177.188 C128.188 178.178 128.188 179.168 128.188 180.188 C128.848 180.847 129.507 181.507 130.188 182.188 C128.538 181.528 126.888 180.868 125.188 180.188 C124.527 181.178 123.868 182.168 123.188 183.188 C123.084 182.548 122.981 181.909 122.875 181.25 C122.648 180.569 122.421 179.889 122.188 179.188 C121.197 178.857 120.207 178.528 119.188 178.188 C118.188 181.188 118.188 181.188 119.188 184.188 C118.858 185.178 118.527 186.168 118.188 187.188 C117.527 187.518 116.868 187.847 116.188 188.188 C117.507 188.188 118.827 188.188 120.188 188.188 C120.517 187.528 120.848 186.868 121.188 186.188 C122.507 186.188 123.827 186.188 125.188 186.188 C124.188 187.188 124.188 187.188 122.188 187.938 C120.188 189.188 120.188 189.188 119.438 191.812 C119.355 192.596 119.273 193.38 119.188 194.188 C118.527 194.188 117.868 194.188 117.188 194.188 C117.188 194.847 117.188 195.507 117.188 196.188 C118.178 196.518 119.168 196.847 120.188 197.188 C119.404 197.744 118.62 198.301 117.812 198.875 C115.1 201.264 114.226 202.788 113.188 206.188 C112.197 205.857 111.207 205.528 110.188 205.188 C107.564 208.249 107.188 208.919 107.188 213.188 C109.137 214.758 109.137 214.758 111.875 216.312 C123.271 223.185 133.157 231.628 142.743 240.806 C144.026 242.033 145.32 243.246 146.617 244.457 C153.213 250.783 158.708 257.902 164.188 265.188 C164.804 265.997 165.42 266.807 166.055 267.641 C196.78 309.685 209.341 364.126 201.938 415.438 C198.268 438.502 191.311 460.642 180.188 481.188 C179.84 481.847 179.492 482.507 179.133 483.186 C173.667 493.542 167.36 502.941 160.188 512.188 C159.471 513.13 158.754 514.072 158.016 515.043 C126.06 555.708 75.894 581.584 24.888 587.736 C20.424 588.21 16.002 588.364 11.516 588.391 C10.719 588.398 9.923 588.405 9.103 588.412 C-24.437 588.642 -24.437 588.642 -39.812 585.188 C-40.27 585.086 -40.27 585.086 -42.587 584.569 C-62.008 580.108 -80.277 573.655 -97.812 564.188 C-98.113 564.027 -98.113 564.027 -99.635 563.215 C-135.533 543.94 -162.95 514.059 -181.812 478.188 C-181.987 477.859 -181.987 477.859 -182.873 476.195 C-208.097 428.121 -208.851 371.955 -193.254 321.012 C-186.879 301.155 -176.988 283.052 -164.812 266.188 C-164.386 265.586 -163.959 264.984 -163.519 264.364 C-151.914 248.149 -137.035 233.739 -120.812 222.188 C-120.535 221.985 -120.535 221.985 -119.131 220.962 C-97.574 205.348 -72.907 194.351 -46.892 188.821 C-44.843 188.366 -42.823 187.788 -40.812 187.188 C-40.483 186.197 -40.152 185.207 -39.812 184.188 C-36.512 183.857 -33.212 183.528 -29.812 183.188 C-29.812 182.528 -29.812 181.868 -29.812 181.188 C-32.452 180.528 -35.092 179.868 -37.812 179.188 C-37.916 178.445 -38.019 177.702 -38.125 176.938 C-38.865 173.977 -39.97 172.568 -41.812 170.188 C-42.762 167.228 -42.942 164.523 -42.953 161.426 C-42.959 160.471 -42.964 159.517 -42.97 158.533 C-42.971 157.492 -42.972 156.452 -42.974 155.38 C-42.979 154.278 -42.984 153.177 -42.989 152.043 C-43.003 148.397 -43.01 144.751 -43.016 141.105 C-43.021 138.572 -43.027 136.039 -43.033 133.505 C-43.042 128.871 -43.048 124.236 -43.051 119.601 C-43.056 112.791 -43.073 105.981 -43.102 99.17 C-43.127 93.262 -43.134 87.353 -43.136 81.445 C-43.139 78.936 -43.147 76.427 -43.16 73.918 C-43.177 70.406 -43.175 66.895 -43.169 63.384 C-43.178 62.349 -43.187 61.314 -43.197 60.249 C-43.159 53.748 -42.772 48.147 -37.938 43.312 C-33.714 41.076 -29.349 41.059 -24.649 41.042 C-23.427 41.036 -22.206 41.029 -20.947 41.023 C-19.635 41.022 -18.324 41.021 -16.973 41.02 C-15.604 41.016 -14.236 41.013 -12.867 41.009 C-10.003 41.003 -7.139 41.002 -4.276 41.002 C-0.616 41.002 3.043 40.989 6.702 40.971 C9.527 40.96 12.353 40.958 15.178 40.959 C17.179 40.957 19.181 40.946 21.183 40.935 C22.408 40.938 23.632 40.941 24.894 40.945 C25.967 40.943 27.04 40.942 28.146 40.94 C31.439 41.208 34.104 42.028 37.188 43.188 C39.375 43.938 39.375 43.938 41.188 44.188 C41.683 43.858 41.683 43.858 44.188 42.188 C43.858 41.197 43.527 40.207 43.188 39.188 C43.517 38.858 43.848 38.528 44.188 38.188 C44.848 39.178 45.507 40.168 46.188 41.188 C46.291 40.899 46.291 40.899 46.812 39.438 C48.685 36.373 51.157 35.032 54.188 33.188 C53.527 32.858 52.868 32.528 52.188 32.188 C54.066 30.309 57.227 30.796 59.75 30.625 C60.948 30.541 62.145 30.457 63.379 30.371 C64.306 30.311 65.233 30.25 66.188 30.188 C62.81 27.146 60.041 26.607 55.578 26.055 C54.275 25.889 52.972 25.723 51.629 25.552 C50.232 25.388 48.835 25.225 47.438 25.062 C46.004 24.889 44.57 24.716 43.137 24.542 C33.833 23.432 24.562 22.351 15.188 22.188 C14.111 22.167 13.035 22.147 11.926 22.125 C-81.462 20.636 -173.301 51.18 -245.406 115.992 Z M207.188 95.188 C207.847 95.188 208.508 95.188 209.188 95.188 C209.518 97.498 209.847 99.808 210.188 102.188 C209.197 102.518 208.207 102.847 207.188 103.188 C206.807 100.861 206.475 98.527 206.188 96.188 C206.518 95.857 206.847 95.528 207.188 95.188 Z " fill="#000536" transform="translate(511.8125,143.8125)"/>
<path d="M0 0 C1.32 0 2.64 0 4 0 C4.33 0.66 4.66 1.32 5 2 C5.99 2 6.98 2 8 2 C8 1.34 8 0.68 8 0 C12.355 0.894 15.372 3.189 18.875 5.812 C19.535 6.302 20.195 6.792 20.875 7.297 C39.633 21.396 58.009 37.915 73 56 C73.444 56.53 73.888 57.06 74.345 57.606 C118.85 110.874 147.278 173.537 158.25 242.125 C158.401 243.051 158.552 243.977 158.708 244.932 C162.031 267.119 162.291 289.435 162.232 311.815 C162.223 315.994 162.226 320.173 162.228 324.352 C162.229 331.561 162.223 338.771 162.211 345.98 C162.195 356.403 162.19 366.827 162.187 377.25 C162.183 394.168 162.17 411.086 162.151 428.004 C162.132 444.421 162.118 460.838 162.11 477.255 C162.109 478.27 162.109 479.285 162.108 480.331 C162.106 485.424 162.103 490.516 162.101 495.609 C162.08 537.739 162.045 579.87 162 622 C122.644 622.023 83.288 622.041 43.932 622.051 C39.286 622.052 34.639 622.054 29.993 622.055 C29.068 622.055 28.143 622.055 27.19 622.056 C12.213 622.06 -2.765 622.068 -17.742 622.077 C-33.111 622.087 -48.479 622.092 -63.847 622.094 C-73.33 622.095 -82.813 622.1 -92.296 622.108 C-98.799 622.113 -105.302 622.115 -111.805 622.114 C-115.556 622.113 -119.308 622.114 -123.06 622.119 C-127.13 622.125 -131.199 622.123 -135.269 622.12 C-136.452 622.123 -137.635 622.126 -138.854 622.129 C-144.667 622.119 -150.252 621.883 -156 621 C-155.67 620.01 -155.34 619.02 -155 618 C-155.66 618 -156.32 618 -157 618 C-157.144 616.886 -157.289 615.773 -157.438 614.625 C-158 611 -158 611 -159 609 C-159.084 607.479 -159.107 605.953 -159.098 604.43 C-159.094 603.534 -159.091 602.638 -159.088 601.715 C-159.08 600.778 -159.071 599.841 -159.062 598.875 C-159.058 597.93 -159.053 596.985 -159.049 596.012 C-159.037 593.674 -159.021 591.337 -159 589 C-158.34 588.67 -157.68 588.34 -157 588 C-157.206 587.402 -157.413 586.804 -157.625 586.188 C-158 584 -158 584 -156 581 C-156 580.01 -156 579.02 -156 578 C-155.34 577.67 -154.68 577.34 -154 577 C-153.835 577.495 -153.835 577.495 -153 580 C-151.35 580 -149.7 580 -148 580 C-148 580.66 -148 581.32 -148 582 C-147.01 582 -146.02 582 -145 582 C-145.165 582.825 -145.165 582.825 -146 587 C-146.99 587 -147.98 587 -149 587 C-149.165 587.825 -149.165 587.825 -150 592 C-149.34 592 -148.68 592 -148 592 C-147.67 591.01 -147.34 590.02 -147 589 C-144.588 586.588 -143.37 586.241 -140 586 C-137.687 587.438 -137.687 587.438 -136 589 C-136.206 589.928 -136.413 590.856 -136.625 591.812 C-137 595 -137 595 -135 598 C-135.99 598.66 -136.98 599.32 -138 600 C-137.196 599.753 -136.391 599.505 -135.562 599.25 C-130.632 598.904 -127.309 600.769 -123 603 C-123 603.66 -123 604.32 -123 605 C-123.382 605.052 -123.382 605.052 -125.312 605.312 C-128.197 606.05 -129.355 606.532 -131 609 C-130.688 611.188 -130.688 611.188 -130 613 C-129.216 612.814 -128.433 612.629 -127.625 612.438 C-125 612 -125 612 -123 613 C-123 612.34 -123 611.68 -123 611 C-122.34 611 -121.68 611 -121 611 C-120.34 611.66 -119.68 612.32 -119 613 C-118.34 613.33 -117.68 613.66 -117 614 C-116.67 613.34 -116.34 612.68 -116 612 C-115.34 612.66 -114.68 613.32 -114 614 C-113.34 613.34 -112.68 612.68 -112 612 C-110.68 612 -109.36 612 -108 612 C-107.375 610.125 -107.375 610.125 -107 608 C-107.66 607.34 -108.32 606.68 -109 606 C-106.353 604.539 -105.106 604 -102 604 C-99.813 603 -99.813 603 -98 602 C-98.165 601.505 -98.165 601.505 -99 599 C-97.907 599.062 -96.814 599.124 -95.688 599.188 C-92 599 -92 599 -90.062 597.5 C-89.712 597.005 -89.361 596.51 -89 596 C-89.33 595.505 -89.33 595.505 -91 593 C-89.35 593.33 -87.7 593.66 -86 594 C-86.206 595.196 -86.413 596.393 -86.625 597.625 C-87.122 601.563 -86.695 604.343 -85 608 C-84.34 608.33 -83.68 608.66 -83 609 C-83.804 609.268 -84.609 609.536 -85.438 609.812 C-86.283 610.204 -87.129 610.596 -88 611 C-88.33 611.99 -88.66 612.98 -89 614 C-89.66 614.33 -90.32 614.66 -91 615 C-89.68 615 -88.36 615 -87 615 C-86.34 614.34 -85.68 613.68 -85 613 C-83.68 613 -82.36 613 -81 613 C-81 613.66 -81 614.32 -81 615 C-80.34 615 -79.68 615 -79 615 C-78.67 614.175 -78.67 614.175 -77 610 C-75.68 610 -74.36 610 -73 610 C-73.33 609.34 -73.66 608.68 -74 608 C-77.875 609.75 -77.875 609.75 -79 612 C-79.99 611.67 -80.98 611.34 -82 611 C-82.165 610.01 -82.165 610.01 -83 605 C-82.01 604.67 -81.02 604.34 -80 604 C-81.65 603.34 -83.3 602.68 -85 602 C-84.67 601.34 -84.34 600.68 -84 600 C-83.34 600 -82.68 600 -82 600 C-81.67 599.34 -81.34 598.68 -81 598 C-80.01 598.33 -79.02 598.66 -78 599 C-75.625 597.25 -75.625 597.25 -73 595 C-71.35 593.973 -69.688 592.964 -68 592 C-68.33 590.68 -68.66 589.36 -69 588 C-68.01 587.67 -67.02 587.34 -66 587 C-65.01 587.66 -64.02 588.32 -63 589 C-63.99 589 -64.98 589 -66 589 C-66 589.66 -66 590.32 -66 591 C-59.25 590.125 -59.25 590.125 -57 589 C-57 590.98 -57 592.96 -57 595 C-56.278 594.691 -55.556 594.381 -54.812 594.062 C-52 593 -52 593 -49.312 592.688 C-48.549 592.461 -47.786 592.234 -47 592 C-45.688 589.438 -45.688 589.438 -45 587 C-44.34 587 -43.68 587 -43 587 C-42.34 588.32 -41.68 589.64 -41 591 C-38.36 590.01 -35.72 589.02 -33 588 C-33 588.66 -33 589.32 -33 590 C-32.01 589.67 -31.02 589.34 -30 589 C-28.333 589 -26.667 589 -25 589 C-25 589.66 -25 590.32 -25 591 C-24.423 590.835 -23.845 590.67 -23.25 590.5 C-21 590 -21 590 -17 590 C-15.659 589.697 -14.326 589.362 -13 589 C-12.154 588.856 -11.309 588.711 -10.438 588.562 C-8 588 -8 588 -5 586 C-5 586.66 -5 587.32 -5 588 C-3.334 588.043 -1.666 588.041 0 588 C0.33 587.67 0.66 587.34 1 587 C2.953 586.822 4.914 586.732 6.875 586.688 C7.945 586.65 9.015 586.613 10.117 586.574 C13 587 13 587 14.883 589.02 C15.251 589.673 15.62 590.327 16 591 C16 590.34 16 589.68 16 589 C16 588.01 16 587.02 16 586 C15.67 585.505 15.67 585.505 14 583 C17.086 582.086 19.796 582 23 582 C23.66 581.67 24.32 581.34 25 581 C25.33 581.66 25.66 582.32 26 583 C27.32 582.34 28.64 581.68 30 581 C30.66 581.66 31.32 582.32 32 583 C32.338 582.506 32.675 582.013 33.023 581.504 C33.469 580.863 33.915 580.223 34.375 579.562 C34.816 578.924 35.257 578.286 35.711 577.629 C37 576 37 576 39 575 C39.66 575.33 40.32 575.66 41 576 C40.67 577.32 40.34 578.64 40 580 C40.784 579.505 41.567 579.01 42.375 578.5 C45 577 45 577 47 577 C47.99 576.67 48.98 576.34 50 576 C50.33 574.35 50.66 572.7 51 571 C52.65 570.67 54.3 570.34 56 570 C55.34 568.68 54.68 567.36 54 566 C53.34 566 52.68 566 52 566 C52 566.66 52 567.32 52 568 C51.01 567.67 50.02 567.34 49 567 C50.236 565.797 51.489 564.613 52.75 563.438 C53.446 562.776 54.142 562.115 54.859 561.434 C57 560 57 560 59.062 560.219 C59.702 560.477 60.341 560.734 61 561 C62.072 561.351 63.145 561.701 64.25 562.062 C65.158 562.372 66.065 562.681 67 563 C66.67 561.68 66.34 560.36 66 559 C66.99 558.67 67.98 558.34 69 558 C68.67 557.34 68.34 556.68 68 556 C66.68 556.99 65.36 557.98 64 559 C64.33 559.66 64.66 560.32 65 561 C64.01 561 63.02 561 62 561 C62 560.34 62 559.68 62 559 C60.68 559 59.36 559 58 559 C57.67 557.68 57.34 556.36 57 555 C56.67 555.66 56.34 556.32 56 557 C52.938 557.625 52.938 557.625 50 558 C49.34 556.68 48.68 555.36 48 554 C48.99 553.67 49.98 553.34 51 553 C51 552.34 51 551.68 51 551 C51.66 551 52.32 551 53 551 C53 550.34 53 549.68 53 549 C52.01 548.67 51.02 548.34 50 548 C50 547.34 50 546.68 50 546 C49.34 546 48.68 546 48 546 C48 547.65 48 549.3 48 551 C44.99 551.934 44.133 552.044 41 551 C40.67 551.66 40.34 552.32 40 553 C39.01 552.67 38.02 552.34 37 552 C36.876 552.289 36.876 552.289 36.25 553.75 C34.833 556.3 33.124 558.018 31 560 C31.66 560.33 32.32 560.66 33 561 C33.407 563.322 33.744 565.657 34 568 C34.66 568 35.32 568 36 568 C36 568.66 36 569.32 36 570 C35.01 570.33 34.02 570.66 33 571 C30.667 568.667 28.333 566.333 26 564 C25.01 565.65 24.02 567.3 23 569 C22.34 568.34 21.68 567.68 21 567 C21.66 564.69 22.32 562.38 23 560 C22.237 560.309 21.474 560.619 20.688 560.938 C16.166 562.725 12.89 563.407 8 563 C1.917 560.108 -2.294 556.097 -6.967 551.31 C-7.349 550.925 -7.349 550.925 -9.281 548.978 C-10.93 547.314 -12.575 545.647 -14.218 543.977 C-16.817 541.335 -19.425 538.703 -22.037 536.074 C-28.517 529.546 -34.982 523.004 -41.443 516.457 C-46.912 510.916 -52.388 505.383 -57.876 499.862 C-60.448 497.267 -63.008 494.662 -65.568 492.055 C-67.142 490.47 -68.716 488.886 -70.292 487.302 C-71.001 486.573 -71.711 485.844 -72.442 485.093 C-73.104 484.433 -73.765 483.773 -74.447 483.092 C-75.016 482.516 -75.584 481.94 -76.171 481.346 C-78.403 479.703 -80.279 479.366 -83 479 C-82.34 480.65 -81.68 482.3 -81 484 C-82.32 484.66 -83.64 485.32 -85 486 C-82.264 486.798 -79.951 487.067 -77.062 487.25 C-73.799 487.652 -72.881 488.086 -70.062 490.125 C-67.614 493.538 -67.079 495.823 -67 500 C-67.66 500.66 -68.32 501.32 -69 502 C-68.01 502 -67.02 502 -66 502 C-65.34 501.01 -64.68 500.02 -64 499 C-63.835 499.495 -63.835 499.495 -63 502 C-62.34 502 -61.68 502 -61 502 C-61 502.66 -61 503.32 -61 504 C-60.34 504 -59.68 504 -59 504 C-57.068 506.173 -56.029 507.91 -55.125 510.688 C-54.754 511.451 -54.382 512.214 -54 513 C-51.375 513.812 -51.375 513.812 -49 514 C-49.33 514.66 -49.66 515.32 -50 516 C-51.98 515.67 -53.96 515.34 -56 515 C-56 516.65 -56 518.3 -56 520 C-55.01 520 -54.02 520 -53 520 C-52.67 520.495 -52.67 520.495 -51 523 C-50.01 522.67 -49.02 522.34 -48 522 C-48 521.01 -48 520.02 -48 519 C-46.35 519.33 -44.7 519.66 -43 520 C-44.474 524.667 -44.474 524.667 -46.875 526.188 C-47.576 526.456 -48.278 526.724 -49 527 C-49.598 527.351 -50.196 527.701 -50.812 528.062 C-54.69 529.724 -58.434 530.602 -62.438 529.062 C-62.953 528.712 -63.469 528.361 -64 528 C-64 526.35 -64 524.7 -64 523 C-63.34 523 -62.68 523 -62 523 C-61.67 522.34 -61.34 521.68 -61 521 C-61.99 520.67 -62.98 520.34 -64 520 C-66 523 -66 523 -66 525 C-66.99 524.67 -67.98 524.34 -69 524 C-69.33 525.32 -69.66 526.64 -70 528 C-70.66 527.67 -71.32 527.34 -72 527 C-72.681 526.876 -73.361 526.753 -74.062 526.625 C-74.702 526.419 -75.341 526.212 -76 526 C-76.165 525.505 -76.165 525.505 -77 523 C-77.99 523 -78.98 523 -80 523 C-82.188 522 -82.188 522 -84 521 C-84 521.66 -84 522.32 -84 523 C-84.66 522.67 -85.32 522.34 -86 522 C-88 522 -88 522 -91 524 C-91.33 523.34 -91.66 522.68 -92 522 C-89.25 518.125 -89.25 518.125 -87 517 C-88.65 516.34 -90.3 515.68 -92 515 C-91.835 515.495 -91.835 515.495 -91 518 C-91.33 518.99 -91.66 519.98 -92 521 C-92.66 521 -93.32 521 -94 521 C-94.33 522.98 -94.66 524.96 -95 527 C-95.99 527 -96.98 527 -98 527 C-98.33 527.99 -98.66 528.98 -99 530 C-99.845 526.622 -100.108 524.325 -99 521 C-99.66 520.505 -99.66 520.505 -103 518 C-106 520 -106 520 -107 523 C-107.66 523 -108.32 523 -109 523 C-109 522.34 -109 521.68 -109 521 C-109.66 521 -110.32 521 -111 521 C-110.67 519.68 -110.34 518.36 -110 517 C-110.66 517 -111.32 517 -112 517 C-112 516.34 -112 515.68 -112 515 C-111.484 514.567 -110.969 514.134 -110.438 513.688 C-109.963 513.131 -109.489 512.574 -109 512 C-109.312 509.312 -109.312 509.312 -110 507 C-108.68 507.66 -107.36 508.32 -106 509 C-106.66 508.34 -107.32 507.68 -108 507 C-108.66 506.34 -109.32 505.68 -110 505 C-108.68 504.67 -107.36 504.34 -106 504 C-106.99 503.34 -107.98 502.68 -109 502 C-110 500 -110.494 498.169 -111 496 C-108 496 -105 496 -102 496 C-100.651 495.365 -99.315 494.702 -98 494 C-100.428 491.572 -103.13 489.872 -106 488 C-105.34 487.34 -104.68 486.68 -104 486 C-103.01 486.66 -102.02 487.32 -101 488 C-101 487.34 -101 486.68 -101 486 C-101.66 485.67 -102.32 485.34 -103 485 C-103.33 484.67 -103.66 484.34 -104 484 C-104.99 483.67 -105.98 483.34 -107 483 C-106 482 -105 481 -104 480 C-104.99 480 -105.98 480 -107 480 C-107 479.34 -107 478.68 -107 478 C-106.34 478 -105.68 478 -105 478 C-105 477.34 -105 476.68 -105 476 C-106.32 476 -107.64 476 -109 476 C-109 475.01 -109 474.02 -109 473 C-108.486 472.722 -108.486 472.722 -105.887 471.312 C-97.488 466.71 -89.55 461.928 -82 456 C-81.413 455.547 -80.826 455.093 -80.221 454.626 C-65.338 443.102 -51.828 430.468 -41 415 C-40.584 414.407 -40.168 413.814 -39.74 413.204 C-8.348 368.058 5.19 313.618 -4.14 259.119 C-6.247 247.837 -9.442 236.9 -13 226 C-13.245 225.243 -13.49 224.485 -13.742 223.705 C-27.742 181.229 -59.203 146.268 -96 122 C-96.33 121.835 -96.33 121.835 -98 121 C-98.25 118.688 -98.25 118.688 -98 116 C-96 114.188 -96 114.188 -94 113 C-93.34 113.33 -92.68 113.66 -92 114 C-91.773 113.257 -91.546 112.515 -91.312 111.75 C-89.756 108.489 -87.915 107.071 -85 105 C-85.495 104.835 -85.495 104.835 -88 104 C-88 103.34 -88 102.68 -88 102 C-87.34 102 -86.68 102 -86 102 C-85.918 101.216 -85.835 100.433 -85.75 99.625 C-85 97 -85 97 -82.938 95.688 C-82.298 95.461 -81.659 95.234 -81 95 C-81 94.67 -81 94.34 -81 94 C-81.99 94 -82.98 94 -84 94 C-84.33 94.66 -84.66 95.32 -85 96 C-85.66 95.835 -85.66 95.835 -89 95 C-88.34 95 -87.68 95 -87 95 C-85.875 90.25 -85.875 90.25 -87 88 C-86.67 87.34 -86.34 86.68 -86 86 C-85.34 86.165 -85.34 86.165 -82 87 C-81.67 88.32 -81.34 89.64 -81 91 C-80.835 90.505 -80.835 90.505 -80 88 C-78.35 88.66 -76.7 89.32 -75 90 C-75.66 89.01 -76.32 88.02 -77 87 C-77 86.34 -77 85.68 -77 85 C-77.66 84.67 -78.32 84.34 -79 84 C-78.67 82.35 -78.34 80.7 -78 79 C-76.35 79 -74.7 79 -73 79 C-73.66 78.67 -73.66 78.67 -77 77 C-76.67 76.505 -76.67 76.505 -75 74 C-72.36 74.33 -69.72 74.66 -67 75 C-66.67 74.34 -66.34 73.68 -66 73 C-64.35 74.65 -62.7 76.3 -61 78 C-61.33 77.67 -61.66 77.34 -62 77 C-59.435 74.435 -57.523 74.46 -54 74 C-54.66 73.835 -54.66 73.835 -58 73 C-57.835 72.34 -57.835 72.34 -57 69 C-56.34 69 -55.68 69 -55 69 C-54.835 68.505 -54.835 68.505 -54 66 C-52.667 65.333 -51.333 64.667 -50 64 C-49.67 63.01 -49.34 62.02 -49 61 C-48.01 60.67 -47.02 60.34 -46 60 C-45 62 -45 62 -45 63 C-44.216 62.505 -43.433 62.01 -42.625 61.5 C-40 60 -40 60 -38 60 C-37.67 59.01 -37.34 58.02 -37 57 C-37.495 56.835 -37.495 56.835 -40 56 C-38 53 -38 53 -35.625 52.438 C-34.759 52.293 -33.893 52.149 -33 52 C-29.755 50.68 -28.027 49.113 -25.875 46.375 C-24.367 44.461 -24.367 44.461 -23 43 C-22.34 43 -21.68 43 -21 43 C-20.938 42.691 -20.938 42.691 -20.625 41.125 C-20 39 -20 39 -18 37 C-18.66 36.67 -19.32 36.34 -20 36 C-19.875 34.188 -19.875 34.188 -19 32 C-15.938 30.25 -15.938 30.25 -13 29 C-13 28.01 -13 27.02 -13 26 C-12.34 25.34 -11.68 24.68 -11 24 C-10.67 24 -10.34 24 -10 24 C-10 23.34 -10 22.68 -10 22 C-9.34 22 -8.68 22 -8 22 C-8 21.34 -8 20.68 -8 20 C-8.99 20 -9.98 20 -11 20 C-10.67 19.01 -10.34 18.02 -10 17 C-9.67 17.66 -9.34 18.32 -9 19 C-8.01 16.69 -7.02 14.38 -6 12 C-5.67 12.495 -5.67 12.495 -4 15 C-3.01 14.67 -2.02 14.34 -1 14 C-0.804 9.781 -1.198 6.83 -3 3 C-2.34 3 -1.68 3 -1 3 C-0.67 2.01 -0.34 1.02 0 0 Z M2 3 C1.019 6.053 1.019 7.947 2 11 C2.99 10.67 3.98 10.34 5 10 C4.67 7.69 4.34 5.38 4 3 C3.34 3 2.68 3 2 3 Z M-88 523 C-86 524 -86 524 -86 524 Z M49 549 C51 550 51 550 51 550 Z " fill="#25BEFB" transform="translate(717,236)"/>
<path d="M0 0 C2.496 2.221 4.958 4.473 7.406 6.746 C7.703 7.016 7.703 7.016 9.203 8.379 C15.329 14.184 20.33 21.033 25.406 27.746 C26.048 28.593 26.69 29.44 27.352 30.312 C53.638 66.441 64.906 113.961 58.281 158.121 C57.738 161.349 57.098 164.547 56.406 167.746 C56.213 168.65 56.02 169.554 55.82 170.485 C49.863 197.4 38.41 222.755 20.406 243.746 C19.679 244.602 18.952 245.458 18.203 246.34 C15.99 248.864 13.717 251.312 11.406 253.746 C10.913 254.272 10.42 254.797 9.912 255.339 C-18.16 285.091 -55.252 303.004 -95.594 308.746 C-96.311 308.849 -97.028 308.952 -97.767 309.059 C-142.339 314.755 -190.233 301.986 -226.012 274.755 C-264.988 244.261 -289.206 203.04 -296.138 153.887 C-296.957 147.122 -296.838 140.302 -296.844 133.496 C-296.844 132.737 -296.845 131.978 -296.846 131.196 C-296.829 119.145 -296.217 107.547 -293.594 95.746 C-293.427 94.968 -293.261 94.191 -293.09 93.39 C-283.863 51.373 -258.099 14.027 -223.594 -11.254 C-223.029 -11.674 -222.464 -12.094 -221.882 -12.526 C-199.309 -29.116 -172.131 -38.983 -144.594 -43.254 C-143.936 -43.356 -143.278 -43.459 -142.6 -43.564 C-90.599 -50.46 -39.329 -34.176 0 0 Z " fill="#F3A305" transform="translate(630.59375,397.25390625)"/>
<path d="M0 0 C3.071 0.686 6.125 1.42 9.179 2.178 C10.283 2.449 11.386 2.72 12.523 2.999 C21.476 5.222 30.347 7.562 39.117 10.428 C40.002 10.714 40.887 11.001 41.798 11.296 C59.69 17.177 76.356 24.938 93.117 33.428 C93.908 33.823 94.699 34.219 95.514 34.627 C110.755 42.273 125.248 51.535 139.117 61.428 C138.457 61.758 137.797 62.088 137.117 62.428 C137.117 63.088 137.117 63.748 137.117 64.428 C135.797 64.758 134.477 65.088 133.117 65.428 C133.117 64.438 133.117 63.448 133.117 62.428 C131.242 62.74 131.242 62.74 129.117 63.428 C128.457 64.418 127.797 65.408 127.117 66.428 C127.444 66.99 127.772 67.552 128.109 68.131 C129.235 70.696 129.324 72.396 129.242 75.178 C129.224 75.977 129.206 76.776 129.187 77.6 C129.164 78.203 129.141 78.806 129.117 79.428 C128.457 79.758 127.797 80.088 127.117 80.428 C127.447 79.108 127.777 77.788 128.117 76.428 C127.457 76.758 127.457 76.758 124.117 78.428 C123.787 77.438 123.457 76.448 123.117 75.428 C122.787 77.408 122.457 79.388 122.117 81.428 C121.127 81.098 120.137 80.768 119.117 80.428 C118.787 81.088 118.457 81.748 118.117 82.428 C119.107 82.428 120.097 82.428 121.117 82.428 C121.117 83.088 121.117 83.748 121.117 84.428 C120.457 84.428 119.797 84.428 119.117 84.428 C119.447 85.748 119.777 87.068 120.117 88.428 C119.127 88.428 118.137 88.428 117.117 88.428 C117.447 89.418 117.777 90.408 118.117 91.428 C115.477 92.748 112.837 94.068 110.117 95.428 C110.612 96.418 110.612 96.418 113.117 101.428 C112.477 101.531 111.838 101.634 111.179 101.74 C110.839 101.854 110.839 101.854 109.117 102.428 C108.787 103.418 108.457 104.408 108.117 105.428 C106.244 107.555 104.514 108.83 102.117 110.428 C100.929 112.553 100.929 112.553 100.117 114.428 C99.127 114.428 98.137 114.428 97.117 114.428 C96.622 114.758 96.622 114.758 94.117 116.428 C92.791 117.11 91.459 117.78 90.117 118.428 C91.107 118.428 92.097 118.428 93.117 118.428 C91.674 122.757 88.743 124.549 84.804 126.678 C84.247 126.925 83.69 127.173 83.117 127.428 C82.787 126.108 82.457 124.788 82.117 123.428 C81.89 124.232 81.663 125.036 81.429 125.865 C80.996 126.711 80.563 127.556 80.117 128.428 C77.554 129.115 77.554 129.115 75.117 129.428 C74.787 130.088 74.457 130.748 74.117 131.428 C73.457 131.428 72.797 131.428 72.117 131.428 C72.447 132.418 72.777 133.408 73.117 134.428 C74.107 134.758 75.097 135.088 76.117 135.428 C75.787 136.088 75.457 136.748 75.117 137.428 C72.054 138.053 72.054 138.053 69.117 138.428 C68.787 139.418 68.457 140.408 68.117 141.428 C67.457 141.758 66.797 142.088 66.117 142.428 C65.457 140.778 64.797 139.128 64.117 137.428 C63.787 137.758 63.457 138.088 63.117 138.428 C61.592 138.338 60.07 138.182 58.554 137.99 C57.728 137.888 56.902 137.787 56.05 137.682 C55.412 137.598 54.774 137.514 54.117 137.428 C54.117 138.088 54.117 138.748 54.117 139.428 C55.107 140.088 56.097 140.748 57.117 141.428 C56.498 141.572 55.879 141.716 55.242 141.865 C53.117 142.428 53.117 142.428 51.117 143.428 C50.787 144.418 50.457 145.408 50.117 146.428 C51.107 146.758 52.097 147.088 53.117 147.428 C54.304 149.99 54.304 149.99 55.117 152.428 C52.117 152.428 52.117 152.428 49.117 150.428 C48.787 151.748 48.457 153.068 48.117 154.428 C45.978 152.289 45.69 151.295 45.117 148.428 C44.457 148.428 43.797 148.428 43.117 148.428 C43.447 150.738 43.777 153.048 44.117 155.428 C43.457 155.428 42.797 155.428 42.117 155.428 C42.117 156.088 42.117 156.748 42.117 157.428 C42.777 157.758 43.437 158.088 44.117 158.428 C44.447 157.438 44.777 156.448 45.117 155.428 C46.767 155.428 48.417 155.428 50.117 155.428 C49.787 156.748 49.457 158.068 49.117 159.428 C48.787 158.768 48.457 158.108 48.117 157.428 C45.591 159.791 44.228 161.092 43.117 164.428 C42.457 164.428 41.797 164.428 41.117 164.428 C41.117 165.088 41.117 165.748 41.117 166.428 C42.437 166.758 43.757 167.088 45.117 167.428 C44.354 167.985 43.59 168.541 42.804 169.115 C40.117 171.428 40.117 171.428 38.554 174.115 C37.117 176.428 37.117 176.428 34.929 177.24 C34.331 177.302 33.733 177.364 33.117 177.428 C33.117 178.418 33.117 179.408 33.117 180.428 C32.457 180.428 31.797 180.428 31.117 180.428 C31.117 181.418 31.117 182.408 31.117 183.428 C31.809 183.668 32.501 183.907 33.214 184.154 C36.634 185.655 39.545 187.623 42.554 189.803 C43.163 190.243 43.772 190.683 44.4 191.136 C61.497 203.673 76.512 218.393 89.117 235.428 C89.422 235.829 89.422 235.829 90.964 237.861 C121.743 279.846 134.265 334.405 126.867 385.678 C123.197 408.742 116.24 430.883 105.117 451.428 C104.769 452.087 104.421 452.747 104.062 453.426 C98.595 463.783 92.286 473.178 85.117 482.428 C84.412 483.358 83.706 484.289 82.98 485.248 C51.157 525.861 1.871 551.829 -48.922 558.704 C-54.144 559.334 -59.298 559.6 -64.555 559.631 C-65.351 559.638 -66.148 559.645 -66.968 559.652 C-100.508 559.882 -100.508 559.882 -115.883 556.428 C-116.341 556.326 -116.341 556.326 -118.658 555.81 C-138.079 551.349 -156.348 544.895 -173.883 535.428 C-174.184 535.267 -174.184 535.267 -175.706 534.456 C-211.933 515.004 -239.852 484.621 -258.883 448.428 C-259.058 448.099 -259.058 448.099 -259.944 446.436 C-285.167 398.361 -285.922 342.195 -270.325 291.252 C-263.948 271.392 -254.054 253.299 -241.883 236.428 C-241.462 235.831 -241.04 235.235 -240.606 234.62 C-228.796 218.046 -213.464 203.188 -196.883 191.428 C-196.33 191.025 -195.777 190.622 -195.207 190.207 C-173.683 174.615 -149.085 163.686 -123.138 158.061 C-122.359 157.887 -121.58 157.713 -120.778 157.533 C-120.096 157.39 -119.414 157.248 -118.711 157.1 C-116.518 156.293 -115.48 155.099 -113.883 153.428 C-111.158 153.037 -108.652 153.292 -105.883 153.428 C-105.883 152.768 -105.883 152.108 -105.883 151.428 C-106.791 151.51 -107.698 151.593 -108.633 151.678 C-111.883 151.428 -111.883 151.428 -114.258 149.428 C-114.526 149.098 -114.526 149.098 -115.883 147.428 C-115.223 147.428 -114.563 147.428 -113.883 147.428 C-114.233 146.969 -114.582 146.51 -114.942 146.037 C-115.397 145.424 -115.852 144.81 -116.321 144.178 C-116.547 143.876 -116.547 143.876 -117.692 142.35 C-119.813 138.927 -120.01 135.629 -120.024 131.666 C-120.029 130.711 -120.035 129.757 -120.041 128.773 C-120.042 128.253 -120.042 128.253 -120.044 125.62 C-120.049 124.519 -120.054 123.417 -120.059 122.283 C-120.074 118.637 -120.081 114.991 -120.086 111.346 C-120.092 108.812 -120.098 106.279 -120.104 103.745 C-120.113 99.111 -120.119 94.476 -120.122 89.842 C-120.127 83.031 -120.144 76.221 -120.173 69.41 C-120.197 63.502 -120.205 57.593 -120.207 51.685 C-120.21 49.176 -120.218 46.667 -120.231 44.158 C-120.248 40.646 -120.246 37.135 -120.24 33.624 C-120.249 32.589 -120.258 31.555 -120.268 30.489 C-120.227 23.513 -119.653 18.198 -114.508 13.053 C-110.1 10.324 -105.817 10.301 -100.719 10.282 C-99.498 10.276 -98.276 10.27 -97.018 10.263 C-95.706 10.262 -94.395 10.261 -93.043 10.26 C-91.675 10.257 -90.306 10.253 -88.938 10.25 C-86.074 10.244 -83.21 10.242 -80.346 10.242 C-76.687 10.243 -73.028 10.229 -69.368 10.212 C-66.543 10.201 -63.718 10.199 -60.893 10.199 C-58.891 10.197 -56.89 10.186 -54.888 10.175 C-53.663 10.179 -52.438 10.182 -51.177 10.185 C-50.103 10.183 -49.03 10.182 -47.925 10.18 C-43.159 10.568 -39.068 12.174 -34.883 14.428 C-33.883 12.428 -33.883 12.428 -33.883 9.428 C-33.223 8.768 -32.563 8.108 -31.883 7.428 C-31.553 7.758 -31.553 7.758 -29.883 9.428 C-29.285 8.809 -28.687 8.19 -28.071 7.553 C-25.883 5.428 -25.883 5.428 -22.883 3.428 C-22.883 2.438 -22.883 1.448 -22.883 0.428 C-22.337 0.448 -22.337 0.448 -19.571 0.553 C-0.476 -0.095 -0.476 -0.095 0 0 Z M-112.883 182.428 C-113.654 182.594 -114.425 182.76 -115.219 182.932 C-147.075 189.982 -174.905 205.608 -198.883 227.428 C-199.401 227.899 -199.919 228.37 -200.453 228.856 C-229.483 255.667 -246.783 292.814 -252.883 331.428 C-253.077 332.621 -253.27 333.815 -253.469 335.045 C-258.662 379.455 -247.029 427.176 -219.227 462.564 C-218.454 463.509 -217.68 464.454 -216.883 465.428 C-216.454 465.957 -216.025 466.486 -215.583 467.032 C-197.773 488.915 -176.458 505.554 -150.883 517.428 C-149.767 517.961 -148.651 518.495 -147.5 519.045 C-132.142 526.052 -115.557 530.082 -98.883 532.428 C-98.217 532.522 -97.551 532.616 -96.865 532.713 C-51.338 538.516 -4.1 525.41 32.117 497.428 C32.998 496.769 33.88 496.11 34.789 495.432 C57.298 477.936 74.023 455.984 86.203 430.351 C87.036 428.597 87.888 426.852 88.742 425.107 C103.391 393.443 105.97 355.316 99.117 321.428 C98.95 320.6 98.784 319.773 98.613 318.92 C91.777 286.21 75.487 257.954 53.117 233.428 C52.332 232.559 51.547 231.69 50.738 230.795 C23.923 202.573 -12.998 186.46 -50.883 180.428 C-51.976 180.251 -53.068 180.075 -54.194 179.893 C-60.952 179.041 -67.768 179.183 -74.571 179.178 C-75.356 179.177 -76.141 179.176 -76.95 179.176 C-89.162 179.192 -100.927 179.745 -112.883 182.428 Z M131.117 65.428 C131.777 65.428 132.437 65.428 133.117 65.428 C133.447 67.738 133.777 70.048 134.117 72.428 C133.127 72.758 132.137 73.088 131.117 73.428 C130.736 71.102 130.404 68.767 130.117 66.428 C130.447 66.098 130.777 65.768 131.117 65.428 Z " fill="#24BEFB" transform="translate(587.88330078125,173.572265625)"/>
<path d="M0 0 C0.275 0.199 0.275 0.199 1.667 1.209 C9.793 7.115 17.257 13.626 24.508 20.571 C25.882 21.887 27.266 23.19 28.652 24.492 C35.515 31.106 41.297 38.392 47 46 C47.615 46.808 48.23 47.616 48.863 48.449 C79.599 90.482 92.153 144.946 84.75 196.25 C81.081 219.314 74.123 241.455 63 262 C62.652 262.66 62.304 263.319 61.946 263.999 C56.479 274.355 50.169 283.75 43 293 C42.295 293.931 41.59 294.861 40.863 295.82 C9.04 336.433 -40.246 362.401 -91.039 369.276 C-96.261 369.906 -101.414 370.172 -106.672 370.203 C-107.07 370.207 -107.07 370.207 -109.085 370.225 C-142.625 370.454 -142.625 370.454 -158 367 C-158.458 366.898 -158.458 366.898 -160.774 366.382 C-180.196 361.921 -198.464 355.468 -216 346 C-216.301 345.84 -216.301 345.84 -217.823 345.028 C-254.049 325.576 -281.968 295.193 -301 259 C-301.175 258.671 -301.175 258.671 -302.061 257.008 C-327.284 208.933 -328.039 152.767 -312.441 101.824 C-306.065 81.964 -296.17 63.871 -284 47 C-283.578 46.403 -283.157 45.807 -282.723 45.192 C-270.912 28.619 -255.58 13.76 -239 2 C-238.447 1.597 -237.893 1.194 -237.323 0.779 C-208.176 -20.335 -174.455 -31.633 -139 -36 C-137.938 -36.133 -136.876 -36.266 -135.781 -36.402 C-88.993 -41.199 -37.824 -28.09 0 0 Z M-155 -7 C-155.771 -6.834 -156.542 -6.667 -157.336 -6.496 C-189.191 0.554 -217.021 16.18 -241 38 C-241.518 38.471 -242.036 38.943 -242.57 39.428 C-271.6 66.239 -288.9 103.386 -295 142 C-295.193 143.194 -295.387 144.387 -295.586 145.617 C-300.778 190.027 -289.145 237.748 -261.344 273.137 C-260.57 274.082 -259.797 275.026 -259 276 C-258.571 276.529 -258.141 277.059 -257.699 277.604 C-239.89 299.487 -218.575 316.126 -193 328 C-191.884 328.534 -190.767 329.067 -189.617 329.617 C-174.259 336.625 -157.673 340.654 -141 343 C-140.334 343.094 -139.668 343.189 -138.981 343.286 C-93.455 349.089 -46.217 335.982 -10 308 C-9.118 307.341 -8.237 306.683 -7.328 306.004 C15.181 288.508 31.907 266.556 44.086 240.923 C44.92 239.169 45.771 237.424 46.625 235.68 C61.275 204.015 63.853 165.889 57 132 C56.834 131.172 56.667 130.345 56.496 129.492 C49.66 96.782 33.37 68.526 11 44 C10.215 43.131 9.43 42.262 8.621 41.367 C-18.194 13.146 -55.115 -2.967 -93 -9 C-94.093 -9.177 -95.185 -9.353 -96.311 -9.535 C-103.069 -10.387 -109.884 -10.245 -116.688 -10.25 C-117.473 -10.251 -118.258 -10.251 -119.067 -10.252 C-131.279 -10.235 -143.044 -9.683 -155 -7 Z " fill="#010536" transform="translate(630,363)"/>
<path d="M0 0 C0.662 0 1.323 0.001 2.005 0.001 C19.461 0.033 36.759 1.336 54.062 3.625 C54.931 3.735 55.799 3.845 56.694 3.958 C57.494 4.074 58.293 4.189 59.117 4.309 C59.811 4.406 60.504 4.503 61.218 4.603 C63.188 5.188 63.188 5.188 67.188 8.188 C62.898 8.518 58.608 8.847 54.188 9.188 C54.517 9.518 54.848 9.847 55.188 10.188 C52.188 13.188 49.188 16.188 46.188 19.188 C45.858 18.197 45.527 17.208 45.188 16.188 C44.858 16.847 44.527 17.507 44.188 18.188 C44.517 19.178 44.848 20.167 45.188 21.188 C42.875 21.812 42.875 21.812 40.188 22.188 C39.197 21.528 38.207 20.868 37.188 20.188 C33.449 19.188 29.898 19.056 26.04 19.042 C24.821 19.036 23.603 19.029 22.348 19.023 C21.039 19.022 19.731 19.021 18.383 19.02 C17.017 19.016 15.651 19.013 14.284 19.009 C11.425 19.003 8.565 19.002 5.706 19.002 C2.055 19.002 -1.595 18.989 -5.245 18.971 C-8.066 18.96 -10.887 18.958 -13.708 18.959 C-15.703 18.957 -17.699 18.946 -19.695 18.935 C-34.598 18.973 -34.598 18.973 -39.188 23.562 C-41.551 27.38 -41.937 30.507 -41.953 34.949 C-41.959 35.904 -41.964 36.858 -41.97 37.842 C-41.971 38.883 -41.972 39.923 -41.974 40.995 C-41.979 42.097 -41.984 43.198 -41.989 44.332 C-42.003 47.978 -42.01 51.624 -42.016 55.27 C-42.021 57.803 -42.027 60.336 -42.033 62.87 C-42.042 67.504 -42.048 72.139 -42.051 76.774 C-42.056 83.584 -42.073 90.394 -42.102 97.205 C-42.127 103.113 -42.134 109.022 -42.136 114.93 C-42.139 117.439 -42.147 119.948 -42.16 122.457 C-42.177 125.969 -42.175 129.48 -42.169 132.991 C-42.174 133.509 -42.174 133.509 -42.197 136.126 C-42.163 141.955 -41.538 146.016 -38.812 151.188 C-36.812 155.082 -36.812 155.082 -36.812 157.188 C-35.493 157.517 -35.493 157.517 -28.812 159.188 C-28.812 159.847 -28.812 160.507 -28.812 161.188 C-32.113 161.518 -35.413 161.847 -38.812 162.188 C-39.143 163.178 -39.472 164.168 -39.812 165.188 C-41.704 165.952 -41.704 165.952 -44.203 166.512 C-45.13 166.731 -46.057 166.951 -47.012 167.177 C-48.019 167.408 -49.025 167.638 -50.062 167.875 C-65.926 171.761 -80.925 177.246 -95.293 185.035 C-95.709 185.225 -95.709 185.225 -97.812 186.188 C-98.472 185.857 -99.132 185.528 -99.812 185.188 C-99.482 184.528 -99.153 183.868 -98.812 183.188 C-99.803 182.857 -100.793 182.528 -101.812 182.188 C-102.143 183.507 -102.472 184.827 -102.812 186.188 C-104.132 185.528 -105.452 184.868 -106.812 184.188 C-106.812 183.197 -106.812 182.207 -106.812 181.188 C-109.123 180.857 -111.433 180.528 -113.812 180.188 C-114.143 179.197 -114.472 178.207 -114.812 177.188 C-116.462 177.188 -118.113 177.188 -119.812 177.188 C-120.142 176.528 -120.472 175.868 -120.812 175.188 C-120.153 175.188 -119.493 175.188 -118.812 175.188 C-118.812 174.197 -118.812 173.207 -118.812 172.188 C-119.803 172.188 -120.793 172.188 -121.812 172.188 C-122.142 170.868 -122.472 169.548 -122.812 168.188 C-123.142 169.178 -123.472 170.168 -123.812 171.188 C-124.431 170.981 -125.05 170.775 -125.688 170.562 C-126.038 170.501 -126.038 170.501 -127.812 170.188 C-128.472 170.847 -129.132 171.507 -129.812 172.188 C-133.812 167.562 -133.812 167.562 -133.812 164.188 C-134.803 164.518 -135.793 164.847 -136.812 165.188 C-138.188 163.898 -139.52 162.561 -140.812 161.188 C-140.812 160.528 -140.812 159.868 -140.812 159.188 C-141.803 159.188 -142.793 159.188 -143.812 159.188 C-137.873 165.127 -131.933 171.067 -125.812 177.188 C-128.812 177.188 -128.812 177.188 -130.489 175.886 C-131.098 175.276 -131.707 174.666 -132.334 174.038 C-132.681 173.694 -132.681 173.694 -134.437 171.954 C-135.181 171.201 -135.925 170.448 -136.691 169.672 C-137.459 168.905 -138.227 168.137 -139.018 167.346 C-140.643 165.719 -142.265 164.088 -143.883 162.454 C-146.36 159.953 -148.85 157.466 -151.342 154.98 C-152.917 153.399 -154.492 151.817 -156.066 150.234 C-156.812 149.489 -157.558 148.745 -158.327 147.977 C-159.017 147.277 -159.708 146.576 -160.42 145.854 C-161.028 145.242 -161.637 144.629 -162.263 143.997 C-163.812 142.188 -163.812 142.188 -164.792 140.212 C-166.039 137.738 -167.602 136.108 -169.537 134.125 C-170.302 133.337 -171.067 132.55 -171.856 131.738 C-172.686 130.897 -173.516 130.055 -174.371 129.188 C-175.23 128.315 -176.089 127.442 -176.974 126.543 C-178.796 124.698 -180.621 122.855 -182.449 121.016 C-185.224 118.214 -187.974 115.389 -190.725 112.562 C-192.501 110.769 -194.279 108.978 -196.059 107.188 C-196.87 106.346 -197.682 105.504 -198.519 104.637 C-203.545 99.649 -207.796 96.938 -214.652 95.039 C-215.365 94.758 -216.078 94.477 -216.812 94.188 C-217.142 93.197 -217.473 92.207 -217.812 91.188 C-218.287 91.291 -218.287 91.291 -220.688 91.812 C-221.719 91.936 -222.75 92.06 -223.812 92.188 C-224.473 91.528 -225.132 90.868 -225.812 90.188 C-227.132 91.178 -228.452 92.168 -229.812 93.188 C-229.483 93.847 -229.152 94.507 -228.812 95.188 C-230.132 95.188 -231.452 95.188 -232.812 95.188 C-233.142 94.197 -233.473 93.207 -233.812 92.188 C-236.123 93.837 -238.433 95.488 -240.812 97.188 C-242.812 96.188 -242.812 96.188 -244.812 94.188 C-219.465 69.935 -188.932 51.957 -157.812 36.188 C-157.008 35.775 -156.204 35.362 -155.375 34.937 C-108.17 10.833 -52.774 -0.037 0 0 Z " fill="#24BEFB" transform="translate(510.8125,165.8125)"/>
<path d="M0 0 C0 0.66 0 1.32 0 2 C1.32 2 2.64 2 4 2 C4 2.66 4 3.32 4 4 C3.34 4 2.68 4 2 4 C2 4.66 2 5.32 2 6 C3.32 5.67 4.64 5.34 6 5 C6 5.99 6 6.98 6 8 C5.67 8.33 5.34 8.66 5 9 C5.99 9.33 6.98 9.66 8 10 C8 11.32 8 12.64 8 14 C7.01 14 6.02 14 5 14 C5.639 14.309 6.279 14.619 6.938 14.938 C9.918 16.473 10.555 18.014 12 21 C11.196 21.124 10.391 21.247 9.562 21.375 C8.717 21.581 7.871 21.788 7 22 C6.67 22.66 6.34 23.32 6 24 C3.237 23.477 0.674 22.891 -2 22 C-1.835 22.495 -1.835 22.495 -1 25 C-0.34 25.33 0.32 25.66 1 26 C0.67 26.66 0.34 27.32 0 28 C1.32 28.66 2.64 29.32 4 30 C3.01 30.66 2.02 31.32 1 32 C1.66 32 2.32 32 3 32 C3 32.99 3 33.98 3 35 C2.01 35 1.02 35 0 35 C0.33 35.99 0.66 36.98 1 38 C0.34 38.99 -0.32 39.98 -1 41 C-1.66 41 -2.32 41 -3 41 C-3 41.66 -3 42.32 -3 43 C-2.01 42.67 -1.02 42.34 0 42 C-0.66 43.65 -1.32 45.3 -2 47 C-1.34 47 -0.68 47 0 47 C0 47.66 0 48.32 0 49 C0.66 49 1.32 49 2 49 C2.082 48.381 2.165 47.763 2.25 47.125 C3 45 3 45 5.062 43.75 C5.702 43.503 6.341 43.255 7 43 C9.062 44.562 9.062 44.562 11 47 C10.75 50.75 10.75 50.75 10 54 C11.32 53.67 12.64 53.34 14 53 C14.062 52.546 14.062 52.546 14.375 50.25 C14.928 47.374 15.681 45.55 17 43 C17 42.01 17 41.02 17 40 C21.875 41.75 21.875 41.75 23 44 C22.34 44.33 22.34 44.33 19 46 C19 46.99 19 47.98 19 49 C20.32 48.01 21.64 47.02 23 46 C23.66 46.99 24.32 47.98 25 49 C25 48.34 25 47.68 25 47 C25.495 47.165 25.495 47.165 28 48 C28.33 47.67 28.66 47.34 29 47 C32.875 48.75 32.875 48.75 34 51 C34.66 51.165 35.32 51.33 36 51.5 C36.66 51.665 37.32 51.83 38 52 C38.33 52.66 38.66 53.32 39 54 C39 52.35 39 50.7 39 49 C40.32 49.66 41.64 50.32 43 51 C42.67 50.01 42.34 49.02 42 48 C43.32 47.01 44.64 46.02 46 45 C46.495 45.33 46.495 45.33 49 47 C48.34 48.32 47.68 49.64 47 51 C47 50.34 47 49.68 47 49 C46.34 49 45.68 49 45 49 C45.33 49.99 45.66 50.98 46 52 C45.835 52.33 45.835 52.33 45 54 C45.99 53.67 46.98 53.34 48 53 C48.66 53.33 49.32 53.66 50 54 C50 54.66 50 55.32 50 56 C56.552 53.915 60.22 52.046 65 47 C64.34 47 63.68 47 63 47 C62.67 47.33 62.34 47.66 62 48 C61.67 48.33 61.67 48.33 60 50 C58.68 49.34 57.36 48.68 56 48 C56 47.34 56 46.68 56 46 C55.01 46 54.02 46 53 46 C52.835 45.01 52.835 45.01 52 40 C54.31 40.33 56.62 40.66 59 41 C58.402 40.753 57.804 40.505 57.188 40.25 C53.729 38.274 52.179 35.268 50 32 C50 31.34 50 30.68 50 30 C49.34 30 48.68 30 48 30 C48 29.34 48 28.68 48 28 C47.34 28 46.68 28 46 28 C45.835 27.67 45.835 27.67 45 26 C44.67 26.495 44.67 26.495 43 29 C41.68 28.67 40.36 28.34 39 28 C39.33 27.505 39.33 27.505 41 25 C40.854 21.576 40.362 19.536 38.438 16.688 C35.05 14.342 32.02 14.313 28 14 C26.659 13.698 25.319 13.385 24 13 C24 12.01 24 11.02 24 10 C25.32 10 26.64 10 28 10 C27.625 8.062 27.625 8.062 27 6 C26.67 5.835 26.67 5.835 25 5 C25.66 4.34 26.32 3.68 27 3 C27.33 3.33 27.33 3.33 29 5 C29.631 5.306 30.262 5.611 30.912 5.926 C33.184 7.095 34.608 8.37 36.402 10.182 C37.055 10.836 37.708 11.491 38.381 12.165 C39.087 12.883 39.792 13.6 40.519 14.34 C41.271 15.096 42.022 15.852 42.797 16.631 C44.428 18.274 46.058 19.918 47.685 21.565 C50.261 24.171 52.844 26.771 55.428 29.369 C62.776 36.756 70.11 44.155 77.442 51.558 C81.927 56.086 86.419 60.607 90.916 65.123 C92.628 66.845 94.337 68.571 96.043 70.299 C98.429 72.716 100.825 75.125 103.222 77.531 C103.924 78.246 104.625 78.962 105.348 79.699 C109.927 84.269 113.834 87.661 120.5 88.375 C124.293 87.969 126.653 86.75 130 85 C130.99 85.33 131.98 85.66 133 86 C132.34 88.31 131.68 90.62 131 93 C131.33 92.67 131.66 92.34 132 92 C132.66 91.67 133.32 91.34 134 91 C134.33 90.34 134.66 89.68 135 89 C140.875 92.625 140.875 92.625 142 96 C142.99 96 143.98 96 145 96 C145 95.34 145 94.68 145 94 C144.34 94 143.68 94 143 94 C142.468 92.734 141.95 91.462 141.438 90.188 C141.147 89.48 140.857 88.772 140.559 88.043 C140 86 140 86 141 83 C145.318 78.227 145.318 78.227 149 77 C149.33 76.505 149.33 76.505 151 74 C151 74.99 151 75.98 151 77 C152.65 77 154.3 77 156 77 C156 75.35 156 73.7 156 72 C157.32 72 158.64 72 160 72 C160 72.66 160 73.32 160 74 C160.66 74.33 161.32 74.66 162 75 C162 75.66 162 76.32 162 77 C161.34 77 160.68 77 160 77 C160 77.66 160 78.32 160 79 C159.34 79.66 158.68 80.32 158 81 C158.66 81.66 159.32 82.32 160 83 C160.598 82.67 161.196 82.34 161.812 82 C164 81 164 81 167 81 C167.66 81.66 168.32 82.32 169 83 C168.34 83 167.68 83 167 83 C167 83.66 167 84.32 167 85 C168.32 85 169.64 85 171 85 C171 85.66 171 86.32 171 87 C171.66 86.67 172.32 86.34 173 86 C173 85.01 173 84.02 173 83 C174.98 82.34 176.96 81.68 179 81 C178.67 81.99 178.34 82.98 178 84 C177.67 84.165 177.67 84.165 176 85 C176.33 85.66 176.66 86.32 177 87 C176.67 87.66 176.34 88.32 176 89 C172.375 89.201 170.135 88.858 167 87 C161.25 90.75 161.25 90.75 159 93 C159.66 93.33 160.32 93.66 161 94 C161 93.34 161 92.68 161 92 C161.66 92 162.32 92 163 92 C163 92.66 163 93.32 163 94 C164.32 94.66 165.64 95.32 167 96 C164.381 97.746 162.962 98.387 160 99 C159.938 99.619 159.876 100.237 159.812 100.875 C159 103 159 103 156.562 104.25 C154 105 154 105 152 105 C151.01 105.66 150.02 106.32 149 107 C149 104 149 104 150 102 C145.118 103.627 142.781 107.828 140 112 C139.34 110.68 138.68 109.36 138 108 C137.34 108.33 137.34 108.33 134 110 C133.67 109.34 133.34 108.68 133 108 C132.01 108.33 131.02 108.66 130 109 C128 109.039 126 109.044 124 109 C124.33 109.495 124.33 109.495 126 112 C125.67 112.66 125.34 113.32 125 114 C125.66 114.66 126.32 115.32 127 116 C126.01 116.66 125.02 117.32 124 118 C123.34 116.35 122.68 114.7 122 113 C121.34 113 120.68 113 120 113 C119.67 113.66 119.34 114.32 119 115 C119 114.34 119 113.68 119 113 C118.34 113 117.68 113 117 113 C116.67 113.66 116.34 114.32 116 115 C116 114.34 116 113.68 116 113 C115.397 113.168 114.793 113.335 114.172 113.508 C113.772 113.61 113.772 113.61 111.75 114.125 C111.356 114.229 111.356 114.229 109.359 114.758 C106.58 115.043 105.341 114.45 103 113 C102.34 113.66 101.68 114.32 101 115 C95.034 116.918 90.243 117 84 117 C83.34 116.34 82.68 115.68 82 115 C81.01 115.66 80.02 116.32 79 117 C77.68 116.34 76.36 115.68 75 115 C74.34 115.66 73.68 116.32 73 117 C71.68 117 70.36 117 69 117 C68.67 117.165 68.67 117.165 67 118 C66.67 116.35 66.34 114.7 66 113 C63.659 115.128 62.293 117.116 61 120 C60.092 119.959 59.185 119.918 58.25 119.875 C55.122 119.995 53.614 120.391 51 122 C51 120.02 51 118.04 51 116 C50.67 116.33 50.34 116.66 50 117 C47.667 117.041 45.333 117.042 43 117 C42.67 116.01 42.34 115.02 42 114 C41.959 114.743 41.918 115.485 41.875 116.25 C40.647 120.11 38.405 120.985 35 123 C34.34 123.66 33.68 124.32 33 125 C30 126 30 126 27 126 C26.34 126.66 25.68 127.32 25 128 C26.32 128 27.64 128 29 128 C29 128.66 29 129.32 29 130 C28.34 130.66 27.68 131.32 27 132 C27.25 134.562 27.25 134.562 28 137 C28.66 137.33 29.32 137.66 30 138 C30.33 136.35 30.66 134.7 31 133 C31.33 133.66 31.66 134.32 32 135 C32.66 135 33.32 135 34 135 C34.33 134.34 34.66 133.68 35 133 C35.33 133.99 35.66 134.98 36 136 C34.68 136 33.36 136 32 136 C31.34 137.65 30.68 139.3 30 141 C29.34 141 28.68 141 28 141 C28 140.34 28 139.68 28 139 C27.381 139.309 26.763 139.619 26.125 139.938 C24.75 140.625 23.375 141.312 22 142 C21.34 141.67 20.68 141.34 20 141 C19.67 141.66 19.34 142.32 19 143 C18.34 142.01 17.68 141.02 17 140 C17.99 140 18.98 140 20 140 C20.103 139.381 20.206 138.763 20.312 138.125 C21 136 21 136 24 134 C23.484 133.175 22.969 132.35 22.438 131.5 C20.594 127.011 21.108 124.704 22 120 C21 121 21 121 20.25 123 C19 125 19 125 16.562 125.75 C14 126 14 126 11 126 C11 126.66 11 127.32 11 128 C11.99 128.33 12.98 128.66 14 129 C12.907 129.309 11.814 129.619 10.688 129.938 C8.446 130.583 6.213 131.262 4 132 C3.01 132 2.02 132 1 132 C1.33 132.33 1.33 132.33 3 134 C1.949 136.866 1.331 137.83 -1.438 139.25 C-4.939 140.275 -8.37 140 -12 140 C-12 139.01 -12 138.02 -12 137 C-12.66 137 -13.32 137 -14 137 C-14 137.66 -14 138.32 -14 139 C-16.64 139.33 -19.28 139.66 -22 140 C-22.33 138.02 -22.66 136.04 -23 134 C-22.01 134 -21.02 134 -20 134 C-19.67 133.01 -19.34 132.02 -19 131 C-17.35 131 -15.7 131 -14 131 C-14 130.34 -14 129.68 -14 129 C-14.268 128.938 -14.268 128.938 -15.625 128.625 C-18 128 -18 128 -21.062 126.875 C-24 126 -24 126 -27 127 C-27.66 126.67 -28.32 126.34 -29 126 C-28 124 -28 124 -27 123 C-27.66 122.34 -28.32 121.68 -29 121 C-29 120.34 -29 119.68 -29 119 C-28.34 119 -27.68 119 -27 119 C-28.37 115.839 -28.989 115.007 -32 113 C-33.32 113 -34.64 113 -36 113 C-36.33 113.99 -36.66 114.98 -37 116 C-39.062 117.188 -39.062 117.188 -41 118 C-41 116.35 -41 114.7 -41 113 C-40.68 112.866 -40.68 112.866 -39.062 112.188 C-37 111 -37 111 -36 108 C-36.99 108 -37.98 108 -39 108 C-39 107.34 -39 106.68 -39 106 C-39.825 106.165 -39.825 106.165 -44 107 C-44.66 106.01 -45.32 105.02 -46 104 C-46.072 104.361 -46.072 104.361 -46.438 106.188 C-46.698 107.49 -46.698 107.49 -48 114 C-47.34 114.33 -46.68 114.66 -46 115 C-46.66 115 -47.32 115 -48 115 C-48.66 117.97 -49.32 120.94 -50 124 C-49.34 124.33 -48.68 124.66 -48 125 C-48.66 125 -49.32 125 -50 125 C-50 125.99 -50 126.98 -50 128 C-49.34 128.33 -48.68 128.66 -48 129 C-48.66 129 -49.32 129 -50 129 C-49.856 129.58 -49.711 130.16 -49.562 130.758 C-48.491 135.267 -47.761 139.331 -48 144 C-47.34 144 -46.68 144 -46 144 C-46 144.66 -46 145.32 -46 146 C-43.69 146.33 -41.38 146.66 -39 147 C-39 147.33 -39 147.66 -39 148 C-43.29 148 -47.58 148 -52 148 C-52.165 129.355 -52.165 129.355 -53 35 C-52.34 35 -51.68 35 -51 35 C-52.32 32.69 -53.64 30.38 -55 28 C-53.02 28 -51.04 28 -49 28 C-49 27.01 -49 26.02 -49 25 C-49.66 25 -50.32 25 -51 25 C-51.33 24.01 -51.66 23.02 -52 22 C-52.66 22 -53.32 22 -54 22 C-54 21.34 -54 20.68 -54 20 C-54.66 19.67 -55.32 19.34 -56 19 C-54.788 18.72 -53.577 18.441 -52.328 18.152 C-35.699 14.215 -19.665 9.374 -4.555 1.285 C-2 0 -2 0 0 0 Z " fill="#24BEFB" transform="translate(608,710)"/>
<path d="M0 0 C1.222 -0.006 2.443 -0.013 3.702 -0.019 C5.013 -0.02 6.325 -0.022 7.676 -0.023 C9.045 -0.026 10.413 -0.029 11.782 -0.033 C14.645 -0.039 17.509 -0.041 20.373 -0.04 C24.032 -0.04 27.692 -0.054 31.351 -0.071 C34.176 -0.082 37.001 -0.084 39.826 -0.083 C41.828 -0.085 43.83 -0.096 45.832 -0.107 C47.056 -0.104 48.281 -0.101 49.543 -0.098 C50.616 -0.099 51.689 -0.101 52.795 -0.102 C58.451 0.358 62.858 2.057 66.836 6.145 C69.119 12.147 69.126 17.834 69.111 24.202 C69.116 25.294 69.121 26.386 69.126 27.511 C69.14 31.108 69.139 34.705 69.137 38.302 C69.141 40.808 69.145 43.315 69.15 45.822 C69.157 51.07 69.157 56.319 69.152 61.568 C69.146 67.622 69.158 73.677 69.179 79.732 C69.199 85.574 69.202 91.415 69.199 97.257 C69.199 99.735 69.204 102.214 69.215 104.692 C69.227 108.158 69.22 111.623 69.208 115.089 C69.216 116.109 69.224 117.13 69.232 118.181 C69.176 125.67 68.423 130.421 63.086 136.041 C59.318 138.481 57.294 138.782 52.84 138.808 C52.168 138.818 51.496 138.829 50.803 138.84 C48.596 138.866 46.391 138.857 44.184 138.844 C42.64 138.85 41.096 138.858 39.552 138.866 C36.321 138.878 33.091 138.871 29.861 138.852 C25.733 138.829 21.608 138.856 17.481 138.897 C14.294 138.923 11.107 138.92 7.919 138.909 C6.398 138.908 4.877 138.915 3.357 138.932 C-9.973 139.058 -9.973 139.058 -14.525 135.473 C-19.303 130.731 -19.399 124.581 -19.446 118.242 C-19.444 117.208 -19.441 116.175 -19.438 115.11 C-19.444 114.009 -19.449 112.907 -19.454 111.772 C-19.468 108.137 -19.467 104.503 -19.465 100.868 C-19.468 98.337 -19.473 95.807 -19.478 93.276 C-19.485 87.974 -19.485 82.673 -19.479 77.371 C-19.473 71.254 -19.486 65.138 -19.507 59.021 C-19.527 53.122 -19.53 47.223 -19.526 41.325 C-19.527 38.821 -19.532 36.318 -19.542 33.814 C-19.554 30.313 -19.548 26.811 -19.536 23.31 C-19.544 22.278 -19.551 21.247 -19.559 20.184 C-19.508 13.221 -18.924 7.905 -13.789 2.77 C-9.38 0.041 -5.097 0.018 0 0 Z " fill="#F3A305" transform="translate(487.163818359375,183.854736328125)"/>
<path d="M0 0 C3.4 1.967 6 4.283 8.717 7.071 C9.224 7.581 9.732 8.09 10.255 8.615 C11.323 9.69 12.388 10.768 13.449 11.85 C15.049 13.482 16.66 15.102 18.273 16.721 C23.191 21.677 27.987 26.695 32.528 32.001 C35.939 35.859 39.703 39.384 43.404 42.96 C43.702 43.253 43.702 43.253 45.213 44.735 C45.749 45.255 46.286 45.775 46.839 46.311 C49.415 49.309 49.329 52.685 49.552 56.481 C47.956 65.213 40.098 71.258 34.088 77.212 C32.999 78.3 31.911 79.388 30.823 80.477 C28.554 82.747 26.279 85.012 24 87.272 C21.075 90.175 18.161 93.088 15.25 96.006 C13.01 98.249 10.765 100.488 8.518 102.725 C7.441 103.798 6.365 104.873 5.291 105.949 C3.795 107.445 2.292 108.934 0.788 110.422 C-0.066 111.272 -0.92 112.121 -1.799 112.996 C-3.873 114.809 -3.873 114.809 -5.873 114.809 C-5.873 115.469 -5.873 116.129 -5.873 116.809 C-7.226 118.116 -7.226 118.116 -9.166 119.688 C-12.787 122.759 -16.069 126.052 -19.299 129.524 C-20.27 130.55 -21.242 131.576 -22.215 132.6 C-23.711 134.176 -25.196 135.758 -26.656 137.367 C-34.708 146.205 -34.708 146.205 -39.844 147.638 C-46.63 147.903 -50.563 145.843 -55.525 141.296 C-57.328 139.588 -59.073 137.834 -60.811 136.059 C-61.393 135.477 -61.975 134.894 -62.574 134.294 C-65.598 131.24 -68.501 128.122 -71.307 124.868 C-75.012 120.586 -78.971 116.599 -82.998 112.622 C-83.343 112.279 -83.343 112.279 -85.088 110.546 C-90.187 105.481 -90.187 105.481 -92.412 103.304 C-95.995 99.779 -98.654 96.834 -99.033 91.605 C-98.683 83.873 -95.655 80.326 -90.22 75.087 C-89.819 74.683 -89.819 74.683 -87.791 72.639 C-85.147 69.986 -82.472 67.366 -79.795 64.747 C-77.946 62.907 -76.098 61.065 -74.253 59.221 C-70.387 55.367 -66.505 51.529 -62.611 47.703 C-57.618 42.797 -52.654 37.864 -47.698 32.921 C-43.886 29.12 -40.064 25.329 -36.24 21.541 C-34.406 19.724 -32.574 17.906 -30.743 16.086 C-28.184 13.549 -25.616 11.021 -23.044 8.497 C-22.288 7.744 -21.531 6.99 -20.752 6.214 C-20.048 5.528 -19.344 4.841 -18.619 4.134 C-18.013 3.536 -17.407 2.939 -16.782 2.324 C-11.742 -1.675 -5.954 -2.467 0 0 Z " fill="#F3A305" transform="translate(734.873291015625,263.190673828125)"/>
<path d="M0 0 C0.883 -0.054 1.766 -0.108 2.676 -0.164 C10.648 1.925 17.439 11.189 23.148 16.848 C24.02 17.711 24.892 18.575 25.79 19.465 C27.619 21.28 29.446 23.096 31.271 24.913 C33.138 26.769 35.01 28.62 36.886 30.467 C39.608 33.147 42.317 35.839 45.023 38.535 C45.863 39.357 46.703 40.179 47.567 41.026 C52.82 46.299 55.626 49.821 55.75 57.5 C55.189 60.965 53.963 62.8 51.615 65.38 C50.982 66.077 50.348 66.774 49.696 67.492 C46.446 70.944 43.134 74.326 39.78 77.677 C39.023 78.438 38.266 79.198 37.486 79.982 C35.009 82.468 32.528 84.951 30.047 87.434 C28.315 89.168 26.584 90.903 24.852 92.638 C21.236 96.26 17.618 99.88 13.999 103.499 C9.354 108.143 4.717 112.795 0.081 117.448 C-3.486 121.026 -7.057 124.599 -10.63 128.171 C-12.343 129.885 -14.054 131.601 -15.764 133.319 C-18.146 135.71 -20.533 138.095 -22.923 140.478 C-23.63 141.191 -24.338 141.905 -25.067 142.639 C-25.717 143.286 -26.368 143.932 -27.038 144.597 C-27.601 145.161 -28.164 145.725 -28.745 146.306 C-31.872 148.937 -35.249 148.799 -39.18 148.953 C-44.127 148.192 -47.584 144.602 -50.995 141.185 C-51.892 140.291 -52.79 139.397 -53.714 138.475 C-54.68 137.503 -55.645 136.531 -56.609 135.559 C-57.608 134.558 -58.608 133.559 -59.607 132.559 C-61.695 130.47 -63.779 128.378 -65.861 126.282 C-68.531 123.595 -71.208 120.914 -73.888 118.236 C-75.948 116.174 -78.007 114.111 -80.064 112.046 C-81.051 111.056 -82.038 110.067 -83.026 109.079 C-84.402 107.7 -85.775 106.318 -87.147 104.935 C-87.93 104.149 -88.712 103.363 -89.518 102.554 C-92.362 99.497 -92.519 97.472 -92.625 93.375 C-92.662 92.442 -92.7 91.508 -92.738 90.547 C-91.719 83.55 -85.57 78.596 -80.778 73.831 C-80.401 73.453 -80.401 73.453 -78.495 71.538 C-76.013 69.048 -73.524 66.565 -71.035 64.082 C-69.304 62.349 -67.573 60.616 -65.842 58.883 C-62.218 55.256 -58.59 51.633 -54.96 48.012 C-50.308 43.372 -45.666 38.722 -41.026 34.07 C-37.455 30.492 -33.879 26.918 -30.301 23.346 C-28.587 21.634 -26.875 19.92 -25.164 18.204 C-22.773 15.808 -20.376 13.418 -17.977 11.031 C-17.624 10.676 -17.624 10.676 -15.84 8.882 C-11.045 4.127 -7.066 0.225 0 0 Z " fill="#F3A305" transform="translate(332.3125,650.375)"/>
<path d="M0 0 C0.455 -0.036 0.455 -0.036 2.758 -0.219 C12.285 1.978 21.27 14.77 28.043 21.57 C29.409 22.939 30.776 24.307 32.143 25.675 C35.722 29.257 39.298 32.843 42.874 36.43 C46.51 40.076 50.149 43.72 53.787 47.363 C59.662 53.247 65.536 59.133 71.407 65.021 C80.405 74.044 80.405 74.044 83.227 76.781 C83.977 77.513 84.727 78.246 85.5 79 C86.255 79.732 87.011 80.464 87.789 81.219 C91.097 84.836 93.304 87.938 93.312 92.938 C93.332 93.658 93.351 94.379 93.371 95.121 C91.827 102.525 84.61 108.071 79.508 113.168 C78.595 114.085 77.683 115.001 76.743 115.946 C74.818 117.878 72.89 119.806 70.958 121.732 C68.493 124.192 66.04 126.662 63.589 129.136 C61.235 131.508 58.871 133.869 56.508 136.23 C55.633 137.115 54.757 137.999 53.856 138.91 C44.682 148.016 44.682 148.016 37.438 148.938 C29.417 147.952 24.328 142.391 18.876 136.905 C18.109 136.145 17.343 135.385 16.553 134.602 C14.033 132.101 11.524 129.588 9.016 127.074 C7.262 125.325 5.508 123.576 3.754 121.828 C0.084 118.167 -3.58 114.501 -7.241 110.83 C-11.929 106.131 -16.632 101.448 -21.34 96.769 C-24.964 93.163 -28.579 89.548 -32.191 85.931 C-33.921 84.2 -35.655 82.473 -37.391 80.748 C-39.818 78.336 -42.232 75.911 -44.644 73.483 C-45.36 72.776 -46.077 72.069 -46.816 71.34 C-51.8 66.281 -54.749 62.131 -55.5 54.875 C-54.862 49.132 -51.672 45.796 -47.685 41.817 C-46.791 40.92 -45.897 40.023 -44.975 39.098 C-44.003 38.133 -43.031 37.168 -42.059 36.203 C-41.058 35.204 -40.059 34.205 -39.059 33.205 C-36.97 31.117 -34.878 29.033 -32.782 26.952 C-30.095 24.281 -27.414 21.604 -24.736 18.925 C-22.674 16.864 -20.611 14.806 -18.546 12.748 C-17.556 11.762 -16.567 10.775 -15.579 9.787 C-14.2 8.41 -12.818 7.038 -11.435 5.665 C-11.042 5.274 -11.042 5.274 -9.054 3.295 C-6.08 0.528 -3.991 0.222 0 0 Z " fill="#F3A305" transform="translate(691.125,650.5)"/>
<path d="M0 0 C2.046 1.636 3.896 3.257 5.773 5.068 C6.333 5.597 6.893 6.126 7.47 6.671 C14.939 13.77 22.224 21.06 29.512 28.344 C31.058 29.887 32.604 31.429 34.15 32.972 C37.361 36.177 40.57 39.384 43.778 42.593 C47.89 46.705 52.008 50.809 56.129 54.913 C59.31 58.083 62.488 61.259 65.664 64.435 C67.182 65.952 68.701 67.467 70.222 68.98 C72.337 71.086 74.446 73.197 76.553 75.311 C77.18 75.932 77.807 76.553 78.453 77.193 C79.026 77.77 79.599 78.348 80.189 78.942 C80.687 79.439 81.184 79.936 81.697 80.448 C84.451 83.728 85.309 86.634 85.375 90.875 C85.403 91.697 85.432 92.52 85.461 93.367 C84.213 100.497 77.606 105.655 72.691 110.504 C71.888 111.305 71.084 112.106 70.256 112.931 C67.696 115.48 65.129 118.021 62.562 120.562 C60.84 122.275 59.118 123.988 57.396 125.701 C54.234 128.847 51.069 131.991 47.901 135.131 C40.021 142.942 40.021 142.942 37.25 145.812 C33.683 147.695 29.939 147.678 26 147 C22.415 145.083 19.695 142.926 16.863 140.023 C16.492 139.647 16.492 139.647 14.615 137.742 C13.855 136.961 13.095 136.18 12.312 135.375 C10.79 133.818 9.265 132.263 7.738 130.711 C7.068 130.023 6.398 129.335 5.708 128.626 C4 127 4 127 2 126 C2 125.34 2 124.68 2 124 C0.68 123.34 -0.64 122.68 -2 122 C-2 121.34 -2 120.68 -2 120 C-2.66 120 -3.32 120 -4 120 C-6.125 118.125 -6.125 118.125 -8 116 C-8 115.34 -8 114.68 -8 114 C-8.66 114 -9.32 114 -10 114 C-10 113.34 -10 112.68 -10 112 C-10.289 111.876 -10.289 111.876 -11.75 111.25 C-14.329 109.817 -16.061 108.216 -18 106 C-18 105.34 -18 104.68 -18 104 C-18.66 104 -19.32 104 -20 104 C-24.767 99.698 -24.767 99.698 -26 96 C-27.322 95.31 -28.657 94.648 -30 94 C-31.463 92.718 -32.879 91.381 -34.25 90 C-34.603 89.649 -34.603 89.649 -36.391 87.875 C-38 86 -38 86 -38 84 C-39.32 83.34 -40.64 82.68 -42 82 C-42 81.34 -42 80.68 -42 80 C-42.66 80 -43.32 80 -44 80 C-45.71 78.378 -47.369 76.701 -49 75 C-49.932 74.091 -50.864 73.182 -51.824 72.246 C-52.779 71.31 -53.733 70.374 -54.688 69.438 C-55.173 68.969 -55.658 68.5 -56.158 68.018 C-60.465 63.77 -62.294 60.809 -62.562 54.75 C-62.626 53.858 -62.689 52.966 -62.754 52.047 C-60.801 44.155 -51.613 37.426 -46.031 31.793 C-45.612 31.369 -45.612 31.369 -43.488 29.226 C-41.725 27.449 -39.96 25.673 -38.194 23.899 C-36.393 22.087 -34.598 20.27 -32.806 18.449 C-30.203 15.804 -27.588 13.172 -24.969 10.543 C-24.174 9.73 -23.379 8.918 -22.56 8.081 C-16.106 1.652 -9.341 -3.6 0 0 Z " fill="#F3A305" transform="translate(302,263)"/>
<path d="M0 0 C1.112 -0.006 2.223 -0.011 3.368 -0.017 C7.025 -0.029 10.681 -0.004 14.338 0.021 C16.888 0.023 19.438 0.023 21.988 0.021 C27.325 0.023 32.662 0.041 37.999 0.073 C44.155 0.11 50.311 0.119 56.468 0.112 C62.409 0.106 68.351 0.117 74.293 0.136 C76.813 0.143 79.333 0.146 81.853 0.145 C85.376 0.147 88.899 0.168 92.422 0.195 C93.459 0.192 94.497 0.189 95.566 0.186 C101.36 0.255 105.546 0.788 110.646 3.615 C114.877 8.18 115.771 10.758 115.807 16.897 C115.812 17.542 115.817 18.186 115.822 18.849 C115.837 20.985 115.844 23.12 115.849 25.256 C115.855 26.741 115.861 28.226 115.867 29.711 C115.877 32.828 115.883 35.945 115.886 39.062 C115.892 43.048 115.916 47.033 115.944 51.019 C115.963 54.089 115.968 57.158 115.97 60.228 C115.973 61.696 115.981 63.165 115.994 64.634 C116.011 66.695 116.009 68.755 116.003 70.815 C116.005 71.401 116.005 71.401 116.014 74.364 C115.439 79.447 113.886 82.437 110.183 85.956 C105.118 88.332 100.593 88.19 95.061 88.165 C94.481 88.17 94.481 88.17 91.545 88.196 C87.715 88.223 83.886 88.221 80.056 88.217 C78.065 88.223 76.074 88.228 74.082 88.236 C67.824 88.258 61.567 88.259 55.309 88.247 C48.864 88.235 42.421 88.259 35.977 88.302 C30.433 88.337 24.889 88.349 19.345 88.342 C16.038 88.339 12.733 88.347 9.426 88.372 C5.737 88.397 2.05 88.383 -1.639 88.36 C-2.726 88.375 -3.814 88.39 -4.934 88.406 C-11 88.322 -14.743 87.658 -19.075 83.232 C-22.362 79.075 -22.607 75.361 -22.628 70.176 C-22.638 68.894 -22.647 67.613 -22.657 66.292 C-22.657 64.901 -22.656 63.51 -22.655 62.119 C-22.658 60.683 -22.663 59.248 -22.668 57.812 C-22.675 54.807 -22.675 51.802 -22.669 48.797 C-22.664 44.956 -22.681 41.115 -22.704 37.274 C-22.719 34.31 -22.719 31.346 -22.716 28.382 C-22.717 26.966 -22.722 25.55 -22.732 24.135 C-22.744 22.151 -22.736 20.167 -22.726 18.184 C-22.727 17.058 -22.727 15.931 -22.728 14.771 C-22.2 10.318 -21.125 7.257 -17.774 4.151 C-12.099 0.048 -6.82 -0.087 0 0 Z " fill="#F3A306" transform="translate(187.353759765625,486.384765625)"/>
<path d="M0 0 C1.523 -0.003 3.045 -0.007 4.568 -0.012 C7.749 -0.017 10.931 -0.009 14.112 0.01 C18.18 0.033 22.246 0.019 26.314 -0.005 C29.455 -0.019 32.595 -0.014 35.736 -0.004 C37.236 -0.001 38.735 -0.005 40.235 -0.014 C42.334 -0.024 44.431 -0.009 46.53 0.014 C47.125 0.015 47.125 0.015 50.14 0.023 C54.255 0.658 56.298 1.795 59.434 4.531 C62.967 10.371 62.862 15.891 62.822 22.588 C62.827 23.68 62.832 24.772 62.838 25.897 C62.851 29.494 62.842 33.09 62.832 36.688 C62.834 39.194 62.837 41.701 62.841 44.208 C62.845 49.456 62.839 54.705 62.825 59.954 C62.808 66.008 62.814 72.063 62.83 78.118 C62.845 83.96 62.844 89.801 62.835 95.643 C62.833 98.121 62.835 100.6 62.842 103.078 C62.85 106.544 62.838 110.009 62.822 113.475 C62.828 114.495 62.834 115.516 62.84 116.567 C62.789 122.321 62.269 126.477 59.434 131.531 C54.105 135.839 50.107 136.65 43.415 136.692 C42.2 136.702 40.985 136.712 39.733 136.721 C38.422 136.726 37.112 136.73 35.762 136.734 C35.091 136.737 34.421 136.74 33.73 136.743 C30.181 136.758 26.631 136.767 23.082 136.771 C19.433 136.777 15.784 136.801 12.135 136.829 C9.314 136.848 6.493 136.853 3.672 136.855 C1.678 136.859 -0.316 136.878 -2.31 136.897 C-9.094 136.88 -14.464 136.618 -20.566 133.531 C-26.534 126.798 -25.718 118.342 -25.728 109.842 C-25.733 108.789 -25.737 107.736 -25.743 106.651 C-25.757 103.184 -25.764 99.717 -25.77 96.25 C-25.775 93.833 -25.781 91.416 -25.787 88.999 C-25.797 83.939 -25.803 78.878 -25.807 73.818 C-25.812 67.338 -25.836 60.859 -25.865 54.379 C-25.883 49.39 -25.888 44.4 -25.89 39.411 C-25.893 37.022 -25.901 34.633 -25.914 32.244 C-25.931 28.903 -25.929 25.562 -25.923 22.221 C-25.932 21.238 -25.941 20.255 -25.951 19.242 C-25.916 13.564 -25.329 9.532 -22.566 4.531 C-16.205 -1.103 -8.037 -0.05 0 0 Z " fill="#F3A305" transform="translate(493.56640625,737.46875)"/>
<path d="M0 0 C0.904 -0.009 1.807 -0.018 2.738 -0.028 C4.431 -0.045 6.124 -0.07 7.816 -0.105 C14.07 -0.154 19.365 0.32 24.258 4.575 C27.546 8.443 27.518 10.507 27.56 15.541 C27.566 16.204 27.573 16.868 27.58 17.552 C27.599 19.752 27.611 21.952 27.621 24.153 C27.625 24.905 27.629 25.657 27.633 26.432 C27.654 30.413 27.668 34.395 27.678 38.376 C27.689 42.483 27.723 46.589 27.763 50.696 C27.789 53.858 27.797 57.021 27.801 60.183 C27.806 61.696 27.818 63.21 27.836 64.723 C27.861 66.846 27.86 68.968 27.853 71.091 C27.858 72.298 27.864 73.504 27.87 74.747 C27.145 79.694 25.005 82.6 21.35 85.923 C16.618 87.76 11.943 87.517 6.91 87.511 C5.751 87.521 4.591 87.531 3.396 87.541 C-0.44 87.57 -4.274 87.576 -8.11 87.579 C-10.102 87.586 -12.095 87.593 -14.087 87.601 C-20.351 87.626 -26.615 87.633 -32.88 87.631 C-39.331 87.629 -45.782 87.661 -52.233 87.708 C-57.781 87.747 -63.33 87.763 -68.878 87.761 C-72.188 87.761 -75.497 87.772 -78.807 87.801 C-82.501 87.83 -86.192 87.822 -89.886 87.804 C-90.976 87.82 -92.065 87.837 -93.187 87.855 C-99.408 87.777 -102.917 86.997 -107.401 82.557 C-110.051 79.328 -109.755 76.689 -109.779 72.593 C-109.783 71.928 -109.788 71.263 -109.794 70.577 C-109.808 68.372 -109.815 66.167 -109.821 63.962 C-109.826 62.429 -109.832 60.897 -109.838 59.365 C-109.848 56.15 -109.854 52.934 -109.858 49.719 C-109.863 45.603 -109.887 41.487 -109.916 37.371 C-109.934 34.205 -109.939 31.038 -109.941 27.872 C-109.944 26.355 -109.952 24.838 -109.965 23.321 C-109.982 21.195 -109.98 19.07 -109.974 16.945 C-109.976 16.34 -109.976 16.34 -109.985 13.282 C-109.445 8.569 -107.676 6.211 -104.496 2.796 C-100.472 0.39 -97.164 0.502 -92.555 0.529 C-92.102 0.524 -92.102 0.524 -89.812 0.498 C-86.819 0.468 -83.826 0.467 -80.832 0.465 C-78.735 0.45 -76.638 0.434 -74.54 0.415 C-69.006 0.372 -63.472 0.352 -57.938 0.337 C-52.377 0.317 -46.817 0.275 -41.256 0.235 C-31.194 0.167 -21.132 0.11 -11.07 0.094 C-7.379 0.087 -3.69 0.052 0 0 Z " fill="#F3A305" transform="translate(830.6174011230469,486.9251708984375)"/>
<path d="M0 0 C3.727 2.35 4.871 4.546 6.867 8.449 C15.663 24.855 27.538 35.393 44.891 41.988 C62.945 47.4 81.092 43.649 97.324 35.02 C102.188 32.296 107.436 28.998 109.992 23.887 C110.652 23.887 111.312 23.887 111.992 23.887 C112.253 23.336 112.513 22.786 112.781 22.219 C114.162 19.559 115.738 17.09 117.367 14.574 C119.423 11.4 121.35 8.261 123.055 4.887 C125.392 1.267 126.913 0.22 130.992 -1.113 C137.387 -1.824 140.82 -0.967 145.992 2.887 C148.835 6.831 149.653 10.564 149.461 15.344 C146.419 31.844 130.805 47.539 117.584 56.907 C103.708 66.32 86.931 73.201 69.992 73.887 C69.095 73.927 68.198 73.967 67.273 74.008 C43.721 74.535 20.592 66.674 2.992 50.887 C2.086 50.075 1.18 49.263 0.246 48.426 C-9.071 39.613 -20.665 26.139 -21.508 12.762 C-20.884 7.926 -19.921 5.796 -17.008 1.887 C-11.55 -1.958 -6.128 -2.268 0 0 Z " fill="#FEFFFE" transform="translate(448.0078125,557.11328125)"/>
<path d="M0 0 C0.66 0 1.32 0 2 0 C2 0.66 2 1.32 2 2 C2.66 2 3.32 2 4 2 C4 1.34 4 0.68 4 0 C5.813 0.144 7.625 0.29 9.438 0.438 C9.942 0.478 9.942 0.478 12.496 0.684 C15.065 0.916 17.606 1.196 20.164 1.509 C24.749 2.02 29.273 2.161 33.883 2.168 C34.291 2.17 34.291 2.17 36.36 2.178 C38.079 2.183 39.798 2.185 41.518 2.185 C44.098 2.187 46.678 2.206 49.258 2.225 C58.232 2.254 66.869 1.872 75.734 0.431 C81.681 -0.354 86.392 -0.189 92 2 C91.01 2.33 90.02 2.66 89 3 C89 3.66 89 4.32 89 5 C89.66 5 90.32 5 91 5 C91 5.99 91 6.98 91 8 C89.35 8.33 87.7 8.66 86 9 C86.681 9.928 87.361 10.856 88.062 11.812 C88.382 12.338 88.382 12.338 90 15 C89.67 15.99 89.34 16.98 89 18 C87 16 87 16 85.125 13.5 C82.244 10.11 80.401 9.123 75.947 8.733 C74.751 8.725 73.555 8.717 72.323 8.709 C71.992 8.706 71.992 8.706 70.316 8.689 C68.131 8.67 65.947 8.666 63.762 8.664 C62.237 8.658 60.713 8.651 59.188 8.644 C55.993 8.632 52.798 8.628 49.603 8.629 C45.521 8.63 41.439 8.602 37.357 8.568 C34.208 8.546 31.058 8.542 27.909 8.543 C26.405 8.54 24.901 8.531 23.396 8.516 C8.541 8.377 8.541 8.377 3 13 C1.812 16.125 1.812 16.125 1 19 C-2 21 -2 21 -4 21 C-3.814 21.639 -3.629 22.279 -3.438 22.938 C-3.293 23.618 -3.149 24.299 -3 25 C-3.33 25.33 -3.66 25.66 -4 26 C-4.041 28.333 -4.042 30.667 -4 33 C-5.65 31.35 -7.3 29.7 -9 28 C-8.34 27.01 -7.68 26.02 -7 25 C-7.33 24.01 -7.66 23.02 -8 22 C-8.99 21.67 -9.98 21.34 -11 21 C-10.505 20.278 -10.01 19.556 -9.5 18.812 C-7.921 15.852 -7.718 14.287 -8 11 C-6.68 10.67 -5.36 10.34 -4 10 C-4.082 9.237 -4.165 8.474 -4.25 7.688 C-4 5 -4 5 -2 3.312 C-1.34 2.879 -0.68 2.446 0 2 C0 1.34 0 0.68 0 0 Z " fill="#2DBCF1" transform="translate(468,730)"/>
<path d="M0 0 C4.264 0.474 6.115 3.039 9 6 C9.66 6 10.32 6 11 6 C11.99 7.98 12.98 9.96 14 12 C16.156 12 17.924 11.553 20 11 C20.165 11.33 20.165 11.33 21 13 C21.33 11.68 21.66 10.36 22 9 C22.165 9.825 22.165 9.825 23 14 C23.99 14 24.98 14 26 14 C25.67 15.32 25.34 16.64 25 18 C25.763 18.103 26.526 18.206 27.312 18.312 C30 19 30 19 31.5 20.562 C33 22 33 22 35.5 22 C38 22 38 22 39.75 23.312 C41 25 41 25 42 28 C42.33 26.35 42.66 24.7 43 23 C43.165 23.33 43.165 23.33 44 25 C44.66 25 45.32 25 46 25 C45.624 27.394 45.381 28.665 43.529 30.293 C42.908 30.659 42.288 31.025 41.648 31.402 C40.961 31.818 40.274 32.234 39.566 32.662 C38.843 33.083 38.12 33.504 37.375 33.938 C35.965 34.778 34.556 35.62 33.148 36.465 C32.46 36.877 31.771 37.29 31.062 37.714 C27.931 39.666 24.974 41.818 22 44 C21.67 43.835 21.67 43.835 20 43 C20.66 41.68 21.32 40.36 22 39 C12.421 47.577 3.311 56.569 -5.75 65.688 C-7.14 67.083 -8.531 68.478 -9.922 69.873 C-13.284 73.246 -16.643 76.622 -20 80 C-20 77 -20 77 -18.571 75.224 C-17.902 74.567 -17.233 73.911 -16.543 73.235 C-15.789 72.487 -15.035 71.739 -14.258 70.969 C-13.433 70.166 -12.608 69.363 -11.758 68.535 C-10.919 67.705 -10.08 66.876 -9.216 66.021 C-6.526 63.361 -3.826 60.711 -1.125 58.062 C1.568 55.417 4.26 52.769 6.945 50.115 C8.618 48.461 10.296 46.813 11.98 45.17 C12.74 44.419 13.501 43.668 14.285 42.895 C14.955 42.238 15.626 41.581 16.317 40.903 C19.332 37.494 20.291 34.705 20.312 30.188 C20.329 29.377 20.346 28.566 20.363 27.73 C19.234 19.243 14.283 14.806 8.312 9.125 C6.744 7.609 5.178 6.091 3.613 4.57 C2.92 3.908 2.227 3.245 1.513 2.563 C0 1 0 1 0 0 Z M-25 82 C-24.34 82.33 -23.68 82.66 -23 83 C-23.99 83.66 -24.98 84.32 -26 85 C-25.67 84.01 -25.34 83.02 -25 82 Z " fill="#2EBCF1" transform="translate(366,324)"/>
<path d="M0 0 C5.785 1.43 9.523 4.467 14.062 8.125 C21.096 13.663 28.241 18.534 36 23 C35.01 23.66 34.02 24.32 33 25 C32.67 25.66 32.34 26.32 32 27 C30.125 26.688 30.125 26.688 28 26 C27.67 25.505 27.67 25.505 26 23 C25.34 23.33 24.68 23.66 24 24 C23.01 22.68 22.02 21.36 21 20 C21 20.99 21 21.98 21 23 C21.66 23 22.32 23 23 23 C23.165 23.33 23.165 23.33 24 25 C24.66 25 25.32 25 26 25 C26.312 27.312 26.312 27.312 26 30 C23.5 31.625 23.5 31.625 21 33 C21 33.99 21 34.98 21 36 C20.015 35.847 19.029 35.693 18.014 35.535 C13.361 35.562 11.176 37.998 7.989 41.14 C7.256 41.898 6.524 42.655 5.77 43.436 C4.979 44.226 4.188 45.016 3.373 45.83 C0.764 48.443 -1.819 51.08 -4.402 53.719 C-6.207 55.536 -8.013 57.352 -9.82 59.167 C-14.087 63.457 -18.337 67.763 -22.58 72.076 C-27.413 76.987 -32.265 81.878 -37.12 86.767 C-47.102 96.823 -57.059 106.903 -67 117 C-67 114 -67 114 -65.741 112.383 C-65.443 112.089 -65.443 112.089 -63.938 110.605 C-63.26 109.928 -62.581 109.251 -61.882 108.553 C-61.128 107.816 -60.373 107.079 -59.596 106.319 C-58.809 105.538 -58.023 104.757 -57.212 103.953 C-55.498 102.254 -53.781 100.558 -52.06 98.865 C-49.339 96.187 -46.627 93.498 -43.918 90.807 C-37.185 84.122 -30.438 77.451 -23.686 70.786 C-17.987 65.159 -12.296 59.525 -6.616 53.879 C-3.944 51.229 -1.26 48.591 1.424 45.953 C3.062 44.325 4.7 42.698 6.337 41.069 C7.088 40.338 7.838 39.607 8.611 38.854 C13.632 33.824 16.389 29.368 16.562 22.062 C15.731 13.447 7.445 7.726 1.361 2.316 C0.912 1.882 0.463 1.447 0 1 C0 0.67 0 0.34 0 0 Z " fill="#36BAE4" transform="translate(371,681)"/>
<path d="M0 0 C1.257 1.885 2.472 3.799 3.625 5.75 C5.341 8.33 7.244 10.185 9.613 12.176 C14.135 16.067 18.357 20.209 22.562 24.438 C23.279 25.15 23.995 25.862 24.732 26.596 C28.801 30.672 32.682 34.851 36.444 39.212 C38.447 41.514 40.54 43.708 42.688 45.875 C43.413 46.615 44.139 47.355 44.887 48.117 C48.354 51.206 51.156 52.22 55.75 52.625 C56.549 52.7 57.348 52.775 58.172 52.852 C58.775 52.901 59.378 52.95 60 53 C60 53.33 60 53.66 60 54 C58.845 54.165 58.845 54.165 53 55 C53.33 55.165 53.33 55.165 55 56 C55 56.66 55 57.32 55 58 C54.01 58.33 53.02 58.66 52 59 C51.34 59.99 50.68 60.98 50 62 C44.502 59.114 41.777 55.151 38.25 50.121 C27.326 34.968 14.095 21.945 -1 11 C-0.662 10.243 -0.325 9.487 0.023 8.707 C1.212 5.411 0.783 3.367 0 0 Z " fill="#2BBDF3" transform="translate(636,357)"/>
<path d="M0 0 C3.307 1.102 3.955 1.856 6.104 4.471 C10.275 9.382 14.769 13.913 19.328 18.461 C20.199 19.333 21.07 20.204 21.967 21.103 C23.794 22.931 25.623 24.758 27.453 26.583 C30.259 29.384 33.059 32.19 35.859 34.996 C37.64 36.776 39.422 38.556 41.203 40.336 C41.622 40.756 41.622 40.756 43.741 42.88 C44.519 43.655 45.297 44.43 46.099 45.228 C46.781 45.91 47.464 46.592 48.168 47.295 C50 49 50 49 53 51 C53.33 51.66 53.66 52.32 54 53 C52.68 53 51.36 53 50 53 C50.99 53.66 51.98 54.32 53 55 C51.438 56.25 51.438 56.25 49 57 C42.394 54.009 36.828 49.412 32.312 43.75 C30.219 41.26 28.992 40.108 26 39 C26 38.34 26 37.68 26 37 C25.505 36.835 25.505 36.835 23 36 C22.34 35.01 21.68 34.02 21 33 C20.34 32.67 19.68 32.34 19 32 C19.66 30.35 20.32 28.7 21 27 C21.33 27.66 21.66 28.32 22 29 C22.66 29.33 23.32 29.66 24 30 C24.33 30.66 24.66 31.32 25 32 C25.577 32.268 26.155 32.536 26.75 32.812 C29.722 34.381 31.703 36.575 34 39 C32.714 36.169 31.384 34.144 29.158 31.979 C28.588 31.418 28.017 30.857 27.429 30.279 C26.814 29.684 26.2 29.089 25.566 28.477 C24.265 27.195 22.963 25.914 21.662 24.633 C19.613 22.627 17.561 20.624 15.507 18.623 C13.52 16.685 11.543 14.738 9.566 12.789 C8.954 12.198 8.341 11.607 7.71 10.999 C4.264 7.593 1.919 4.536 0 0 Z " fill="#26BEFB" transform="translate(238,748)"/>
<path d="M0 0 C0.33 1.32 0.66 2.64 1 4 C1.99 3.01 2.98 2.02 4 1 C4.639 1.742 5.279 2.485 5.938 3.25 C8.227 5.572 10.35 6.686 13.375 7.875 C18.358 9.895 21.501 12.994 25 17 C24.835 17.495 24.835 17.495 24 20 C23.374 19.362 22.747 18.724 22.102 18.066 C21.284 17.24 20.467 16.414 19.625 15.562 C19.219 15.151 19.219 15.151 17.164 13.066 C14.057 10.1 12.094 9.735 7.875 9.5 C6.965 9.428 6.055 9.356 5.117 9.281 C0.227 10.409 -2.483 13.542 -6 17 C-6.891 17.871 -7.782 18.741 -8.7 19.638 C-11.656 22.548 -14.579 25.491 -17.5 28.438 C-18.523 29.466 -19.547 30.494 -20.57 31.521 C-23.05 34.012 -25.526 36.505 -28 39 C-28.66 38.34 -29.32 37.68 -30 37 C-29.34 36.34 -28.68 35.68 -28 35 C-28 34.01 -28 33.02 -28 32 C-26.164 29.977 -26.164 29.977 -23.625 27.625 C-16.504 20.727 -10.719 12.941 -5.062 4.812 C-3 2 -3 2 0 0 Z " fill="#2EBCEF" transform="translate(684,642)"/>
<path d="M0 0 C0.99 0.33 1.98 0.66 3 1 C5.171 1.108 7.345 1.156 9.519 1.174 C10.177 1.18 10.834 1.187 11.511 1.194 C12.937 1.208 14.362 1.22 15.788 1.23 C18.045 1.246 20.302 1.269 22.559 1.295 C28.976 1.365 35.393 1.426 41.81 1.477 C45.737 1.509 49.663 1.55 53.589 1.597 C55.084 1.613 56.58 1.625 58.075 1.634 C60.168 1.646 62.259 1.67 64.351 1.697 C65.541 1.707 66.731 1.718 67.958 1.728 C70.865 1.988 72.545 2.48 75 4 C73.032 5.968 69.652 5.662 67 6 C69.31 6.33 71.62 6.66 74 7 C74 7.66 74 8.32 74 9 C72.083 8.855 70.167 8.709 68.25 8.562 C67.05 8.472 65.85 8.382 64.613 8.289 C62.463 8.117 60.314 7.93 58.168 7.711 C40.429 5.934 23.258 7.358 5.637 9.725 C3.069 9.993 0.58 10.049 -2 10 C-2 9.34 -2 8.68 -2 8 C1.215 6.393 4.436 6.943 8 7 C8 6.34 8 5.68 8 5 C7.092 5.082 6.185 5.165 5.25 5.25 C2 5 2 5 -0.375 3 C-0.643 2.67 -0.643 2.67 -2 1 C-1.34 0.67 -0.68 0.34 0 0 Z " fill="#3ABBE2" transform="translate(474,320)"/>
<path d="M0 0 C0.33 0 0.66 0 1 0 C1.001 0.826 1.003 1.652 1.004 2.503 C1.022 10.301 1.064 18.099 1.132 25.896 C1.166 29.905 1.191 33.913 1.196 37.922 C1.2 41.793 1.228 45.664 1.273 49.535 C1.286 51.009 1.291 52.483 1.286 53.957 C1.255 66.964 1.255 66.964 4.419 70.89 C7.843 73.689 9.396 74.126 13.72 74.158 C14.716 74.168 15.711 74.178 16.737 74.188 C17.833 74.194 18.93 74.199 20.059 74.205 C20.635 74.21 20.635 74.21 23.548 74.235 C27.368 74.267 31.188 74.292 35.008 74.316 C37.651 74.337 40.293 74.358 42.936 74.379 C49.19 74.429 55.445 74.474 61.699 74.517 C68.819 74.567 75.938 74.622 83.058 74.677 C97.705 74.791 112.353 74.898 127 75 C127 75.33 127 75.66 127 76 C93.01 76 59.02 76 24 76 C24.33 77.32 24.66 78.64 25 80 C24.649 79.907 24.649 79.907 22.875 79.438 C20 79 20 79 17.125 79.5 C13.522 80.076 10.573 79.643 7 79 C6.938 78.423 6.876 77.845 6.812 77.25 C6 75 6 75 3.5 73.062 C1 71 1 71 0.188 68.25 C0.126 67.507 0.064 66.765 0 66 C-0.66 66.165 -0.66 66.165 -4 67 C-5.125 63.25 -5.125 63.25 -4 61 C-3.01 61.33 -2.02 61.66 -1 62 C-0.67 41.54 -0.34 21.08 0 0 Z " fill="#6BAFA3" transform="translate(720,499)"/>
<path d="M0 0 C0.997 -0.001 1.994 -0.003 3.021 -0.004 C4.114 -0.001 5.206 0.003 6.332 0.007 C7.483 0.007 8.635 0.006 9.821 0.006 C13.636 0.007 17.45 0.015 21.265 0.023 C23.906 0.024 26.548 0.026 29.189 0.027 C35.436 0.03 41.683 0.038 47.931 0.048 C55.043 0.059 62.155 0.065 69.268 0.07 C83.898 0.08 98.529 0.098 113.16 0.12 C113.16 0.45 113.16 0.78 113.16 1.12 C112.737 1.124 112.737 1.124 110.598 1.145 C102.638 1.223 94.677 1.31 86.717 1.408 C82.624 1.458 78.531 1.504 74.439 1.542 C70.49 1.579 66.541 1.625 62.593 1.678 C61.085 1.697 59.578 1.712 58.07 1.724 C55.961 1.74 53.852 1.769 51.742 1.801 C51.142 1.808 51.142 1.808 48.102 1.842 C45.16 2.12 45.16 2.12 42.16 4.12 C39.128 4.351 39.128 4.351 35.66 4.308 C34.515 4.301 33.37 4.295 32.191 4.288 C29.16 4.12 29.16 4.12 26.16 3.12 C25.5 3.45 24.84 3.78 24.16 4.12 C22.493 4.167 20.826 4.158 19.16 4.12 C12.765 4.061 6.268 4.084 0.16 6.12 C-2.528 5.183 -2.528 5.183 -4.84 4.12 C-5.5 5.44 -6.16 6.76 -6.84 8.12 C-7.84 5.12 -7.84 5.12 -7.84 1.12 C-4.911 0.144 -3.049 -0.003 0 0 Z " fill="#4BB5CA" transform="translate(178.8404998779297,573.8797454833984)"/>
<path d="M0 0 C1.257 1.885 2.472 3.799 3.625 5.75 C5.335 8.319 7.224 10.164 9.586 12.145 C14.287 16.188 18.642 20.53 23 24.938 C23.775 25.717 24.549 26.496 25.348 27.299 C27.234 29.197 29.118 31.097 31 33 C30.34 33.66 29.68 34.32 29 35 C24.365 33.589 21.712 30.959 18.5 27.5 C12.512 21.262 5.975 16.085 -1 11 C-0.662 10.243 -0.325 9.487 0.023 8.707 C1.212 5.411 0.783 3.367 0 0 Z " fill="#32BBEA" transform="translate(636,357)"/>
<path d="M0 0 C0.826 2.892 1 4.887 1 8 C0.34 8 -0.32 8 -1 8 C-1 20.54 -1 33.08 -1 46 C-0.01 46.33 0.98 46.66 2 47 C1.505 47.165 1.505 47.165 -1 48 C-1 48.66 -1 49.32 -1 50 C-0.34 50.33 0.32 50.66 1 51 C1.66 51.99 2.32 52.98 3 54 C2.34 54 1.68 54 1 54 C1 55.32 1 56.64 1 58 C0.727 60.676 0.356 63.333 0 66 C-0.66 66 -1.32 66 -2 66 C-2.33 66.99 -2.66 67.98 -3 69 C-3.069 60.299 -3.123 51.598 -3.155 42.896 C-3.171 38.856 -3.192 34.816 -3.226 30.776 C-3.259 26.88 -3.277 22.983 -3.285 19.086 C-3.29 17.597 -3.301 16.108 -3.317 14.62 C-3.339 12.539 -3.342 10.458 -3.341 8.377 C-3.347 7.192 -3.354 6.006 -3.361 4.784 C-3.242 3.865 -3.123 2.947 -3 2 C-2.01 1.34 -1.02 0.68 0 0 Z " fill="#47B5CE" transform="translate(861,494)"/>
<path d="M0 0 C3.309 1.103 3.96 1.863 6.112 4.48 C10.24 9.343 14.692 13.818 19.215 18.312 C19.643 18.74 19.643 18.74 21.808 20.901 C24.515 23.603 27.226 26.302 29.938 29 C31.785 30.842 33.632 32.685 35.479 34.527 C39.983 39.021 44.49 43.512 49 48 C48.01 48.33 47.02 48.66 46 49 C44.994 48.048 43.995 47.088 43 46.125 C42.443 45.591 41.886 45.058 41.312 44.508 C40 43 40 43 40 41 C39.705 40.868 39.705 40.868 38.215 40.198 C35.925 38.959 34.407 37.667 32.564 35.839 C32.239 35.518 32.239 35.518 30.592 33.896 C29.901 33.203 29.209 32.511 28.496 31.797 C27.776 31.081 27.057 30.366 26.315 29.629 C24.796 28.115 23.279 26.599 21.764 25.08 C19.451 22.764 17.126 20.462 14.799 18.16 C13.322 16.686 11.846 15.21 10.371 13.734 C9.677 13.05 8.983 12.365 8.269 11.66 C4.661 8.018 1.99 4.818 0 0 Z " fill="#43B7D5" transform="translate(238,748)"/>
<path d="M0 0 C-1.53 3.559 -3.636 6.028 -6.312 8.812 C-7.072 9.623 -7.831 10.434 -8.613 11.27 C-11 13 -11 13 -13.793 12.762 C-14.521 12.51 -15.25 12.259 -16 12 C-12.455 7.273 -6.454 0 0 0 Z " fill="#2FBCEE" transform="translate(654,681)"/>
<path d="M0 0 C2 2 2 2 2 5 C1.68 5.113 1.68 5.113 0.062 5.688 C-2 7 -2 7 -2.562 9.312 C-2.707 10.199 -2.851 11.086 -3 12 C-4.562 14.812 -4.562 14.812 -6 17 C-7.98 16.67 -9.96 16.34 -12 16 C-11.299 15.361 -10.597 14.721 -9.875 14.062 C-5.835 10.046 -2.545 5.089 0 0 Z " fill="#31BCEC" transform="translate(559,306)"/>
<path d="M0 0 C5.785 -0.347 10.032 -0.348 15 3 C17.444 5.235 19.75 7.57 22 10 C21.67 10.99 21.34 11.98 21 13 C20.374 12.362 19.747 11.724 19.102 11.066 C18.284 10.24 17.467 9.414 16.625 8.562 C15.813 7.739 15.001 6.915 14.164 6.066 C11.052 3.094 9.073 2.814 4.875 2.438 C3.965 2.354 3.055 2.27 2.117 2.184 C1.419 2.123 0.72 2.062 0 2 C0 1.34 0 0.68 0 0 Z " fill="#45B8D2" transform="translate(687,649)"/>
<path d="M0 0 C6.411 5.271 12.186 11.091 18 17 C17.67 17.99 17.34 18.98 17 20 C14.913 17.941 12.831 15.878 10.75 13.812 C10.163 13.234 9.577 12.656 8.973 12.061 C5.759 8.865 2.651 5.694 0 2 C0 1.34 0 0.68 0 0 Z " fill="#3EB8DA" transform="translate(758,284)"/>
<path d="M0 0 C1.871 0.262 1.871 0.262 4 1 C5.16 2.707 5.16 2.707 6.062 4.812 C7.441 7.848 8.85 10.42 11 13 C8.245 12.62 7.18 12.193 5.25 10.125 C4 8 4 8 4 5 C2.68 5.33 1.36 5.66 0 6 C-1.125 2.25 -1.125 2.25 0 0 Z " fill="#32BCEA" transform="translate(716,560)"/>
<path d="M0 0 C1.279 3.836 1.026 7.198 0.938 11.211 C0.998 13.932 1.384 16.355 2 19 C1.01 18.67 0.02 18.34 -1 18 C-2.135 15.061 -2.164 12.126 -2.188 9 C-2.202 8.154 -2.216 7.309 -2.23 6.438 C-1.985 3.846 -1.306 2.23 0 0 Z " fill="#3ABBE1" transform="translate(240,309)"/>
<path d="M0 0 C2.125 -0.438 2.125 -0.438 5 0 C7.276 2.127 9.146 4.502 11 7 C6.662 7 6.255 6.791 3.25 4.062 C2.636 3.517 2.023 2.972 1.391 2.41 C0 1 0 1 0 0 Z " fill="#25BFFC" transform="translate(662,391)"/>
<path d="M0 0 C3.452 1.477 5.65 3.438 8.25 6.125 C8.956 6.849 9.663 7.574 10.391 8.32 C10.656 8.597 10.656 8.597 12 10 C11.01 10.33 10.02 10.66 9 11 C7.494 9.548 5.995 8.088 4.5 6.625 C3.665 5.813 2.829 5.001 1.969 4.164 C0 2 0 2 0 0 Z " fill="#43B6D3" transform="translate(312,397)"/>
<path d="M0 0 C4.723 1.491 4.723 1.491 6.125 4.062 C6.414 4.702 6.702 5.341 7 6 C7.99 6.33 8.98 6.66 10 7 C9.01 7.99 8.02 8.98 7 10 C6.402 9.051 5.804 8.103 5.188 7.125 C3 4 3 4 0 2 C0 1.34 0 0.68 0 0 Z " fill="#39BAE2" transform="translate(295,487)"/>
<path d="M0 0 C-1.583 4.274 -4.506 6.265 -8 9 C-8 6 -8 6 -6.758 4.395 C-6.488 4.133 -6.488 4.133 -5.125 2.812 C-4.591 2.283 -4.058 1.753 -3.508 1.207 C-2 0 -2 0 0 0 Z " fill="#43B7D4" transform="translate(654,681)"/>
<path d="M0 0 C3.438 1.528 6.19 3.502 9 6 C9 6.66 9 7.32 9 8 C6.643 7.825 5.303 7.3 3.621 5.633 C0 1.321 0 1.321 0 0 Z " fill="#38B9E2" transform="translate(165,567)"/>
<path d="M0 0 C0.99 0 1.98 0 3 0 C2.67 2.31 2.34 4.62 2 7 C1.01 6.67 0.02 6.34 -1 6 C-1.043 4.334 -1.041 2.666 -1 1 C-0.67 0.67 -0.34 0.34 0 0 Z " fill="#33BCE9" transform="translate(467,189)"/>
<path d="M0 0 C3.795 1.491 5.61 3.757 8 7 C7.01 7 6.02 7 5 7 C3.613 5.469 3.613 5.469 2.312 3.5 C1.876 2.85 1.439 2.201 0.988 1.531 C0.825 1.279 0.825 1.279 0 0 Z " fill="#37BDE6" transform="translate(763,716)"/>
</svg>
