<?xml version="1.0" encoding="UTF-8"?>
<!-- Generator: visioncortex VTracer 0.6.12 -->
<svg version="1.1" xmlns="http://www.w3.org/2000/svg" width="1024" height="1024">
<path d="M0 0 C337.92 0 675.84 0 1024 0 C1024 337.92 1024 675.84 1024 1024 C686.08 1024 348.16 1024 0 1024 C0 686.08 0 348.16 0 0 Z " fill="#FEFFFE" transform="translate(0,0)"/>
<path d="M0 0 C1.079 0.001 2.159 0.001 3.271 0.002 C20.594 0.042 37.232 0.902 54.25 4.375 C54.774 4.479 54.774 4.479 57.427 5.008 C81.25 9.9 104.429 17.641 126.25 28.375 C127.076 28.774 127.902 29.173 128.753 29.583 C153.169 41.455 175.176 57.078 195.121 75.438 C197.159 77.293 199.251 79.056 201.375 80.812 C202.324 81.658 203.273 82.504 204.25 83.375 C204.25 84.035 204.25 84.695 204.25 85.375 C205.24 85.705 206.23 86.035 207.25 86.375 C208.758 87.871 208.758 87.871 210.375 89.812 C212.925 92.834 215.54 95.747 218.25 98.625 C271.059 157.451 292.151 235.661 288.043 313.278 C286.298 336.77 281.021 360.165 273.25 382.375 C272.746 383.876 272.242 385.378 271.738 386.879 C262.6 413.434 248.925 437.876 232.25 460.375 C231.795 460.99 231.34 461.604 230.872 462.238 C223.653 471.904 215.644 480.723 207.25 489.375 C206.587 490.059 205.925 490.744 205.242 491.449 C197.309 499.609 189.35 507.503 180.25 514.375 C179.695 514.796 179.14 515.216 178.569 515.649 C174.18 518.963 169.732 522.188 165.25 525.375 C164.673 525.789 164.097 526.202 163.502 526.628 C104.864 568.374 27.44 584.936 -43.486 573.927 C-60.619 571.029 -77.348 567.114 -93.75 561.375 C-95.251 560.871 -96.753 560.367 -98.254 559.863 C-131.116 548.554 -161.801 530.449 -187.75 507.375 C-189.125 506.187 -190.5 505 -191.875 503.812 C-193.169 502.669 -194.46 501.523 -195.75 500.375 C-196.636 499.594 -197.521 498.813 -198.434 498.008 C-203.244 493.713 -207.815 489.415 -211.961 484.473 C-214.044 482.031 -216.241 479.715 -218.438 477.375 C-229.278 465.451 -238.35 452.096 -246.75 438.375 C-247.24 437.575 -247.73 436.774 -248.235 435.95 C-272.256 396.286 -287.731 348.385 -287.953 301.742 C-287.957 301.249 -287.957 301.249 -287.974 298.752 C-287.992 295.585 -287.998 292.417 -288 289.25 C-288.001 288.169 -288.001 287.088 -288.002 285.975 C-287.987 270.545 -287.645 255.572 -284.75 240.375 C-284.584 239.43 -284.417 238.486 -284.246 237.513 C-279.099 208.491 -269.63 180.381 -255.75 154.375 C-255.366 153.651 -254.982 152.926 -254.586 152.18 C-238.493 122.013 -216.831 93.632 -190.75 71.375 C-189.791 70.528 -188.832 69.681 -187.844 68.809 C-146.813 32.879 -94.441 10.31 -40.75 2.375 C-39.512 2.19 -38.275 2.004 -37 1.813 C-24.692 0.099 -12.41 -0.024 0 0 Z " fill="#001274" transform="translate(511.75,223.625)"/>
</svg>
