<?xml version="1.0" encoding="UTF-8"?>
<!-- Generator: visioncortex VTracer 0.6.12 -->
<svg version="1.1" xmlns="http://www.w3.org/2000/svg" width="1024" height="1024">
<path d="M0 0 C337.92 0 675.84 0 1024 0 C1024 337.92 1024 675.84 1024 1024 C686.08 1024 348.16 1024 0 1024 C0 686.08 0 348.16 0 0 Z " fill="#FEFEFE" transform="translate(0,0)"/>
<path d="M0 0 C3.438 0.062 3.438 0.062 7 1 C9.879 4.883 11.401 9.363 13.047 13.867 C13.191 14.254 13.191 14.254 13.918 16.21 C14.539 17.884 15.158 19.558 15.776 21.233 C17.459 25.799 19.16 30.358 20.859 34.918 C21.034 35.386 21.034 35.386 21.916 37.757 C25.21 46.594 28.597 55.393 32 64.188 C38.534 81.089 44.931 98.041 51.312 115 C62.528 144.801 73.886 174.546 85.337 204.257 C88.96 213.661 92.564 223.072 96.125 232.5 C96.516 233.529 96.908 234.558 97.311 235.619 C97.665 236.559 98.018 237.5 98.383 238.469 C98.696 239.298 99.01 240.128 99.333 240.982 C100 243 100 243 100 245 C100.919 244.996 101.838 244.991 102.784 244.987 C128.323 244.882 153.836 245.217 179.368 245.775 C184.519 245.887 189.67 245.994 194.821 246.102 C203.452 246.283 212.082 246.468 220.713 246.654 C230.593 246.868 240.474 247.077 250.355 247.285 C261.027 247.508 271.7 247.735 282.372 247.962 C285.384 248.026 288.395 248.09 291.406 248.153 C301.451 248.366 311.496 248.587 321.541 248.828 C326.476 248.946 331.41 249.047 336.345 249.134 C339.371 249.19 342.397 249.257 345.423 249.328 C346.814 249.358 348.205 249.383 349.596 249.402 C351.477 249.429 353.358 249.475 355.239 249.522 C356.286 249.542 357.334 249.562 358.413 249.583 C361 250 361 250 362.821 251.358 C364 253 364 253 364.625 255.75 C363.185 263.239 354.66 268.007 349.023 272.547 C345.81 275.154 342.651 277.818 339.5 280.5 C334.651 284.621 329.748 288.67 324.812 292.688 C321.119 295.724 317.477 298.82 313.834 301.916 C310.44 304.795 307.017 307.632 303.562 310.438 C299.316 313.893 295.147 317.427 291 321 C285.987 325.319 280.915 329.551 275.777 333.723 C272.656 336.282 269.575 338.886 266.5 341.5 C261.65 345.621 256.748 349.67 251.812 353.688 C248.682 356.261 245.588 358.876 242.5 361.5 C237.65 365.621 232.748 369.67 227.812 373.688 C224.682 376.261 221.588 378.876 218.5 381.5 C213.65 385.621 208.748 389.67 203.812 393.688 C200.682 396.261 197.588 398.876 194.5 401.5 C189.662 405.611 184.774 409.651 179.848 413.656 C175.937 416.875 172.081 420.159 168.238 423.459 C164.215 426.892 164.215 426.892 162 428 C163.402 436.065 165.549 443.893 167.773 451.759 C168.901 455.751 170.016 459.747 171.134 463.742 C171.369 464.58 171.603 465.418 171.845 466.282 C174.464 475.637 177.026 485.007 179.586 494.379 C180.06 496.114 180.535 497.85 181.009 499.585 C181.972 503.109 182.935 506.632 183.898 510.156 C191.47 537.87 199.064 565.577 206.826 593.239 C209.862 604.064 212.87 614.897 215.88 625.73 C217.14 630.265 218.401 634.8 219.662 639.336 C220.541 642.501 221.415 645.668 222.288 648.834 C223.439 653.003 224.618 657.162 225.813 661.318 C226.099 662.325 226.384 663.331 226.678 664.368 C227.216 666.264 227.762 668.156 228.317 670.046 C230.6 678.17 230.6 678.17 229 682 C225.72 684.187 224.8 684.438 221 684 C218.638 682.829 218.638 682.829 216.184 681.176 C215.265 680.566 214.347 679.957 213.401 679.329 C212.423 678.663 211.445 677.998 210.438 677.312 C208.349 675.92 206.261 674.528 204.172 673.137 C203.128 672.436 202.085 671.735 201.01 671.013 C196.764 668.173 192.477 665.398 188.188 662.625 C180.447 657.601 172.722 652.552 165 647.5 C151.252 638.506 137.485 629.543 123.688 620.625 C102.721 607.071 81.849 593.37 60.958 579.701 C58.18 577.884 55.403 576.067 52.625 574.25 C51.545 573.544 50.465 572.837 49.353 572.11 C44.39 568.864 39.424 565.623 34.449 562.395 C33.586 561.834 32.723 561.274 31.834 560.697 C30.182 559.626 28.529 558.557 26.875 557.491 C23.075 555.033 19.314 552.541 15.609 549.941 C14.923 549.465 14.237 548.989 13.53 548.498 C12.262 547.613 11.002 546.716 9.753 545.805 C7.317 544.112 5.569 543.013 2.562 542.945 C-1.116 544.459 -4.271 546.532 -7.562 548.75 C-9.098 549.765 -10.633 550.779 -12.168 551.793 C-12.965 552.323 -13.762 552.854 -14.583 553.4 C-17.696 555.461 -20.831 557.484 -23.968 559.508 C-33.549 565.696 -43.036 572.023 -52.514 578.368 C-59.815 583.252 -67.153 588.053 -74.632 592.659 C-79.596 595.722 -84.451 598.931 -89.292 602.184 C-96.096 606.751 -102.982 611.188 -109.869 615.626 C-123.946 624.7 -137.976 633.845 -152 643 C-178.424 660.249 -178.424 660.249 -185.485 664.771 C-189.684 667.468 -193.826 670.235 -197.949 673.047 C-198.982 673.742 -200.014 674.438 -201.078 675.154 C-203.115 676.527 -205.143 677.913 -207.16 679.314 C-208.091 679.938 -209.022 680.561 -209.98 681.203 C-210.804 681.767 -211.628 682.33 -212.477 682.911 C-215.744 684.321 -217.617 683.962 -221 683 C-223 681 -223 681 -223.322 677.63 C-223.164 671.838 -221.446 666.446 -219.844 660.914 C-219.51 659.73 -219.177 658.546 -218.833 657.326 C-218.11 654.765 -217.384 652.206 -216.651 649.648 C-215.479 645.558 -214.322 641.464 -213.168 637.369 C-211.969 633.117 -210.769 628.864 -209.564 624.613 C-205.645 610.781 -201.814 596.924 -198 583.062 C-197.342 580.674 -196.684 578.286 -196.026 575.898 C-185.823 538.867 -175.673 501.821 -165.557 464.766 C-164.901 462.364 -164.245 459.961 -163.588 457.559 C-162.684 454.251 -161.781 450.942 -160.879 447.633 C-160.615 446.668 -160.351 445.703 -160.08 444.709 C-158.657 439.487 -157.292 434.256 -156 429 C-162.198 423.257 -168.475 417.724 -175.051 412.414 C-178.414 409.661 -181.709 406.838 -185 404 C-190.016 399.678 -195.092 395.445 -200.23 391.27 C-206.108 386.453 -211.876 381.505 -217.666 376.584 C-224.124 371.097 -230.615 365.662 -237.188 360.312 C-240.88 357.276 -244.521 354.182 -248.164 351.086 C-251.581 348.188 -255.025 345.328 -258.5 342.5 C-263.105 338.752 -267.64 334.93 -272.164 331.086 C-276.46 327.441 -280.814 323.872 -285.184 320.316 C-288.338 317.722 -291.452 315.084 -294.562 312.438 C-298.331 309.233 -302.122 306.073 -306 303 C-310.453 299.471 -314.789 295.817 -319.115 292.135 C-322.525 289.237 -325.964 286.383 -329.438 283.562 C-350.981 266.019 -350.981 266.019 -358 259 C-357.75 255.562 -357.75 255.562 -357 252 C-353.297 249.531 -350.394 249.661 -346.102 249.605 C-345.296 249.587 -344.49 249.569 -343.66 249.55 C-340.982 249.492 -338.304 249.447 -335.625 249.402 C-333.743 249.364 -331.862 249.324 -329.98 249.284 C-325 249.179 -320.019 249.085 -315.038 248.994 C-307.174 248.848 -299.31 248.685 -291.446 248.524 C-289.514 248.484 -287.582 248.445 -285.65 248.407 C-275.09 248.196 -264.537 247.951 -253.984 247.508 C-234.131 246.687 -214.256 246.436 -194.39 246.07 C-189.651 245.983 -184.913 245.893 -180.174 245.8 C-151.446 245.236 -122.734 244.843 -94 245 C-93.852 244.226 -93.705 243.452 -93.552 242.655 C-92.979 239.898 -92.137 237.449 -91.129 234.82 C-90.929 234.296 -90.929 234.296 -89.917 231.64 C-89.47 230.48 -89.023 229.32 -88.562 228.125 C-88.082 226.87 -87.602 225.614 -87.123 224.358 C-86.037 221.519 -84.949 218.68 -83.859 215.842 C-81.809 210.505 -79.766 205.164 -77.723 199.824 C-74.619 191.714 -71.514 183.605 -68.406 175.496 C-68.024 174.498 -67.641 173.5 -67.247 172.472 C-65.311 167.419 -63.374 162.367 -61.435 157.315 C-53.628 136.967 -45.923 116.581 -38.236 96.187 C-30.776 76.393 -30.776 76.393 -27.766 68.492 C-27.314 67.307 -26.862 66.122 -26.397 64.9 C-25.563 62.712 -24.728 60.523 -23.894 58.334 C-21.339 51.607 -18.842 44.86 -16.371 38.102 C-16.056 37.24 -15.74 36.379 -15.415 35.491 C-13.86 31.241 -12.309 26.99 -10.768 22.735 C-10.201 21.181 -9.634 19.628 -9.066 18.074 C-8.941 17.725 -8.941 17.725 -8.307 15.96 C-3.874 3.874 -3.874 3.874 0 0 Z " fill="#9D0000" transform="translate(509,170)"/>
<path d="M0 0 C0 3 0 3 -1.531 4.605 C-2.181 5.128 -2.831 5.65 -3.5 6.188 C-4.15 6.717 -4.799 7.247 -5.469 7.793 C-5.974 8.191 -6.479 8.59 -7 9 C-6.191 4.207 -3.74 2.865 0 0 Z " fill="#F3D1CF" transform="translate(677,592)"/>
</svg>
