<?xml version="1.0" encoding="UTF-8"?>
<!-- Generator: visioncortex VTracer 0.6.12 -->
<svg version="1.1" xmlns="http://www.w3.org/2000/svg" width="1024" height="1024">
<path d="M0 0 C337.92 0 675.84 0 1024 0 C1024 337.92 1024 675.84 1024 1024 C686.08 1024 348.16 1024 0 1024 C0 686.08 0 348.16 0 0 Z " fill="#C1F2FE" transform="translate(0,0)"/>
<path d="M0 0 C1.368 -0 2.736 -0.002 4.104 -0.004 C6.96 -0.006 9.816 0.007 12.672 0.03 C16.325 0.058 19.977 0.055 23.63 0.042 C26.451 0.035 29.272 0.043 32.093 0.056 C34.092 0.062 36.091 0.058 38.09 0.054 C38.699 0.06 38.699 0.06 41.782 0.092 C42.851 0.097 43.92 0.103 45.022 0.108 C49.524 0.709 51.957 2.545 55.16 5.677 C57.396 9.239 57.847 12.511 58.251 16.607 C58.298 17.012 58.298 17.012 58.534 19.062 C58.842 21.763 59.126 24.467 59.41 27.172 C59.625 29.101 59.842 31.029 60.06 32.957 C60.643 38.159 61.207 43.363 61.766 48.568 C62.352 53.975 62.957 59.38 63.56 64.786 C64.547 73.649 65.524 82.514 66.493 91.379 C68.352 108.388 70.255 125.391 72.167 142.394 C72.756 147.638 73.341 152.883 73.921 158.128 C74.278 161.358 74.638 164.588 74.999 167.819 C75.164 169.307 75.329 170.796 75.492 172.286 C75.713 174.302 75.939 176.319 76.165 178.335 C76.289 179.46 76.414 180.585 76.542 181.744 C76.93 184.496 76.93 184.496 77.93 187.496 C86.464 175.958 94.936 164.378 103.321 152.73 C106.561 148.231 109.81 143.738 113.057 139.244 C115.756 135.508 118.452 131.771 121.145 128.031 C126.671 120.359 132.237 112.718 137.867 105.121 C143.264 97.834 148.492 90.443 153.666 82.997 C159.427 74.73 165.41 66.635 171.416 58.546 C174.108 54.901 176.746 51.216 179.379 47.527 C182.98 42.81 182.98 42.81 185.908 41.842 C192.176 41.026 195.705 42.255 200.992 45.559 C201.368 45.78 201.368 45.78 203.27 46.902 C204.927 47.88 206.578 48.869 208.224 49.866 C211.136 51.62 214.07 53.331 217.012 55.035 C222.017 57.935 227.014 60.846 231.995 63.787 C234.045 64.981 236.11 66.151 238.185 67.303 C239.248 67.899 240.311 68.495 241.406 69.109 C242.369 69.64 243.331 70.17 244.323 70.716 C247.208 72.686 248.98 74.606 250.93 77.496 C252.206 85.259 248.795 91.604 245.742 98.621 C245.195 99.908 244.648 101.195 244.103 102.482 C242.677 105.836 241.234 109.181 239.784 112.524 C238.963 114.42 238.144 116.317 237.327 118.215 C234.675 124.372 232.009 130.522 229.332 136.668 C225.752 144.89 222.211 153.128 218.68 161.371 C218.371 162.092 218.062 162.812 217.744 163.554 C212.21 176.471 206.719 189.405 201.23 202.341 C194.544 218.095 187.767 233.808 180.93 249.496 C181.318 249.329 181.318 249.329 183.286 248.484 C187.208 246.8 191.131 245.116 195.055 243.434 C195.433 243.271 195.433 243.271 197.348 242.45 C207.778 237.976 218.215 233.52 228.66 229.082 C249.684 220.147 270.7 211.199 291.643 202.076 C294.517 200.825 297.392 199.575 300.268 198.326 C307.731 195.082 315.193 191.836 322.621 188.511 C324.619 187.618 326.619 186.732 328.621 185.848 C330.929 184.827 333.232 183.793 335.528 182.743 C341.284 180.213 346.6 178.048 352.93 179.496 C359.778 183.262 362.835 190.666 366.492 197.309 C367.189 198.559 367.887 199.808 368.586 201.058 C370.011 203.612 371.428 206.17 372.84 208.731 C374.811 212.297 376.834 215.831 378.863 219.363 C380.053 221.469 381.242 223.576 382.43 225.684 C382.987 226.643 383.545 227.603 384.119 228.591 C387.233 234.213 389.352 239.016 387.93 245.496 C385.133 250.687 379.814 253.52 374.992 256.684 C369.333 260.469 363.777 264.28 358.43 268.496 C353.246 272.569 347.892 276.306 342.43 279.996 C335.834 284.454 329.481 289.069 323.215 293.98 C318.781 297.419 314.17 300.608 309.575 303.827 C304.351 307.488 299.16 311.193 293.992 314.934 C293.246 315.473 292.5 316.013 291.732 316.57 C290.22 317.664 288.708 318.76 287.196 319.855 C283.443 322.573 279.686 325.284 275.93 327.996 C271.3 331.339 266.671 334.683 262.043 338.027 C261.239 338.608 260.436 339.189 259.607 339.787 C258.081 340.89 256.555 341.993 255.029 343.096 C254.333 343.599 253.636 344.102 252.918 344.621 C252.315 345.057 251.712 345.493 251.091 345.941 C249.162 347.329 247.229 348.712 245.295 350.093 C244.664 350.543 244.034 350.993 243.385 351.457 C242.905 351.8 242.424 352.143 241.93 352.496 C262.406 355.22 282.901 357.675 303.433 359.945 C308.256 360.479 313.078 361.02 317.9 361.562 C318.724 361.655 319.548 361.748 320.397 361.843 C322.076 362.032 323.756 362.221 325.435 362.41 C336.605 363.667 347.775 364.919 358.948 366.151 C366.569 366.991 374.19 367.843 381.809 368.709 C385.816 369.164 389.824 369.613 393.834 370.047 C397.581 370.453 401.326 370.875 405.071 371.308 C406.44 371.464 407.81 371.614 409.18 371.758 C422.149 373.126 422.149 373.126 426.93 377.496 C430.886 383.761 430.364 390.396 430.328 397.621 C430.331 398.882 430.334 400.143 430.337 401.442 C430.339 404.102 430.335 406.76 430.321 409.42 C430.304 412.813 430.314 416.204 430.332 419.597 C430.345 422.855 430.336 426.113 430.328 429.371 C430.334 430.582 430.34 431.792 430.347 433.04 C430.289 439.947 430.168 445.579 425.598 451.107 C419.787 455.945 407.774 455.318 400.558 456.128 C399.254 456.278 397.95 456.428 396.606 456.583 C393.049 456.992 389.492 457.395 385.934 457.798 C382.168 458.225 378.403 458.658 374.638 459.09 C367.481 459.91 360.324 460.726 353.167 461.54 C342.786 462.721 332.405 463.908 322.024 465.096 C321.25 465.184 320.475 465.273 319.677 465.364 C318.126 465.542 316.575 465.719 315.023 465.897 C310.589 466.404 306.155 466.91 301.72 467.414 C281.779 469.683 261.851 472.054 241.93 474.496 C242.847 475.147 243.764 475.798 244.709 476.468 C251.607 481.365 258.444 486.337 265.242 491.371 C271.937 496.326 278.693 501.179 285.515 505.957 C291.696 510.299 297.769 514.782 303.837 519.281 C309.048 523.134 314.308 526.905 319.617 530.621 C325.132 534.482 330.562 538.433 335.93 542.496 C342.005 547.094 348.173 551.537 354.412 555.91 C361.98 561.218 369.474 566.63 376.946 572.072 C378.265 573.019 379.595 573.95 380.937 574.864 C385.445 577.953 387.428 580.147 388.93 585.496 C388.581 590.916 386.403 594.779 383.742 599.371 C383.309 600.135 382.875 600.899 382.429 601.686 C380.941 604.296 379.437 606.897 377.93 609.496 C377.353 610.493 376.777 611.49 376.183 612.517 C372.126 619.526 368.043 626.52 363.93 633.496 C363.381 634.437 362.832 635.378 362.266 636.347 C361.74 637.241 361.214 638.134 360.672 639.055 C360.206 639.849 359.741 640.644 359.261 641.463 C357.137 644.707 354.757 646.808 351.128 648.175 C341.436 649.592 328.104 641.248 319.431 637.361 C314.885 635.323 310.328 633.31 305.773 631.293 C304.853 630.885 303.934 630.476 302.986 630.056 C294.457 626.274 285.888 622.591 277.305 618.934 C264.842 613.617 252.409 608.233 239.992 602.809 C228.423 597.755 216.847 592.719 205.242 587.746 C204.158 587.281 203.073 586.816 201.955 586.337 C194.964 583.348 187.953 580.409 180.93 577.496 C181.178 578.065 181.178 578.065 182.432 580.941 C197.31 615.06 212.044 649.239 226.609 683.492 C226.98 684.364 227.351 685.235 227.732 686.133 C229.516 690.33 231.298 694.529 233.073 698.73 C236.207 706.14 239.372 713.531 242.648 720.879 C243.497 722.798 244.345 724.719 245.193 726.639 C245.96 728.361 246.744 730.075 247.53 731.788 C250.093 737.596 252.49 743.095 250.93 749.496 C247.859 754.417 243.976 756.999 238.93 759.621 C237.502 760.393 236.075 761.167 234.648 761.941 C233.888 762.35 233.127 762.759 232.344 763.181 C227.999 765.548 223.72 768.031 219.43 770.496 C217.646 771.512 215.862 772.528 214.078 773.543 C210.793 775.418 207.529 777.322 204.281 779.262 C203.564 779.683 202.847 780.105 202.107 780.539 C200.786 781.316 199.472 782.104 198.166 782.906 C193.908 785.386 190.814 786.348 185.93 785.496 C179.923 782.001 176.313 776.129 172.617 770.434 C171.477 768.721 170.334 767.01 169.188 765.301 C168.632 764.473 168.077 763.645 167.505 762.792 C165.441 759.784 163.249 756.926 160.992 754.059 C156.193 747.939 151.753 741.601 147.315 735.216 C141.818 727.312 136.195 719.504 130.539 711.714 C127.829 707.979 125.13 704.237 122.43 700.496 C121.346 698.996 120.263 697.496 119.18 695.996 C117.013 692.996 114.846 689.996 112.68 686.996 C112.143 686.254 111.607 685.511 111.054 684.746 C109.972 683.247 108.889 681.748 107.807 680.248 C105.089 676.484 102.369 672.721 99.645 668.961 C92.33 658.859 85.099 648.701 77.93 638.496 C76.354 648.14 75.151 657.806 74.082 667.517 C73.908 669.08 73.733 670.644 73.559 672.208 C73.186 675.547 72.815 678.887 72.446 682.227 C71.86 687.515 71.27 692.803 70.679 698.091 C69.001 713.117 67.329 728.144 65.661 743.172 C64.737 751.493 63.81 759.813 62.879 768.133 C62.292 773.383 61.709 778.633 61.13 783.883 C60.768 787.153 60.402 790.423 60.035 793.692 C59.866 795.2 59.699 796.709 59.534 798.218 C57.165 819.849 57.165 819.849 52.992 823.496 C48.718 826.288 45.903 826.62 40.901 826.597 C39.659 826.593 38.418 826.589 37.138 826.585 C35.781 826.575 34.424 826.563 33.066 826.551 C32.382 826.545 31.697 826.539 30.991 826.533 C27.366 826.502 23.741 826.463 20.116 826.419 C16.381 826.375 12.645 826.359 8.91 826.35 C6.029 826.337 3.15 826.302 0.27 826.262 C-1.107 826.246 -2.484 826.239 -3.86 826.241 C-15.952 826.242 -15.952 826.242 -19.837 823.45 C-24.633 817.107 -24.679 808.409 -25.503 800.72 C-25.632 799.56 -25.761 798.401 -25.894 797.206 C-26.318 793.371 -26.735 789.535 -27.152 785.699 C-27.45 782.991 -27.75 780.283 -28.049 777.575 C-28.76 771.147 -29.464 764.718 -30.167 758.29 C-31.024 750.446 -31.888 742.604 -32.752 734.762 C-32.906 733.361 -33.061 731.96 -33.215 730.559 C-33.445 728.469 -33.675 726.38 -33.905 724.291 C-34.36 720.158 -34.815 716.025 -35.27 711.892 C-37.043 695.772 -38.818 679.652 -40.634 663.537 C-40.847 661.646 -41.059 659.755 -41.27 657.864 C-41.554 655.315 -41.842 652.766 -42.132 650.218 C-42.213 649.483 -42.294 648.749 -42.378 647.992 C-42.749 644.76 -43.16 641.625 -44.07 638.496 C-44.786 639.514 -45.501 640.533 -46.238 641.582 C-53.229 651.518 -60.301 661.392 -67.429 671.23 C-69.605 674.234 -71.776 677.241 -73.947 680.248 C-75.572 682.499 -77.198 684.75 -78.824 687 C-80.98 689.985 -83.134 692.972 -85.285 695.961 C-90.812 703.634 -96.377 711.274 -102.008 718.871 C-107.406 726.16 -112.636 733.553 -117.811 741.002 C-122.455 747.666 -127.237 754.217 -132.077 760.738 C-136.115 766.181 -140.082 771.667 -143.964 777.222 C-148.79 784.069 -148.79 784.069 -153.07 785.496 C-160.389 786.604 -165.123 783.002 -171.195 779.246 C-173.334 777.959 -175.473 776.672 -177.613 775.387 C-178.151 775.061 -178.151 775.061 -180.873 773.412 C-186.528 770.024 -192.281 766.807 -198.03 763.581 C-203.531 760.464 -208.967 757.239 -214.07 753.496 C-214.629 753.107 -215.188 752.719 -215.763 752.318 C-217.988 749.217 -218.336 746.196 -218.07 742.496 C-216.863 738.363 -215.117 734.522 -213.332 730.609 C-213.082 730.04 -213.082 730.04 -211.814 727.16 C-210.765 724.777 -209.708 722.398 -208.644 720.022 C-206.689 715.641 -204.789 711.238 -202.892 706.832 C-201.048 702.551 -199.187 698.276 -197.326 694.001 C-195.832 690.567 -194.339 687.132 -192.847 683.697 C-190.843 679.083 -188.838 674.469 -186.833 669.855 C-183.116 661.3 -179.401 652.744 -175.695 644.184 C-175.384 643.464 -175.072 642.744 -174.751 642.003 C-168.652 627.905 -162.641 613.769 -156.651 599.624 C-156.307 598.813 -155.964 598.003 -155.61 597.168 C-154.975 595.669 -154.341 594.17 -153.707 592.67 C-151.553 587.586 -149.327 582.536 -147.07 577.496 C-150.905 579.157 -154.74 580.818 -158.575 582.48 C-159.95 583.075 -161.324 583.671 -162.699 584.266 C-169.559 587.237 -176.418 590.209 -183.27 593.199 C-193.136 597.505 -203.024 601.755 -212.945 605.934 C-221.478 609.528 -229.977 613.189 -238.445 616.934 C-251.3 622.615 -264.204 628.177 -277.139 633.675 C-279.176 634.541 -281.212 635.408 -283.249 636.276 C-286.808 637.791 -290.37 639.301 -293.933 640.806 C-295.305 641.386 -296.676 641.968 -298.046 642.551 C-299.957 643.364 -301.871 644.171 -303.785 644.977 C-304.879 645.44 -305.974 645.903 -307.101 646.38 C-311.052 647.865 -313.896 648.716 -318.07 647.934 C-325.294 644.472 -328.869 636.043 -332.695 629.371 C-333.304 628.319 -333.913 627.267 -334.54 626.182 C-339.837 616.991 -344.956 607.707 -350.021 598.386 C-350.914 596.777 -351.86 595.197 -352.816 593.625 C-354.476 590.807 -354.939 588.77 -355.07 585.496 C-353.123 579.356 -350.524 576.721 -345.258 573.184 C-344.924 572.949 -344.924 572.949 -343.234 571.763 C-341.853 570.795 -340.468 569.834 -339.078 568.879 C-336.674 567.223 -334.301 565.526 -331.93 563.822 C-330.218 562.593 -328.502 561.37 -326.785 560.148 C-320.295 555.522 -313.844 550.84 -307.385 546.169 C-304.361 543.983 -301.337 541.799 -298.312 539.615 C-296.814 538.533 -295.317 537.452 -293.819 536.37 C-290.083 533.671 -286.346 530.974 -282.605 528.281 C-274.872 522.711 -267.169 517.103 -259.508 511.434 C-252.876 506.529 -246.188 501.717 -239.436 496.98 C-231.986 491.75 -224.615 486.412 -217.248 481.067 C-215.314 479.672 -213.375 478.284 -211.434 476.898 C-210.804 476.448 -210.174 475.998 -209.525 475.535 C-209.285 475.363 -209.285 475.363 -208.07 474.496 C-228.713 471.965 -249.363 469.519 -270.027 467.171 C-274.527 466.66 -279.026 466.146 -283.526 465.631 C-285.087 465.453 -286.649 465.274 -288.211 465.096 C-288.6 465.051 -288.6 465.051 -290.572 464.825 C-300.987 463.635 -311.402 462.447 -321.817 461.263 C-328.935 460.454 -336.053 459.642 -343.17 458.826 C-346.908 458.398 -350.646 457.971 -354.385 457.548 C-358.528 457.08 -362.67 456.605 -366.812 456.128 C-368.028 455.992 -369.244 455.856 -370.496 455.716 C-389.165 453.55 -389.165 453.55 -394.07 448.496 C-396.2 445.131 -396.333 442.389 -396.361 438.446 C-396.374 437.224 -396.386 436.003 -396.4 434.744 C-396.401 434.086 -396.401 434.086 -396.406 430.754 C-396.413 429.384 -396.419 428.014 -396.426 426.644 C-396.438 423.774 -396.442 420.905 -396.441 418.035 C-396.441 414.367 -396.468 410.7 -396.502 407.033 C-396.525 404.204 -396.529 401.374 -396.528 398.545 C-396.531 396.539 -396.553 394.532 -396.575 392.526 C-396.517 380.998 -396.517 380.998 -392.07 376.496 C-388.057 373.611 -384.727 372.929 -379.846 372.383 C-379.129 372.299 -378.412 372.216 -377.673 372.13 C-375.279 371.854 -372.882 371.595 -370.486 371.335 C-368.766 371.141 -367.046 370.945 -365.326 370.748 C-360.66 370.217 -355.992 369.7 -351.325 369.186 C-346.442 368.646 -341.56 368.091 -336.679 367.538 C-327.433 366.492 -318.186 365.458 -308.938 364.429 C-292.367 362.584 -275.798 360.717 -259.23 358.849 C-253.413 358.193 -247.596 357.542 -241.778 356.895 C-238.165 356.493 -234.552 356.088 -230.938 355.682 C-229.26 355.495 -227.58 355.308 -225.901 355.122 C-223.614 354.87 -221.328 354.613 -219.041 354.355 C-217.76 354.213 -216.479 354.07 -215.159 353.923 C-212.07 353.496 -212.07 353.496 -209.07 352.496 C-219.842 344.165 -230.738 336.046 -241.809 328.117 C-245.547 325.438 -249.278 322.749 -253.008 320.059 C-253.747 319.526 -254.486 318.993 -255.248 318.444 C-260.737 314.478 -266.189 310.462 -271.633 306.434 C-278.27 301.525 -284.963 296.71 -291.72 291.969 C-297.702 287.769 -303.631 283.497 -309.551 279.211 C-314.046 275.956 -318.551 272.716 -323.07 269.496 C-328.601 265.552 -334.121 261.592 -339.633 257.621 C-340.014 257.347 -340.014 257.347 -341.943 255.961 C-353.954 247.298 -353.954 247.298 -355.07 242.496 C-354.883 235.401 -351.451 230.204 -347.945 224.184 C-347.327 223.104 -346.708 222.025 -346.07 220.913 C-344.755 218.622 -343.436 216.333 -342.112 214.046 C-340.39 211.064 -338.701 208.064 -337.024 205.056 C-336.026 203.268 -335.022 201.483 -334.016 199.698 C-332.744 197.441 -331.479 195.179 -330.222 192.913 C-324.247 182.421 -324.247 182.421 -319.07 179.496 C-311.534 177.745 -304.97 181.236 -298.258 184.309 C-296.429 185.119 -294.6 185.929 -292.77 186.738 C-290.719 187.646 -288.673 188.561 -286.625 189.476 C-278.803 192.959 -270.925 196.317 -263.06 199.7 C-258.29 201.754 -253.524 203.814 -248.758 205.875 C-247.834 206.274 -246.911 206.673 -245.959 207.085 C-231.454 213.356 -216.954 219.64 -202.458 225.932 C-199.287 227.308 -196.116 228.683 -192.945 230.059 C-192.331 230.325 -191.717 230.591 -191.085 230.866 C-180.296 235.544 -169.49 240.184 -158.675 244.803 C-158.124 245.039 -158.124 245.039 -155.336 246.23 C-154.364 246.645 -153.393 247.06 -152.392 247.487 C-150.935 248.12 -149.491 248.786 -148.07 249.496 C-149.722 244.227 -151.811 239.198 -153.965 234.121 C-154.349 233.212 -154.732 232.303 -155.127 231.366 C-156.377 228.409 -157.63 225.452 -158.883 222.496 C-159.75 220.446 -160.617 218.396 -161.485 216.346 C-167.286 202.645 -173.158 188.977 -179.098 175.336 C-182.617 167.253 -186.082 159.146 -189.548 151.04 C-192.411 144.351 -195.292 137.67 -198.195 130.998 C-200.645 125.365 -203.081 119.726 -205.514 114.086 C-207.034 110.58 -208.573 107.083 -210.113 103.586 C-211.037 101.452 -211.961 99.318 -212.883 97.184 C-213.31 96.23 -213.736 95.276 -214.176 94.294 C-216.548 88.743 -218.422 83.557 -217.07 77.496 C-213.789 72.126 -209.564 69.712 -204.07 66.871 C-202.46 66.008 -200.851 65.143 -199.242 64.277 C-198.4 63.827 -197.557 63.378 -196.689 62.914 C-192.189 60.477 -187.758 57.92 -183.32 55.371 C-182.437 54.867 -181.553 54.363 -180.642 53.844 C-176.685 51.586 -172.741 49.311 -168.84 46.957 C-168.206 46.579 -167.572 46.202 -166.919 45.813 C-165.267 44.826 -163.623 43.826 -161.98 42.824 C-158.607 41.285 -156.735 40.942 -153.07 41.496 C-147.789 44.205 -144.819 47.974 -141.445 52.684 C-140.931 53.386 -140.417 54.088 -139.887 54.811 C-138.268 57.03 -136.666 59.261 -135.07 61.496 C-134.567 62.201 -134.063 62.905 -133.544 63.631 C-130.53 67.859 -127.543 72.105 -124.566 76.359 C-113.572 92.066 -102.41 107.645 -91.008 123.059 C-86.097 129.698 -81.281 136.395 -76.537 143.155 C-71.348 150.543 -66.056 157.854 -60.76 165.164 C-57.798 169.252 -54.84 173.343 -51.883 177.434 C-51.33 178.197 -50.777 178.961 -50.207 179.748 C-49.694 180.458 -49.181 181.167 -48.652 181.898 C-48.201 182.522 -47.75 183.146 -47.284 183.789 C-46.183 185.337 -45.124 186.915 -44.07 188.496 C-42.796 177.544 -41.523 166.591 -40.252 155.639 C-39.63 150.28 -39.008 144.921 -38.385 139.562 C-35.787 117.226 -33.203 94.89 -30.753 72.537 C-30.445 69.725 -30.135 66.912 -29.825 64.1 C-29.625 62.281 -29.425 60.462 -29.224 58.643 C-29.127 57.761 -29.03 56.879 -28.93 55.97 C-28.36 50.785 -27.799 45.599 -27.245 40.413 C-26.9 37.202 -26.546 33.992 -26.191 30.783 C-26.03 29.313 -25.873 27.842 -25.719 26.371 C-23.678 6.847 -23.678 6.847 -18.262 1.965 C-12.593 -0.645 -6.099 -0.053 0 0 Z " fill="#271B1B" transform="translate(495.0703125,98.50390625)"/>
<path d="M0 0 C1.002 0.353 2.003 0.706 3.035 1.07 C37.592 14.495 68.743 38.488 90.741 68.306 C91.963 69.95 93.216 71.565 94.477 73.18 C112.06 96.155 122.1 123.949 128 152 C128.179 152.844 128.359 153.688 128.543 154.558 C136.744 195.163 130.009 240.022 112 277 C111.599 277.83 111.198 278.66 110.784 279.515 C105.448 290.419 99.411 300.391 92 310 C91.655 310.451 91.655 310.451 89.91 312.73 C78.45 327.367 65.624 340.589 50.725 351.702 C49.113 352.915 47.53 354.165 45.949 355.418 C6.369 385.633 -47.173 397.325 -96.098 391.394 C-128.715 386.97 -160.363 375.486 -187 356 C-187.56 355.594 -188.12 355.189 -188.696 354.771 C-196.417 349.133 -203.611 343.016 -210.521 336.412 C-211.502 335.476 -212.488 334.545 -213.479 333.619 C-227.642 320.381 -238.398 304.758 -248 288 C-248.402 287.31 -248.804 286.619 -249.218 285.908 C-274.766 241.702 -279.963 186.96 -267 138 C-257.341 103.81 -240.537 74.622 -216 49 C-215.528 48.501 -215.057 48.002 -214.571 47.488 C-182.664 13.864 -137.209 -8.121 -91 -12 C-89.915 -12.108 -88.829 -12.217 -87.711 -12.328 C-57.712 -15.049 -28.284 -9.984 0 0 Z " fill="#FFC635" transform="translate(583,322)"/>
<path d="M0 0 C13.94 0.636 27.761 2.391 41.61 4.032 C45.085 4.442 48.561 4.849 52.036 5.257 C57.876 5.942 63.716 6.629 69.556 7.319 C76.242 8.109 82.928 8.895 89.614 9.679 C96.815 10.524 104.015 11.37 111.215 12.218 C113.25 12.457 115.286 12.696 117.322 12.935 C133.564 14.845 149.788 16.85 166 19 C166 30.88 166 42.76 166 55 C126.592 59.95 87.17 64.738 47.707 69.226 C44.747 69.563 41.788 69.901 38.829 70.239 C34.15 70.773 29.472 71.304 24.793 71.833 C23.063 72.028 21.333 72.225 19.603 72.422 C17.231 72.692 14.859 72.959 12.487 73.225 C11.797 73.304 11.107 73.384 10.395 73.465 C6.912 73.851 3.505 74.084 0 74 C0.146 71.958 0.292 69.917 0.438 67.875 C0.483 67.23 0.483 67.23 0.711 63.969 C0.889 61.53 1.078 59.092 1.289 56.656 C2.647 40.359 2.184 24.417 0.184 8.2 C-0.045 5.462 -0.011 2.746 0 0 Z " fill="#FEC635" transform="translate(735,475)"/>
<path d="M0 0 C-0.061 0.596 -0.121 1.192 -0.184 1.806 C-2.59 26.11 -2.326 49.7 0 74 C-13.642 73.276 -27.183 71.561 -40.746 69.98 C-43.365 69.677 -45.983 69.375 -48.602 69.072 C-54.085 68.438 -59.568 67.801 -65.05 67.163 C-70.611 66.516 -76.172 65.871 -81.734 65.228 C-109.844 61.981 -137.949 58.733 -166 55 C-166 43.12 -166 31.24 -166 19 C-137.866 15.255 -109.678 12.037 -81.48 8.816 C-73.768 7.934 -66.057 7.05 -58.346 6.166 C-52.35 5.478 -46.355 4.791 -40.36 4.106 C-39.811 4.043 -39.811 4.043 -37.036 3.726 C-34.92 3.484 -32.804 3.242 -30.688 3.001 C-26.067 2.472 -21.447 1.937 -16.83 1.376 C-16.045 1.281 -15.261 1.186 -14.452 1.089 C-12.407 0.84 -10.363 0.588 -8.318 0.336 C-5.51 0.052 -2.818 -0.07 0 0 Z " fill="#FEC635" transform="translate(289,475)"/>
<path d="M0 0 C11.88 0 23.76 0 36 0 C38.267 17.034 40.333 34.084 42.3 51.155 C42.625 53.973 42.951 56.791 43.277 59.61 C44.046 66.261 44.814 72.912 45.58 79.563 C46.365 86.379 47.154 93.195 47.944 100.011 C48.628 105.92 49.311 111.829 49.992 117.738 C50.397 121.243 50.801 124.748 51.208 128.253 C51.661 132.154 52.109 136.055 52.557 139.956 C52.689 141.088 52.821 142.221 52.957 143.388 C53.817 150.915 54.468 158.443 55 166 C54.388 165.933 53.776 165.867 53.146 165.798 C28.989 163.199 5.143 163.375 -19 166 C-18.407 156.724 -17.565 147.511 -16.469 138.281 C-16.235 136.282 -16.002 134.283 -15.769 132.284 C-15.435 129.427 -15.098 126.57 -14.761 123.713 C-14.319 119.965 -13.881 116.217 -13.443 112.469 C-13.354 111.702 -13.264 110.936 -13.172 110.147 C-12.988 108.573 -12.804 107 -12.62 105.427 C-12.337 103.009 -12.054 100.591 -11.771 98.174 C-10.438 86.788 -9.122 75.4 -7.817 64.011 C-7.506 61.3 -7.195 58.589 -6.884 55.878 C-5.217 41.358 -5.217 41.358 -4.466 34.778 C-3.995 30.661 -3.523 26.544 -3.049 22.427 C-2.875 20.909 -2.702 19.391 -2.529 17.873 C-2.292 15.793 -2.053 13.713 -1.813 11.633 C-1.746 11.05 -1.746 11.05 -1.408 8.098 C-1.05 5.382 -0.537 2.687 0 0 Z " fill="#FEC635" transform="translate(494,123)"/>
<path d="M0 0 C0.295 0.03 0.295 0.03 1.791 0.184 C26.066 2.605 49.735 2.46 74 0 C73.394 7.713 72.664 15.399 71.772 23.085 C71.713 23.604 71.713 23.604 71.412 26.23 C71.021 29.637 70.628 33.043 70.234 36.449 C69.956 38.867 69.678 41.285 69.4 43.704 C68.816 48.78 68.231 53.856 67.645 58.932 C66.909 65.307 66.176 71.683 65.443 78.058 C62.073 107.387 58.612 136.7 55 166 C43.12 166 31.24 166 19 166 C16.921 150.329 14.998 134.653 13.223 118.945 C12.968 116.703 12.713 114.461 12.457 112.219 C11.791 106.369 11.128 100.52 10.464 94.67 C9.41 85.371 8.354 76.072 7.296 66.774 C7.04 64.521 6.783 62.267 6.527 60.014 C5.295 49.173 4.055 38.333 2.73 27.503 C2.634 26.715 2.537 25.928 2.438 25.116 C2.002 21.566 1.562 18.016 1.114 14.468 C0.964 13.27 0.815 12.073 0.662 10.839 C0.597 10.33 0.597 10.33 0.271 7.754 C0.014 5.147 -0.051 2.617 0 0 Z " fill="#FFC635" transform="translate(475,735)"/>
<path d="M0 0 C4.405 1.649 7.749 3.947 11.438 6.812 C25.165 17.126 40.042 25.663 55.919 32.198 C56.312 32.362 56.312 32.362 58.301 33.195 C58.993 33.474 59.686 33.753 60.4 34.04 C62 35 62 35 63 38 C61.516 40.609 61.516 40.609 59.25 43.75 C59.046 44.036 59.046 44.036 58.013 45.482 C56.687 47.33 55.345 49.166 54 51 C53.785 51.294 53.785 51.294 52.699 52.785 C50.458 55.859 48.207 58.926 45.949 61.988 C42.798 66.268 39.676 70.568 36.562 74.875 C36.015 75.633 35.467 76.39 34.903 77.171 C31.763 81.525 28.658 85.901 25.579 90.298 C20.017 98.241 14.271 106.024 8.431 113.765 C3.614 120.157 -1.068 126.63 -5.693 133.162 C-9.882 139.053 -14.134 144.9 -18.377 150.753 C-19.984 152.977 -21.577 155.21 -23.168 157.445 C-24.153 158.818 -25.139 160.19 -26.125 161.562 C-26.574 162.2 -27.023 162.837 -27.486 163.494 C-30.66 167.887 -30.66 167.887 -34 169 C-36.556 167.908 -36.556 167.908 -39.586 166.211 C-40.682 165.599 -41.777 164.986 -42.906 164.355 C-44.051 163.702 -45.196 163.048 -46.375 162.375 C-47.512 161.745 -48.649 161.114 -49.82 160.465 C-55.256 157.396 -59.7 154.585 -64 150 C-61.115 143.308 -58.229 136.615 -55.343 129.923 C-54.321 127.554 -53.299 125.184 -52.277 122.815 C-47.137 110.894 -41.995 98.974 -36.818 87.069 C-31.182 74.106 -25.617 61.114 -20.076 48.11 C-19.211 46.082 -18.346 44.053 -17.481 42.025 C-11.527 28.068 -5.706 14.061 0 0 Z " fill="#FEC635" transform="translate(368,687)"/>
<path d="M0 0 C2.371 2.148 3.659 4.044 4.903 6.982 C5.25 7.79 5.597 8.599 5.954 9.432 C6.325 10.317 6.696 11.202 7.078 12.113 C7.478 13.05 7.877 13.987 8.289 14.952 C9.616 18.069 10.933 21.191 12.25 24.312 C13.18 26.502 14.111 28.692 15.042 30.881 C17.014 35.518 18.982 40.156 20.946 44.796 C23.992 51.986 27.053 59.169 30.117 66.352 C38.194 85.286 46.261 104.225 54.269 123.189 C60.442 137.799 60.442 137.799 63.156 143.917 C65.039 148.375 65.039 148.375 64.875 151.004 C63.601 153.91 61.808 154.625 59.047 156.129 C58.035 156.689 57.023 157.249 55.98 157.826 C54.914 158.399 53.848 158.972 52.75 159.562 C50.661 160.709 48.573 161.856 46.484 163.004 C45.553 163.507 44.622 164.011 43.663 164.53 C41.858 165.526 40.085 166.582 38.345 167.687 C36 169 36 169 33 169 C31.072 166.583 29.343 164.187 27.625 161.625 C26.544 160.053 25.462 158.481 24.379 156.91 C23.821 156.096 23.263 155.281 22.688 154.442 C20.037 150.607 17.302 146.835 14.562 143.062 C13.47 141.553 12.378 140.044 11.285 138.535 C10.743 137.786 10.2 137.038 9.641 136.266 C6.382 131.765 3.13 127.258 -0.123 122.752 C-2.841 118.988 -5.561 115.225 -8.285 111.465 C-13.566 104.173 -18.819 96.864 -24 89.5 C-31.468 78.889 -39.03 68.345 -46.758 57.922 C-47.383 57.079 -48.007 56.235 -48.651 55.367 C-49.846 53.757 -51.043 52.149 -52.244 50.543 C-55.743 45.832 -58.974 41.029 -62 36 C-60.866 35.505 -59.731 35.01 -58.562 34.5 C-56.708 33.668 -54.854 32.835 -53 32 C-52.404 31.737 -51.809 31.474 -51.195 31.203 C-35.357 24.178 -20.813 15.454 -7 5 C-5.608 3.995 -4.212 2.994 -2.812 2 C-2.348 1.67 -2.348 1.67 0 0 Z " fill="#FFC635" transform="translate(654,687)"/>
<path d="M0 0 C6.174 0.868 11.126 4.196 16.431 7.264 C18.25 8.313 20.082 9.339 21.914 10.365 C23.074 11.03 24.233 11.696 25.391 12.363 C25.917 12.664 25.917 12.664 28.579 14.185 C31 16 31 16 31.738 17.862 C32.051 20.416 31.62 21.675 30.607 24.03 C30.275 24.819 29.942 25.607 29.599 26.42 C29.226 27.273 28.853 28.126 28.469 29.004 C28.278 29.453 28.278 29.453 27.31 31.726 C26.05 34.676 24.775 37.619 23.5 40.562 C22.624 42.607 21.749 44.651 20.875 46.697 C18.673 51.842 16.459 56.981 14.242 62.12 C12.414 66.36 10.597 70.606 8.781 74.852 C6.603 79.944 4.422 85.034 2.236 90.123 C-1.036 97.738 -4.278 105.364 -7.5 113 C-11.623 122.764 -15.766 132.52 -19.93 142.266 C-20.594 143.82 -21.256 145.374 -21.918 146.928 C-28.34 162.01 -28.34 162.01 -32 169 C-35.89 166.758 -39.455 164.232 -43.062 161.562 C-56.031 152.18 -69.798 144.171 -84.398 137.621 C-87.645 136.16 -90.828 134.616 -94 133 C-92.396 128.151 -89.647 124.407 -86.688 120.312 C-86.422 119.941 -86.422 119.941 -85.08 118.062 C-83.392 115.704 -81.697 113.351 -80 111 C-78.924 109.505 -77.849 108.01 -76.773 106.516 C-74.067 102.76 -71.353 99.01 -68.637 95.262 C-67.015 93.021 -65.397 90.776 -63.781 88.531 C-58.169 80.738 -52.52 72.974 -46.812 65.25 C-41.997 58.733 -37.241 52.179 -32.547 45.574 C-29.615 41.451 -26.651 37.35 -23.688 33.25 C-23.146 32.501 -22.605 31.751 -22.047 30.979 C-19.175 27.005 -16.299 23.033 -13.422 19.062 C-12.838 18.257 -12.255 17.451 -11.654 16.62 C-10.541 15.084 -9.428 13.548 -8.313 12.013 C-5.454 8.062 -2.674 4.079 0 0 Z " fill="#FFC635" transform="translate(687,168)"/>
<path d="M0 0 C1.654 2.481 2.667 4.454 3.742 7.184 C10.771 24.574 19.555 40.343 31.343 54.978 C35 59.593 35 59.593 35 64 C34.008 64.421 33.016 64.841 31.995 65.275 C-38.011 94.978 -38.011 94.978 -65 106.938 C-75.161 111.439 -85.335 115.903 -95.562 120.25 C-96.597 120.692 -97.631 121.134 -98.697 121.59 C-104.398 123.998 -110.102 126.125 -116 128 C-117.897 124.688 -119.792 121.375 -121.688 118.062 C-122.218 117.136 -122.748 116.21 -123.295 115.256 C-124.353 113.405 -125.407 111.552 -126.455 109.696 C-127.468 107.928 -128.51 106.175 -129.581 104.441 C-129.818 104.048 -129.818 104.048 -131.02 102.059 C-131.45 101.37 -131.88 100.68 -132.323 99.97 C-133 98 -133 98 -132.343 95.92 C-130.893 93.847 -129.567 92.671 -127.5 91.223 C-126.787 90.716 -126.074 90.209 -125.34 89.688 C-124.568 89.151 -123.796 88.615 -123 88.062 C-121.354 86.897 -119.708 85.732 -118.062 84.566 C-117.219 83.974 -116.376 83.381 -115.508 82.77 C-111.648 80.046 -107.825 77.272 -104 74.5 C-102.5 73.416 -101 72.333 -99.5 71.25 C-98.757 70.714 -98.015 70.178 -97.25 69.625 C-83 59.333 -68.75 49.042 -54.5 38.75 C-53.757 38.214 -53.014 37.677 -52.249 37.124 C-50.752 36.043 -49.256 34.962 -47.759 33.882 C-43.958 31.137 -40.158 28.392 -36.359 25.645 C-31.909 22.426 -27.456 19.211 -23 16 C-22.339 15.524 -21.678 15.047 -20.998 14.557 C-14.082 9.577 -7.144 4.65 0 0 Z " fill="#FEC635" transform="translate(301,592)"/>
<path d="M0 0 C1.95 2.438 3.7 4.853 5.438 7.438 C6.522 9.012 7.607 10.586 8.691 12.16 C9.243 12.969 9.795 13.777 10.364 14.61 C12.836 18.221 15.352 21.8 17.875 25.375 C18.363 26.068 18.85 26.76 19.353 27.474 C23.791 33.754 28.352 39.941 32.927 46.122 C37.164 51.85 41.328 57.624 45.457 63.43 C52.934 73.942 60.521 84.375 68.188 94.75 C73.451 101.875 78.645 109.044 83.771 116.269 C86.048 119.476 88.338 122.675 90.625 125.875 C91.471 127.06 92.318 128.245 93.164 129.43 C93.77 130.278 94.376 131.126 95 132 C92.958 134.042 91.61 134.732 88.992 135.848 C88.585 136.024 88.585 136.024 86.526 136.918 C85.651 137.296 84.776 137.673 83.875 138.062 C66.264 145.846 49.512 155.523 34.637 167.82 C33 169 33 169 31 169 C30.777 168.458 30.777 168.458 29.646 165.712 C20.831 144.327 11.907 123.005 2.655 101.805 C-0.424 94.736 -3.462 87.649 -6.5 80.562 C-6.813 79.832 -7.127 79.101 -7.449 78.348 C-12.564 66.415 -17.613 54.454 -22.613 42.473 C-26.028 34.294 -29.495 26.14 -33 18 C-27.554 13.448 -21.555 10.197 -15.375 6.75 C-14.803 6.425 -14.803 6.425 -11.906 4.781 C-11.358 4.474 -11.358 4.474 -8.586 2.922 C-7.586 2.361 -6.586 1.8 -5.556 1.222 C-3 0 -3 0 0 0 Z " fill="#FEC635" transform="translate(337,168)"/>
<path d="M0 0 C9.643 5.764 18.533 12.487 27.539 19.18 C31.358 22.005 35.208 24.786 39.062 27.562 C39.801 28.095 40.54 28.628 41.301 29.177 C43.534 30.785 45.767 32.393 48 34 C57.224 40.639 66.427 47.302 75.562 54.062 C82.198 58.97 88.891 63.783 95.646 68.525 C103.129 73.781 110.551 79.121 117.943 84.504 C119.273 85.472 120.605 86.436 121.939 87.398 C123.652 88.633 125.358 89.877 127.062 91.125 C128.002 91.808 128.942 92.491 129.91 93.195 C132 95 132 95 133 98 C131.984 100.341 131.984 100.341 130.395 103.078 C129.823 104.075 129.251 105.071 128.662 106.098 C128.052 107.138 127.441 108.178 126.812 109.25 C126.221 110.275 125.63 111.3 125.021 112.355 C123.874 114.344 122.721 116.331 121.565 118.314 C119.69 121.532 117.842 124.764 116 128 C108.599 125.683 101.593 122.75 94.5 119.625 C91.827 118.455 89.152 117.288 86.477 116.121 C85.748 115.803 85.019 115.485 84.268 115.157 C77.99 112.421 71.696 109.724 65.398 107.035 C64.384 106.602 63.369 106.169 62.324 105.722 C60.234 104.83 58.144 103.938 56.053 103.045 C38.712 95.639 21.421 88.137 4.213 80.426 C-5.933 75.885 -16.136 71.501 -26.416 67.271 C-27.395 66.864 -28.374 66.458 -29.383 66.039 C-30.232 65.691 -31.082 65.342 -31.958 64.983 C-34 64 -34 64 -36 62 C-35.653 61.533 -35.307 61.067 -34.949 60.586 C-27.386 50.364 -20.22 40.097 -14 29 C-13.651 28.38 -13.302 27.761 -12.942 27.122 C-8.019 18.314 -3.802 9.348 0 0 Z " fill="#FEC635" transform="translate(723,592)"/>
<path d="M0 0 C2.264 4.073 4.524 8.148 6.781 12.225 C7.549 13.612 8.319 14.998 9.089 16.384 C10.196 18.375 11.299 20.369 12.402 22.363 C12.575 22.673 12.575 22.673 13.447 24.239 C14.866 26.809 16.069 29.207 17 32 C6.523 39.922 -4.051 47.694 -14.718 55.359 C-18.483 58.066 -22.241 60.784 -26 63.5 C-27.5 64.583 -29 65.667 -30.5 66.75 C-31.243 67.286 -31.985 67.822 -32.75 68.375 C-47 78.667 -61.25 88.958 -75.5 99.25 C-76.243 99.787 -76.986 100.324 -77.752 100.877 C-79.245 101.955 -80.737 103.032 -82.23 104.11 C-86.096 106.9 -89.959 109.695 -93.816 112.496 C-94.611 113.072 -95.406 113.649 -96.225 114.242 C-97.726 115.331 -99.226 116.42 -100.725 117.512 C-105.732 121.14 -110.834 124.603 -116 128 C-118.207 123.652 -120.344 119.288 -122.375 114.855 C-130.472 97.29 -140 81.182 -152 66 C-149.886 63.672 -148.058 62.392 -145.156 61.198 C-144.385 60.876 -143.614 60.554 -142.819 60.222 C-141.983 59.882 -141.147 59.542 -140.285 59.191 C-139.848 59.01 -139.848 59.01 -137.636 58.092 C-135.758 57.314 -133.879 56.539 -131.998 55.767 C-128.051 54.147 -124.11 52.511 -120.168 50.875 C-118.197 50.058 -116.226 49.241 -114.254 48.425 C-106.541 45.232 -98.855 41.986 -91.188 38.688 C-90.091 38.216 -88.995 37.745 -87.865 37.259 C-84.576 35.842 -81.287 34.422 -78 33 C-76.85 32.503 -75.7 32.005 -74.515 31.493 C-69.014 29.113 -63.515 26.73 -58.017 24.344 C-51.412 21.478 -44.805 18.617 -38.195 15.762 C-37.363 15.402 -36.531 15.042 -35.674 14.672 C-32.374 13.246 -29.075 11.821 -25.776 10.396 C-23.49 9.409 -21.204 8.421 -18.918 7.434 C-18.209 7.128 -17.5 6.822 -16.77 6.507 C-13.014 4.883 -9.276 3.228 -5.551 1.535 C-2 0 -2 0 0 0 Z " fill="#FFC635" transform="translate(839,304)"/>
<path d="M0 0 C8.996 3.375 17.825 7.018 26.625 10.875 C29.27 12.029 31.916 13.18 34.562 14.332 C35.246 14.63 35.929 14.927 36.633 15.234 C44.617 18.709 52.62 22.136 60.625 25.562 C62.116 26.201 63.606 26.839 65.097 27.478 C70.661 29.86 76.226 32.241 81.791 34.622 C105.235 44.652 128.653 54.744 152 65 C150.574 68.281 148.581 70.983 146.421 73.82 C133.778 90.433 124.396 108.948 116 128 C109.279 124.008 103.046 119.597 96.875 114.812 C91.192 110.408 85.454 106.123 79.562 102 C78.863 101.51 78.163 101.021 77.442 100.516 C77.09 100.27 77.09 100.27 75.309 99.023 C63.676 90.883 52.245 82.459 40.827 74.022 C35.115 69.807 29.36 65.659 23.574 61.547 C18.693 58.075 13.84 54.565 8.99 51.049 C4.972 48.137 0.942 45.247 -3.113 42.387 C-3.942 41.799 -4.77 41.211 -5.624 40.605 C-7.221 39.472 -8.821 38.345 -10.427 37.225 C-11.143 36.715 -11.86 36.205 -12.598 35.68 C-13.232 35.234 -13.866 34.787 -14.52 34.328 C-16 33 -16 33 -17 30 C-15.876 27.444 -15.876 27.444 -14.141 24.414 C-13.519 23.318 -12.898 22.223 -12.258 21.094 C-11.589 19.937 -10.919 18.781 -10.25 17.625 C-9.603 16.488 -8.956 15.351 -8.289 14.18 C-5.575 9.423 -2.83 4.689 0 0 Z " fill="#FEC635" transform="translate(185,304)"/>
<path d="M0 0 C0.33 0.66 0.33 0.66 2 4 C1.34 4 0.68 4 0 4 C0 4.99 0 5.98 0 7 C-0.66 7 -1.32 7 -2 7 C-1.835 7.66 -1.835 7.66 -1 11 C-1.99 10.67 -2.98 10.34 -4 10 C-4.99 10.33 -5.98 10.66 -7 11 C-9.166 11.11 -11.335 11.159 -13.503 11.177 C-13.831 11.18 -13.831 11.18 -15.49 11.197 C-17.658 11.217 -19.825 11.228 -21.992 11.238 C-22.733 11.242 -23.475 11.246 -24.238 11.251 C-28.16 11.271 -32.082 11.286 -36.004 11.295 C-40.052 11.306 -44.099 11.341 -48.146 11.38 C-51.262 11.406 -54.378 11.415 -57.494 11.418 C-58.986 11.423 -60.478 11.435 -61.97 11.453 C-64.06 11.478 -66.148 11.477 -68.238 11.47 C-69.426 11.476 -70.614 11.482 -71.837 11.488 C-75.641 10.901 -77.293 9.685 -80 7 C-80.812 4.75 -80.812 4.75 -81 3 C-78.82 4.012 -77.058 4.949 -75.243 6.544 C-72.317 8.443 -70.333 8.416 -66.858 8.48 C-65.616 8.509 -64.375 8.539 -63.095 8.569 C-61.743 8.586 -60.391 8.602 -59.039 8.617 C-57.647 8.642 -56.254 8.667 -54.862 8.693 C-51.945 8.744 -49.028 8.785 -46.111 8.818 C-42.383 8.862 -38.656 8.932 -34.928 9.011 C-32.053 9.068 -29.177 9.111 -26.301 9.149 C-24.927 9.169 -23.553 9.194 -22.179 9.224 C-20.254 9.263 -18.327 9.28 -16.401 9.296 C-15.854 9.304 -15.854 9.304 -13.086 9.343 C-9.453 8.939 -7.109 7.901 -4 6 C-1.625 2.812 -1.625 2.812 0 0 Z " fill="#C8F4F3" transform="translate(552,915)"/>
</svg>
