<?xml version="1.0" encoding="UTF-8"?>
<!-- Generator: visioncortex VTracer 0.6.12 -->
<svg version="1.1" xmlns="http://www.w3.org/2000/svg" width="1024" height="1024">
<path d="M0 0 C337.92 0 675.84 0 1024 0 C1024 337.92 1024 675.84 1024 1024 C686.08 1024 348.16 1024 0 1024 C0 686.08 0 348.16 0 0 Z " fill="#D8D8D8" transform="translate(0,0)"/>
<path d="M0 0 C0.995 0.781 1.99 1.562 3.016 2.367 C20.049 16.042 36.747 31.597 50 49 C50.793 49.999 51.586 50.998 52.402 52.027 C72.537 77.496 88.353 106.35 99 137 C99.272 137.773 99.543 138.547 99.823 139.344 C107.078 160.28 111.635 181.989 114 204 C114.047 204.396 114.047 204.396 114.286 206.403 C115.272 215.578 115.244 224.783 115.25 234 C115.25 234.442 115.25 234.442 115.252 236.679 C115.215 267.645 110.415 297.479 101 327 C100.729 327.852 100.458 328.703 100.178 329.581 C88.468 365.543 69.12 399.745 44 428 C42.833 429.354 41.667 430.708 40.5 432.062 C39.336 433.378 38.169 434.69 37 436 C36.602 436.451 36.602 436.451 34.586 438.73 C-7.17 485.476 -66.786 516.51 -128 528 C-129.116 528.21 -130.232 528.421 -131.382 528.637 C-166.044 534.826 -203.417 534.516 -238 528 C-238.557 527.896 -238.557 527.896 -241.374 527.367 C-294.465 516.996 -343.852 491.823 -383.594 455.195 C-384.974 453.936 -386.365 452.687 -387.784 451.47 C-392.751 447.208 -397.342 442.715 -401.812 437.938 C-402.508 437.194 -403.204 436.451 -403.921 435.686 C-418.101 420.372 -430.59 403.078 -441 385 C-441.443 384.237 -441.886 383.473 -442.343 382.687 C-462.804 347.163 -475.594 307.786 -480 267 C-480.092 266.243 -480.184 265.487 -480.279 264.708 C-485.975 212.46 -477.043 157.655 -454.15 110.378 C-452.981 107.961 -451.842 105.53 -450.703 103.098 C-441.424 83.603 -429.561 65.764 -416 49 C-415.775 48.718 -415.775 48.718 -414.639 47.288 C-407.798 38.729 -400.153 30.95 -392.438 23.188 C-391.954 22.699 -391.471 22.211 -390.974 21.707 C-384.332 15.01 -377.41 8.841 -370 3 C-369.409 2.524 -368.817 2.048 -368.208 1.557 C-354.136 -9.764 -338.956 -19.561 -323 -28 C-322.679 -28.17 -322.679 -28.17 -321.057 -29.03 C-295.05 -42.69 -266.94 -52.793 -238 -58 C-236.937 -58.195 -235.875 -58.389 -234.78 -58.59 C-152.326 -73.014 -65.739 -51.694 0 0 Z " fill="#4A1000" transform="translate(695,285)"/>
<path d="M0 0 C0.691 25.674 -3.626 51.398 -14 75 C-14.35 75.804 -14.701 76.607 -15.062 77.435 C-22.69 94.691 -32.223 110.25 -44 125 C-44.407 125.51 -44.814 126.02 -45.233 126.545 C-57.447 141.685 -71.414 156.322 -87 168 C-88.206 168.934 -89.412 169.869 -90.617 170.805 C-109.795 185.574 -130.313 197.388 -152.062 207.938 C-153.204 208.494 -154.346 209.05 -155.523 209.623 C-161.595 212.531 -167.556 215.043 -174 217 C-176.838 214.457 -179.67 211.906 -182.499 209.352 C-183.977 208.021 -185.463 206.698 -186.949 205.375 C-198.601 194.942 -208.577 183.463 -218 171 C-218.508 170.338 -219.016 169.676 -219.539 168.994 C-249.328 130.006 -274.783 74.001 -273 24 C-266.605 22.5 -260.256 21.369 -253.75 20.484 C-252.765 20.348 -251.78 20.212 -250.765 20.072 C-247.511 19.625 -244.256 19.186 -241 18.75 C-239.862 18.597 -238.724 18.445 -237.551 18.287 C-159.321 7.85 -79.003 0 0 0 Z " fill="#E63500" transform="translate(508,516)"/>
<path d="M0 0 C29.37 0 58.74 0 89 0 C89 79.992 79.498 156.652 46 230 C45.531 231.036 45.063 232.072 44.58 233.14 C41.711 239.44 38.72 245.663 35.589 251.837 C34.497 254.011 33.428 256.198 32.38 258.393 C30.753 261.777 29.045 265.107 27.312 268.438 C26.834 269.469 26.355 270.5 25.862 271.563 C23.348 276.185 21.563 278.526 16.423 280.083 C11.966 280.805 7.507 280.919 3 281 C1.457 281.056 -0.085 281.113 -1.628 281.172 C-6.42 281.323 -11.206 281.335 -16 281.312 C-16.85 281.31 -17.699 281.308 -18.575 281.306 C-70.522 281.096 -127.764 266.349 -170 235 C-170.757 234.477 -171.513 233.953 -172.293 233.414 C-172.856 232.947 -173.42 232.481 -174 232 C-174 231.34 -174 230.68 -174 230 C-173.367 229.719 -172.734 229.438 -172.083 229.149 C-158.356 223.029 -144.914 216.704 -132 209 C-131.228 208.54 -130.457 208.08 -129.662 207.606 C-118.488 200.881 -107.993 193.512 -97.779 185.409 C-96.254 184.201 -94.716 183.011 -93.176 181.824 C-86.072 176.299 -79.501 170.212 -73 164 C-72.384 163.413 -71.768 162.825 -71.133 162.22 C-62.764 154.189 -55.14 145.93 -48.216 136.622 C-47.07 135.094 -45.892 133.591 -44.711 132.09 C-14.478 93.257 -1.944 48.6 0 0 Z " fill="#E63500" transform="translate(528,516)"/>
<path d="M0 0 C2.334 0.521 4.669 1.039 7.004 1.555 C44.23 10.058 80.331 24.536 110 49 C110.572 49.465 111.144 49.93 111.733 50.41 C143.384 76.25 165.673 113.362 172 154 C172.019 156 172.021 158 172 160 C171.512 160.02 171.512 160.02 169.04 160.12 C84.69 163.588 0.639 169.636 -83.031 181.121 C-83.947 181.247 -84.863 181.372 -85.807 181.501 C-87.521 181.736 -89.234 181.974 -90.948 182.213 C-93.991 182.631 -96.924 183 -100 183 C-101.521 138.965 -88.858 93.539 -68 55 C-67.651 54.348 -67.302 53.695 -66.943 53.023 C-59.146 38.515 -50.158 24.779 -39.949 11.848 C-37.998 9.376 -36.304 6.896 -34.707 4.184 C-26.301 -8.923 -12.874 -3.151 0 0 Z " fill="#E63500" transform="translate(334,336)"/>
<path d="M0 0 C13.712 -1.129 13.712 -1.129 18.785 3.059 C21.486 5.758 23.762 8.721 25.948 11.846 C27.503 14.054 29.251 16.077 30.996 18.137 C32.381 19.921 33.754 21.714 35.121 23.512 C35.602 24.132 36.084 24.751 36.58 25.39 C57.117 51.91 72.855 81.372 85.121 112.512 C85.283 112.917 85.283 112.917 86.104 114.97 C91.876 129.476 96.112 144.436 100.121 159.512 C100.398 160.551 100.676 161.591 100.961 162.662 C108.529 191.623 114.121 223.515 114.121 253.512 C84.751 253.512 55.381 253.512 25.121 253.512 C23.141 244.272 21.161 235.032 19.121 225.512 C9.494 192.855 -6.621 166.177 -29.879 141.512 C-30.244 141.12 -30.244 141.12 -32.09 139.137 C-68.505 101.232 -123.107 81.009 -173.879 72.512 C-173.879 71.522 -173.879 70.532 -173.879 69.512 C-171.93 67.602 -171.93 67.602 -169.191 65.449 C-168.179 64.651 -167.168 63.853 -166.125 63.031 C-165.589 62.616 -165.052 62.2 -164.5 61.772 C-162.939 60.558 -161.395 59.322 -159.852 58.086 C-117.535 24.627 -62.624 3.065 -8.539 0.68 C-5.661 0.548 -2.861 0.302 0 0 Z " fill="#E63500" transform="translate(501.87890625,242.48828125)"/>
<path d="M0 0 C55.098 6.543 104.851 29.141 147 65 C147.851 65.719 148.702 66.439 149.578 67.18 C152.113 69.396 154.558 71.681 157 74 C157.721 74.673 158.443 75.346 159.186 76.039 C161.706 78.402 164.199 80.792 166.688 83.188 C167.516 83.961 168.344 84.734 169.197 85.53 C174.92 91.125 174.92 91.125 175.266 94.918 C175.057 95.427 175.057 95.427 174 98 C173.868 98.352 173.868 98.352 173.202 100.131 C172.561 101.837 171.898 103.535 171.22 105.228 C154.044 148.214 146.098 194.597 143.645 240.632 C143.61 241.284 143.61 241.284 143.43 244.586 C143.37 245.752 143.311 246.918 143.25 248.119 C143 251 143 251 142 254 C135.379 253.739 128.759 253.472 122.139 253.2 C119.887 253.109 117.635 253.019 115.382 252.93 C112.145 252.802 108.909 252.669 105.672 252.535 C104.664 252.497 103.657 252.458 102.619 252.418 C101.678 252.378 100.738 252.338 99.769 252.297 C98.942 252.264 98.116 252.231 97.265 252.196 C95.025 252.002 93.106 251.798 91 251 C89.787 247.362 89.533 243.806 89.203 240.012 C89.051 238.354 88.898 236.697 88.745 235.04 C88.665 234.167 88.585 233.295 88.502 232.396 C82.213 164.879 64.409 97.834 28 40 C27.801 39.683 27.801 39.683 26.793 38.079 C20.689 28.462 13.91 19.34 7.102 10.215 C4.62 6.876 2.266 3.488 0 0 Z " fill="#E63500" transform="translate(546,245)"/>
<path d="M0 0 C11.377 -0.14 22.648 0.271 34 1 C35.565 1.097 37.13 1.193 38.695 1.289 C42.464 1.521 46.232 1.759 50 2 C50.899 8.176 51.269 14.324 51.595 20.555 C54.299 71.946 64.655 125.015 86.108 172.081 C87.205 174.557 88.034 176.48 87.855 179.215 C86.848 181.317 85.702 182.779 84.125 184.5 C83.489 185.197 82.854 185.895 82.199 186.613 C81.473 187.401 80.748 188.189 80 189 C79.202 189.901 78.404 190.802 77.582 191.73 C66.204 204.453 53.748 215.392 40.014 225.513 C38.18 226.867 36.362 228.239 34.547 229.617 C10.015 247.981 -31.385 273 -63 273 C-61.626 268.523 -59.846 264.518 -57.691 260.363 C-57.025 259.066 -56.359 257.768 -55.694 256.47 C-55.347 255.793 -54.999 255.116 -54.641 254.419 C-18.371 183.544 -3.727 106.28 0 0 Z " fill="#E63500" transform="translate(638,517)"/>
<path d="M0 0 C10.037 -0.354 19.908 0.721 29.875 1.75 C30.748 1.838 31.621 1.927 32.52 2.017 C48.405 3.627 64.209 5.634 80 8 C89.259 48.43 62.478 107.366 41.867 140.922 C38.673 146.01 35.341 151.007 32 156 C5.576 129.576 0.054 44.877 -0.132 10.646 C-0.122 7.096 -0.075 3.549 0 0 Z " fill="#E63500" transform="translate(709,521)"/>
<path d="M0 0 C4.066 3.614 6.711 7.926 9.562 12.5 C10.087 13.34 10.611 14.18 11.152 15.046 C32.03 48.821 45.674 85.218 51.812 124.5 C51.924 125.203 52.036 125.905 52.151 126.629 C53.344 135.027 53.584 143.536 54 152 C53.402 151.929 52.804 151.859 52.187 151.786 C45.826 151.034 39.464 150.289 33.102 149.546 C30.743 149.27 28.385 148.993 26.027 148.714 C12.558 147.123 -0.899 145.658 -14.426 144.64 C-15.351 144.569 -16.276 144.498 -17.229 144.425 C-18.033 144.367 -18.837 144.308 -19.666 144.248 C-22.153 143.984 -24.555 143.526 -27 143 C-28.938 95.339 -17.922 44.091 0 0 Z " fill="#E63500" transform="translate(736,357)"/>
<path d="M0 0 C29.829 8.447 56.771 33.273 73 59 C77.001 66.183 80.235 72.603 79 81 C77.125 84.062 77.125 84.062 74 86 C64.902 88.012 56.559 83.713 48.922 79.168 C38.472 72.375 29.187 64.383 20 56 C19.175 55.268 18.35 54.536 17.5 53.781 C4.056 41.85 -11.266 28.235 -16 10.188 C-16 6.456 -15.313 4.892 -13 2 C-8.648 -0.901 -5.111 -0.653 0 0 Z " fill="#DADBDA" transform="translate(624,295)"/>
<path d="M0 0 C13.138 6.429 19.607 21.902 24.233 34.964 C27.639 45.102 31.718 57.375 27.812 67.938 C25.81 71.321 24.675 72.633 21 74 C16.117 74.109 12.823 72.071 9.137 69.094 C-4.181 56.044 -13.808 33.593 -14.375 14.938 C-13.868 9.61 -13.465 5.632 -9.812 1.562 C-6.179 -0.456 -4.107 -0.576 0 0 Z " fill="#DADBD9" transform="translate(738,413)"/>
</svg>
